EBGaramond-Italic.sfdir

StartChar: exclam
Encoding: 33 33 66
Width: 248
VWidth: 0
Flags: W
HStem: -14 111<108.294 178.706>
VStem: 92 103<2.17511 81.2768> 189 34<213.757 281.903> 260 97<515.671 617.194>
LayerCount: 2
Fore
SplineSet
155 97 m 16xd0
 179 97 195 75 195 51 c 16
 195 16 167 -14 132 -14 c 8
 108 -14 92 9 92 33 c 16
 92 68 120 97 155 97 c 16xd0
260 573 m 0
 272 612 298 649 332 649 c 0
 364 649 368 612 357 575 c 0
 330 488 272 358 223 244 c 0
 213 222 203 205 194 205 c 0
 185 205 183 215 189 244 c 0xb0
 213 358 241 510 260 573 c 0
EndSplineSet
Substitution2: "sups subtable" exclam.sups
Substitution2: "sinf subtable" exclam.sinf
Substitution2: "ordn subtable" exclam.ordn
Substitution2: "subs subtable" exclam.subs
EndChar

StartChar: quotedbl
Encoding: 34 34 68
Width: 285
VWidth: 0
Flags: W
HStem: 444 232
LayerCount: 2
Fore
SplineSet
202 467 m 0
 220 520 232 557 246 619 c 0
 249 633 263 648 274 655 c 0
 293 667 306 676 321 676 c 0
 335 676 325 645 316 624 c 0
 286 555 253 505 227 469 c 0
 219 457 206 444 201 444 c 0
 196 444 199 458 202 467 c 0
324 467 m 0
 342 520 353 557 367 619 c 0
 370 633 385 648 396 655 c 0
 415 667 428 676 443 676 c 0
 457 676 447 645 438 624 c 0
 408 555 375 505 349 469 c 0
 341 457 328 444 323 444 c 0
 318 444 321 458 324 467 c 0
EndSplineSet
Substitution2: "sups subtable" quotedbl.sups
Substitution2: "sinf subtable" quotedbl.sinf
Substitution2: "ordn subtable" quotedbl.ordn
Substitution2: "subs subtable" quotedbl.subs
EndChar

StartChar: dollar
Encoding: 36 36 98
Width: 424
VWidth: 0
Flags: W
HStem: -19 35<229.781 291.454>
VStem: 523 33<490.103 591.494>
LayerCount: 2
Fore
SplineSet
327 270 m 2
 225 26 l 2
 221 17 224 16 229 16 c 0
 300 21 343 54 372 148 c 0
 387 198 350 258 332 275 c 0
 330 277 329 275 327 270 c 2
383 367 m 0
 419 331 493 273 462 171 c 0
 438 91 353 -19 213 -19 c 0
 210 -19 204 -20 202 -25 c 2
 171 -101 l 10
 167 -112 153 -116 143 -116 c 24
 135 -116 130 -109 133 -101 c 18
 166 -22 l 2
 167 -19 166 -15 163 -15 c 0
 131 -9 113 2 93 8 c 0
 81 11 83 15 83 20 c 0
 80 43 88 122 97 158 c 0
 99 166 110 174 120 174 c 0
 128 174 123 62 179 26 c 0
 181 25 186 25 187 28 c 2
 300 297 l 2
 301 300 302 305 294 314 c 0
 245 362 204 417 228 497 c 0
 246 555 325 651 443 659 c 0
 449 660 453 662 454 665 c 2
 466 691 l 10
 472 704 486 708 498 708 c 24
 505 708 508 699 505 691 c 18
 493 665 l 2
 492 662 493 659 497 658 c 0
 533 655 553 647 566 644 c 8
 576 642 577 632 576 622 c 0
 571 588 567 550 556 515 c 0
 553 506 544 490 539 490 c 0
 534 490 522 500 523 515 c 0
 526 575 504 605 478 618 c 0
 476 619 473 615 472 613 c 2
 376 386 l 2
 370 371 375 376 383 367 c 0
432 627 m 0
 377 622 322 569 306 517 c 0
 293 476 313 440 339 411 c 0
 341 410 341 409 343 409 c 0
 345 409 347 411 348 413 c 2
 436 619 l 2
 438 624 437 627 432 627 c 0
EndSplineSet
Validated: 33
Substitution2: "sups subtable" dollar.sups
Substitution2: "sinf subtable" dollar.sinf
Substitution2: "ordn subtable" dollar.ordn
Substitution2: "subs subtable" dollar.subs
EndChar

StartChar: ampersand
Encoding: 38 38 1014
Width: 876
VWidth: 0
Flags: W
HStem: -144 79<299.217 514.412> 182 49<529.507 618> 304 86<243.803 316.767> 312 73<210.142 276.967> 462 21G<393 421.5> 538 52<235.96 350.089> 634 52<766.182 834.739>
VStem: 28 66<105.621 245.93> 137 60<396.244 499.359> 466 48<244.948 363.916> 591 78<232.502 297.532> 757 44<121.468 326.652> 846 60<548.009 623.751>
LayerCount: 2
Back
Fore
SplineSet
336 590 m 16xeff8
 396 590 444 556 444 514 c 8
 444 488.414 439 462 404 462 c 0
 382 462 366 538 292 538 c 0
 246 538 197 498 197 454 c 0
 197 413 221 385 243 385 c 0xdff8
 260 385 286 390 308 390 c 0
 321 390 333 377 333 365 c 8
 333 332.968 300 304 278 304 c 0xeff8
 256 304 232 312 202 312 c 0
 140 312 94 258 94 204 c 8
 94 36.7461 253 -65 428 -65 c 0
 579 -65 757 36 757 199 c 0
 757 287 738.344 365.5 663 409 c 0
 650.304 416.33 635.076 418 621 418 c 0
 601 418 514 377 514 312 c 8xdff8
 514 274.248 529.248 231 567 231 c 16
 584 231 591 248.086 591 264 c 16
 591 284 590.229 311 610 311 c 16
 644 311 669 283.818 669 251 c 16
 669 214 636 182 600 182 c 8
 529.325 182 466 230 466 304 c 0
 466 413 633 498 696 508 c 0
 798 524 846 553 846 572 c 0
 846 603 829 634 798 634 c 8
 785.423 634 779 634 770 618 c 0
 765 609 758 606 748 606 c 8
 738.344 606 731 614.344 731 624 c 16
 731 659 760.967 686 796 686 c 16
 852 686 906 634 906 578 c 8
 906 492.872 764 458 725 456 c 0
 687 454 683 450 683 445 c 0
 683 440 686.051 436.016 699 428 c 0
 762 389 801 323 801 241 c 0
 801 17 607 -144 383 -144 c 8
 201.734 -144 28 -30 28 156 c 0
 28 271 115.937 322.218 164 336 c 0
 173.613 338.756 174.304 349.075 168 354 c 0
 153.816 365.082 137 388.966 137 416 c 16
 137 529 232.906 590 336 590 c 16xeff8
EndSplineSet
Validated: 33
Substitution2: "sups subtable" ampersand.sups
Substitution2: "sinf subtable" ampersand.sinf
Substitution2: "ordn subtable" ampersand.ordn
Substitution2: "subs subtable" ampersand.subs
Substitution2: "ampersand_alt subtable" ampersand.01
EndChar

StartChar: quotesingle
Encoding: 39 39 69
Width: 178
VWidth: 0
Flags: W
HStem: 444 232
LayerCount: 2
Fore
SplineSet
202 467 m 0
 220 520 232 557 246 619 c 0
 249 633 263 648 274 655 c 0
 293 667 306 676 321 676 c 0
 335 676 325 645 316 624 c 0
 286 555 253 505 227 469 c 0
 219 457 206 444 201 444 c 0
 196 444 199 458 202 467 c 0
EndSplineSet
Substitution2: "sups subtable" quotesingle.sups
Substitution2: "sinf subtable" quotesingle.sinf
Substitution2: "ordn subtable" quotesingle.ordn
Substitution2: "subs subtable" quotesingle.subs
EndChar

StartChar: parenleft
Encoding: 40 40 108
Width: 291
VWidth: 0
Flags: W
HStem: 685 20G<436.5 444.5>
LayerCount: 2
Fore
SplineSet
119 269 m 0
 171 439 324 623 412 694 c 0
 419 700 432 705 441 705 c 0
 448 705 452 703 455 698 c 8
 457 694 456 686 451 682 c 0
 363 611 230 451 178 281 c 0
 126 111 142 -115 186 -186 c 0
 188 -190 185 -198 179 -204 c 16
 173 -210 162 -214 154 -214 c 0
 148 -214 144 -212 141 -207 c 0
 97 -136 67 99 119 269 c 0
EndSplineSet
Validated: 33
Substitution2: "sups subtable" parenleft.sups
Substitution2: "sinf subtable" parenleft.sinf
Substitution2: "ordn subtable" parenleft.ordn
Substitution2: "subs subtable" parenleft.subs
EndChar

StartChar: parenright
Encoding: 41 41 109
Width: 292
VWidth: 0
Flags: HW
HStem: 684 20G<270.5 281.5>
LayerCount: 2
Fore
SplineSet
333 281 m 0
 281 111 101 -136 13 -207 c 0
 8 -211 3 -213 -4 -213 c 0
 -21 -213 -36 -200 -19 -186 c 0
 69 -115 220 97 272 267 c 0
 324 437 294 611 250 682 c 0
 241 697 264 704 277 704 c 24
 286 704 292 701 296 694 c 0
 340 623 385 451 333 281 c 0
EndSplineSet
Substitution2: "sups subtable" parenright.sups
Substitution2: "sinf subtable" parenright.sinf
Substitution2: "ordn subtable" parenright.ordn
Substitution2: "subs subtable" parenright.subs
EndChar

StartChar: hyphen
Encoding: 45 45 94
Width: 274
VWidth: 0
Flags: W
HStem: 170 85
VStem: 50 224
LayerCount: 2
Fore
SplineSet
62 170 m 2
 54.0798107383 168.872790144 50 169 50 173 c 0
 50 195 74.0832694358 228.778559848 83 230 c 6
 266 255 l 2
 271.945899198 255.803917113 274 254 274 247 c 0
 274 222 247.900236577 196.409012319 238 195 c 2
 62 170 l 2
EndSplineSet
Validated: 1
Substitution2: "sups subtable" hyphen.sups
Substitution2: "sinf subtable" hyphen.sinf
Substitution2: "ordn subtable" hyphen.ordn
Substitution2: "subs subtable" hyphen.subs
EndChar

StartChar: period
Encoding: 46 46 39
Width: 215
VWidth: 0
Flags: HW
HStem: -14 115<41.8503 118.15>
VStem: 25 110<3.02179 83.9782>
LayerCount: 2
Fore
SplineSet
90 101 m 20
 116 101 135 77 135 51 c 12
 135 15 106 -14 70 -14 c 12
 44 -14 25 10 25 36 c 12
 25 72 54 101 90 101 c 20
EndSplineSet
Substitution2: "sups subtable" period.sups
Substitution2: "sinf subtable" period.sinf
Substitution2: "ordn subtable" period.ordn
Substitution2: "subs subtable" period.subs
EndChar

StartChar: slash
Encoding: 47 47 96
Width: 370
VWidth: 0
Flags: HW
LayerCount: 2
Fore
SplineSet
13 -47 m 26
 415 648 l 30
 424 663 439 665 456 665 c 28
 463 665 467 654 463 648 c 30
 61 -47 l 26
 53 -61 39 -62 23 -62 c 24
 16 -62 9 -53 13 -47 c 26
EndSplineSet
Substitution2: "frac_slash subtable" fraction
Substitution2: "sups subtable" slash.sups
Substitution2: "sinf subtable" slash.sinf
Substitution2: "ordn subtable" slash.ordn
Substitution2: "subs subtable" slash.subs
EndChar

StartChar: zero
Encoding: 48 48 83
Width: 440
VWidth: 0
Flags: W
HStem: -15 30<112.282 177.123> 384 30<254.95 322.766>
VStem: 45 63<16.1263 167.068> 327 64<228.676 382.358>
LayerCount: 2
Fore
SplineSet
298 384 m 16
 206 384 108 176 108 45 c 8
 108 28 121 15 138 15 c 16
 221 15 327 203 327 354 c 8
 327 370 314 384 298 384 c 16
308 414 m 8
 354 414 391 376 391 330 c 8
 391 160 268 -15 123 -15 c 8
 78 -15 45 24 45 69 c 16
 45 226 163 414 308 414 c 8
EndSplineSet
Substitution2: "'tnum' Tabular Numbers lookup 45 subtable" zero.taboldstyle
Substitution2: "'lnum' Lining Figures lookup 43 subtable" zero.lnum
Substitution2: "Single Substitution lookup 42 subtable" zero.ordn
Substitution2: "Single Substitution lookup 41 subtable" zero.subs
Substitution2: "sups subtable" zero.sups
Substitution2: "sinf subtable" zero.sinf
Substitution2: "ordn subtable" zero.ordn
Substitution2: "subs subtable" zero.subs
EndChar

StartChar: one
Encoding: 49 49 50
Width: 338
VWidth: 0
Flags: W
HStem: -3 25<14.7638 94.4539 194.745 262.942> 384 22<144.436 197.474 300.946 363.825>
LayerCount: 2
Fore
SplineSet
122 68 m 2
 203 333 l 2
 217 380 184 380 160 384 c 0
 157 384 144 393 144 396 c 0
 144 403 161 406 166 406 c 0
 222 406 222 403 258 403 c 24
 294 403 296 406 350 406 c 0
 354 406 364 399 364 396 c 0
 364 390 350 385 343 384 c 0
 315 378 286 380 271 333 c 0
 242 244 203 115 190 68 c 0
 179 29 203 28 242 22 c 0
 248 21 263 14 263 10 c 0
 263 3 243 -3 234 -3 c 0
 181 -3 174 2 136 2 c 24
 95 2 82 -3 32 -3 c 0
 28 -3 14 2 14 7 c 0
 14 14 30 21 40 22 c 0
 66 24 109 27 122 68 c 2
EndSplineSet
Validated: 33
Substitution2: "'tnum' Tabular Numbers lookup 45 subtable" one.taboldstyle
Substitution2: "'lnum' Lining Figures lookup 43 subtable" one.lnum
Substitution2: "Single Substitution lookup 42 subtable" one.ordn
Substitution2: "Single Substitution lookup 41 subtable" one.subs
Substitution2: "sups subtable" one.sups
Substitution2: "sinf subtable" one.sinf
Substitution2: "ordn subtable" one.ordn
Substitution2: "subs subtable" one.subs
EndChar

StartChar: two
Encoding: 50 50 77
Width: 424
VWidth: 0
Flags: W
HStem: 0 65<119.682 306.932> 358 55<182.573 278.193>
VStem: 286 78<262.572 349.305>
LayerCount: 2
Back
SplineSet
302 65 m 2
 337 65 379 90 408 128 c 0
 412 133 419.974 138.903 429 138 c 24
 433.673 137.532 431 131 428 126 c 0
 399 81 381 52 362 12 c 0
 355 -3 349 -4 345 -4 c 0
 344 -4 344 -4 343 -4 c 0
 285 0 242.368 -0.203054 178 0 c 24
 118.709 0.1875 86 0 26 -3 c 0
 20 -3 22 9 32 17 c 0
 53 34 87 61 106 74 c 0
 132 92 264 185 290 264 c 4
 306 312 289.833 355.5 253.833 355.5 c 4
 211.833 355.5 175 335 132 297 c 0
 127 293 124.275 287.692 119 290 c 24
 113.884 292.238 114 298 116 304 c 0
 119 313 192 413 302 413 c 4
 362 413 381 353 362 290 c 4
 352 258 324 220 293 191 c 0
 254 155 156 80 145 73 c 0
 138 69 145 65 151 65 c 2
 302 65 l 2
EndSplineSet
Fore
SplineSet
246 65 m 2
 281 65 306 76 330 117 c 0
 341 136 343 144 353 144 c 0
 363 144 364 138 364 132 c 0
 364 112 326 41 311 12 c 0
 303 -3 298 -4 294 -4 c 0
 235 -4 203 0 145 0 c 24
 93 0 30 -5 12 -5 c 0
 10 -5 -1 0 0 14 c 0
 1 22 24 41 73 74 c 0
 102 94 286 211 286 312 c 0
 286 344 259 358 232 358 c 0
 190 358 161 335 128 300 c 0
 124 295 118 290 113 290 c 0
 107 290 103 293 103 302 c 0
 103 330 168 413 269 413 c 0
 314 413 363 370 363 326 c 0
 363 262 314 230 272 191 c 0
 233 155 131 80 120 73 c 0
 113 69 120 65 126 65 c 2
 246 65 l 2
EndSplineSet
Validated: 1
Substitution2: "'tnum' Tabular Numbers lookup 45 subtable" two.taboldstyle
Substitution2: "'lnum' Lining Figures lookup 43 subtable" two.lnum
Substitution2: "Single Substitution lookup 42 subtable" two.ordn
Substitution2: "Single Substitution lookup 41 subtable" two.subs
Substitution2: "sups subtable" two.sups
Substitution2: "sinf subtable" two.sinf
Substitution2: "ordn subtable" two.ordn
Substitution2: "subs subtable" two.subs
EndChar

StartChar: three
Encoding: 51 51 84
Width: 344
VWidth: 0
Flags: HW
HStem: -194 39<-7.5328 107.19> 112 49<138 189> 360 53<156.255 241.514>
VStem: 199 80<-27.7533 89.905> 254 70<254.696 349.111>
LayerCount: 2
Fore
SplineSet
234 413 m 0xe8
 285 413 324 368 324 321 c 0xe8
 324 264 283 216 190 167 c 0
 186 165 184 161 189 161 c 0
 254 159 279 96 279 59 c 0
 279 -54 160 -194 19 -194 c 20
 -33 -194 -38 -156 -38 -149 c 4
 -38 -139 -33 -128 -22 -128 c 4
 -14 -128 6 -155 57 -155 c 12
 147 -155 199 -63 199 27 c 16xf0
 199 55 179 112 138 112 c 16
 124 112 99 105 74 92 c 0
 66 88 58 96 61 101 c 24
 71 118 87 128 100 135 c 0
 124 148 146 160 181 186 c 0
 201 200 254 246 254 305 c 0
 254 330 232 360 204 360 c 0
 162 360 134 348 105 308 c 0
 102 304 98 301 94 301 c 0
 90 301 85 310 85 314 c 0
 85 333 145 413 234 413 c 0xe8
EndSplineSet
Substitution2: "'tnum' Tabular Numbers lookup 45 subtable" three.taboldstyle
Substitution2: "'lnum' Lining Figures lookup 43 subtable" three.lnum
Substitution2: "Single Substitution lookup 42 subtable" three.ordn
Substitution2: "Single Substitution lookup 41 subtable" three.subs
Substitution2: "sups subtable" three.sups
Substitution2: "sinf subtable" three.sinf
Substitution2: "ordn subtable" three.ordn
Substitution2: "subs subtable" three.subs
EndChar

StartChar: four
Encoding: 52 52 79
Width: 482
VWidth: 0
Flags: W
HStem: -181 21G<213.5 220.5> 50 46<150.027 261.125> 56 54<361.269 453.31> 405 20G<453.5 461>
LayerCount: 2
Fore
SplineSet
279 104 m 2xd0
 284 104 291 108 292 112 c 2
 355 296 l 2
 356 299 349 299 346 297 c 24
 264 224 219 181 139 105 c 24
 136 102 132 96 136 96 c 2
 279 104 l 2xd0
43 61 m 0
 157 170 314 315 388 376 c 0
 408 393 450 424 457 425 c 0
 458 425 l 0
 464 425 465 418 463 413 c 8
 417 299 397 232 358 116 c 24
 357 114 358 110 361 110 c 16
 366 110 419 112 454 114 c 0
 460 114 461 103 461 99 c 8
 461 78 436 57 429 57 c 0
 407 57 376 56 354 56 c 0xb0
 349 56 340 47 340 46 c 2
 278 -150 l 2
 270 -175 224 -181 217 -181 c 0
 210 -181 204 -178 207 -168 c 2
 271 41 l 2
 273 47 260 50 259 50 c 0
 183 50 49 35 44 35 c 0
 41 35 33 39 33 45 c 0
 33 51 41 59 43 61 c 0
EndSplineSet
Substitution2: "'tnum' Tabular Numbers lookup 45 subtable" four.taboldstyle
Substitution2: "'lnum' Lining Figures lookup 43 subtable" four.lnum
Substitution2: "Single Substitution lookup 42 subtable" four.ordn
Substitution2: "Single Substitution lookup 41 subtable" four.subs
Substitution2: "sups subtable" four.sups
Substitution2: "sinf subtable" four.sinf
Substitution2: "ordn subtable" four.ordn
Substitution2: "subs subtable" four.subs
EndChar

StartChar: five
Encoding: 53 53 78
Width: 346
VWidth: 0
Flags: HW
HStem: -194 39<-32.414 106.266> 335 81<200.919 308.299>
VStem: 75 53<234.5 284.352> 180 66<-52.4597 95.4388>
LayerCount: 2
Fore
SplineSet
180 24 m 0
 180 83 129 144 92 187 c 0
 77 205 75 228 75 241 c 0
 75 247 84 265 87 269 c 0
 103 294 130 336 143 356 c 0
 155 376 175 385 186 389 c 0
 238 409 303 416 322 416 c 0
 330 416 331 408 331 402 c 0
 331 386 302 336 277 335 c 0
 226 334 216 344 187 343 c 0
 179 343 168 339 157 326 c 0
 154 322 128 284 128 280 c 0
 128 274 133 265 139 257 c 0
 206 172 246 120 246 64 c 0
 246 -89 148 -194 12 -194 c 16
 -40 -194 -52 -176 -52 -169 c 0
 -52 -159 -40 -128 -29 -128 c 0
 -21 -128 -1 -155 50 -155 c 8
 136 -155 180 -91 180 24 c 0
EndSplineSet
Substitution2: "'tnum' Tabular Numbers lookup 45 subtable" five.taboldstyle
Substitution2: "'lnum' Lining Figures lookup 43 subtable" five.lnum
Substitution2: "Single Substitution lookup 42 subtable" five.ordn
Substitution2: "Single Substitution lookup 41 subtable" five.subs
Substitution2: "sups subtable" five.sups
Substitution2: "sinf subtable" five.sinf
Substitution2: "ordn subtable" five.ordn
Substitution2: "subs subtable" five.subs
EndChar

StartChar: six
Encoding: 54 54 81
Width: 389
VWidth: 0
Flags: W
HStem: -15 30<88 183.86> 363 30<253.882 295.249> 578 30<435.844 498.683>
VStem: 31 68<27.0417 206.507> 309 64<185.871 354.218>
LayerCount: 2
Fore
SplineSet
259 363 m 0
 165 363 99 185 99 103 c 0
 99 66 109 15 147 15 c 0
 208 15 309 157 309 308 c 8
 309 337 293 363 259 363 c 0
31 113 m 0
 31 315 295 608 493 608 c 0
 497 608 501 602 501 600 c 0
 501 588 486 583 468 578 c 0
 393 557 297 471 262 422 c 0
 256 414 244 388 254 390 c 0
 264 392 271 393 281 393 c 0
 345 393 373 330 373 284 c 8
 373 131 263 -15 118 -15 c 8
 58 -15 31 32 31 113 c 0
EndSplineSet
Validated: 33
Substitution2: "'tnum' Tabular Numbers lookup 38 subtable" six.taboldstyle
Substitution2: "'lnum' Lining Figures lookup 36 subtable" six.lnum
Substitution2: "Single Substitution lookup 35 subtable" six.ordn
Substitution2: "Single Substitution lookup 34 subtable" six.subs
Substitution2: "sups subtable" six.sups
Substitution2: "sinf subtable" six.sinf
Substitution2: "ordn subtable" six.ordn
Substitution2: "subs subtable" six.subs
EndChar

StartChar: nine
Encoding: 57 57 82
Width: 367
VWidth: 0
Flags: HW
HStem: -209 30<-85.6826 -21.2891> 47 25<145.397 201.978> 386 28<229.083 287.223>
VStem: 60 67<90.0733 254.581> 301 65<183.651 365.153>
LayerCount: 2
Fore
SplineSet
177 72 m 0
 271 72 301 240 301 322 c 0
 301 352 291 386 261 386 c 0
 217 386 127 283 127 132 c 8
 127 102 143 72 177 72 c 0
366 286 m 0
 366 84 120 -209 -78 -209 c 0
 -82 -209 -88 -208 -88 -201 c 0
 -88 -189 -73 -184 -55 -179 c 0
 35 -154 166 -35 202 37 c 0
 206 46 197 52 187 50 c 0
 177 48 170 47 160 47 c 0
 96 47 60 110 60 156 c 8
 60 286 150 414 273 414 c 0
 323 414 366 351 366 286 c 0
EndSplineSet
Substitution2: "'tnum' Tabular Numbers lookup 45 subtable" nine.taboldstyle
Substitution2: "'lnum' Lining Figures lookup 43 subtable" nine.lnum
Substitution2: "Single Substitution lookup 42 subtable" nine.ordn
Substitution2: "Single Substitution lookup 41 subtable" nine.subs
Substitution2: "sups subtable" nine.sups
Substitution2: "sinf subtable" nine.sinf
Substitution2: "ordn subtable" nine.ordn
Substitution2: "subs subtable" nine.subs
EndChar

StartChar: colon
Encoding: 58 58 70
Width: 258
VWidth: 0
Flags: HW
HStem: -14 115<46.8503 123.15> 268 115<127.85 204.15>
VStem: 30 110<3.02179 83.9782> 111 110<285.022 365.978>
LayerCount: 2
Fore
SplineSet
176 383 m 16xd0
 202 383 221 359 221 333 c 8
 221 297 192 268 156 268 c 8
 130 268 111 292 111 318 c 8
 111 354 140 383 176 383 c 16xd0
95 101 m 16
 121 101 140 77 140 51 c 8
 140 15 111 -14 75 -14 c 8
 49 -14 30 10 30 36 c 8xe0
 30 72 59 101 95 101 c 16
EndSplineSet
Substitution2: "sups subtable" colon.sups
Substitution2: "sinf subtable" colon.sinf
Substitution2: "ordn subtable" colon.ordn
Substitution2: "subs subtable" colon.subs
EndChar

StartChar: equal
Encoding: 61 61 99
Width: 590
Flags: HW
HStem: 143 50<53.1042 534.648> 314 50<53.1042 534.648>
LayerCount: 2
Fore
SplineSet
74 193 m 2
 527 193 l 2
 534 193 543 186 540 179 c 0
 534 162 528 143 509 143 c 2
 64 143 l 2
 57 143 50 149 50 155 c 0
 50 164 56 193 74 193 c 2
74 364 m 2
 527 364 l 2
 534 364 543 357 540 350 c 0
 534 333 528 314 509 314 c 2
 64 314 l 2
 57 314 50 320 50 326 c 0
 50 335 56 364 74 364 c 2
EndSplineSet
Substitution2: "sups subtable" equal.sups
Substitution2: "sinf subtable" equal.sinf
Substitution2: "ordn subtable" equal.ordn
Substitution2: "subs subtable" equal.subs
EndChar

StartChar: question
Encoding: 63 63 86
Width: 290
VWidth: 0
Flags: W
HStem: -14 111<60.2941 130.706> 591 70<168.756 280.284>
VStem: 44 103<2.17511 81.2768> 84 39<199.417 283.938> 307 35<461.254 560.461>
LayerCount: 2
Fore
SplineSet
107 97 m 16xe8
 131 97 147 75 147 51 c 16xe8
 147 16 119 -14 84 -14 c 8xd8
 60 -14 44 9 44 33 c 16
 44 68 72 97 107 97 c 16xe8
215 661 m 0
 295 661 342 588 342 496 c 0
 342 424 311 382 263 357 c 2
 175 312 l 1
 143 294 123 262 123 236 c 0
 123 218 143 202 143 192 c 0
 143 184 132 178 128 178 c 0
 118 178 84 213 84 255 c 0xd8
 84 327 128 364 214 404 c 0
 263 427 307 460 307 512 c 0
 307 551 274 591 228 591 c 0
 190 591 188 577 173 577 c 0
 158 577 149 592 149 610 c 0
 149 640 192 661 215 661 c 0
EndSplineSet
Substitution2: "sups subtable" question.sups
Substitution2: "sinf subtable" question.sinf
Substitution2: "ordn subtable" question.ordn
Substitution2: "subs subtable" question.subs
EndChar

StartChar: at
Encoding: 64 64 1018
Width: 880
VWidth: 0
Flags: HW
HStem: -163 46<267.674 517.41> 25 53<300.095 383.186> 28 43<513.5 650.276> 304 47<452.402 542.713> 468 42<415.826 633.272>
VStem: 79 65<-1.36803 208.457> 247 71<50.5 152.955> 492 64<61 149.22> 601 57<332.246 369.721> 762 48<171.101 342.284>
LayerCount: 2
Fore
SplineSet
515 304 m 0xdfc0
 450 304 318 235 318 110 c 0
 318 88 332 78 350 78 c 0
 422 78 544 230 544 270 c 0
 544 288 539 304 515 304 c 0xdfc0
587 71 m 0xbfc0
 672 71 762 148.755 762 245 c 16
 762 371 671 468 536 468 c 8
 328.432 468 144 315.568 144 108 c 16
 144 -76 277 -117 387 -117 c 0
 507 -117 639 -65 700 0 c 0
 706.456 6.87891 713 9 718 9 c 0
 725 9 731.937 -11.9482 727 -18 c 0
 665 -94 514 -163 372 -163 c 8
 220.001 -163 79 -105 79 94 c 0
 79 322 307.043 510 553 510 c 16
 705 510 810 400.558 810 261 c 16
 810 138 703 28 523 28 c 0xbfc0
 504 28 492 50 492 72 c 0
 492 108 499 127 530 178 c 0
 535.788 187.521 531.847 195.155 525.5 185 c 0
 476.5 115 397 25 306 25 c 0xdfc0
 281 25 247 33 247 68 c 0
 247 206 432 351 534 351 c 0
 549 351 573 338 586 327 c 0
 595 319 599 327 601 333 c 0
 611 359 618 371 628 371 c 0
 645 371 658 361 658 351 c 0
 658 346 656 337 651 326 c 2
 559 115 l 2
 557 109 556 104 556 99 c 0
 556 82 571 71 587 71 c 0xbfc0
EndSplineSet
Substitution2: "sups subtable" at.sups
Substitution2: "sinf subtable" at.sinf
Substitution2: "ordn subtable" at.ordn
Substitution2: "subs subtable" at.subs
Substitution2: "at_alternates subtable" at.01
EndChar

StartChar: A
Encoding: 65 65 31
Width: 772
VWidth: 0
Flags: W
HStem: -5 36<17.8519 96.2793 218.75 264.899 429.027 521.115 647.592 701.899>
AnchorPoint: "cedilla" 145 8 basechar 0
AnchorPoint: "ogonek" 598 18 basechar 0
AnchorPoint: "below_accent" 334 -100 basechar 0
AnchorPoint: "top_accent" 792 710 basechar 0
LayerCount: 2
Back
Fore
SplineSet
672 -5 m 0
 646 -5 586 1 544 1 c 0
 508 1 474 0 452 0 c 0
 436 0 426 3 428 11 c 0
 431 20 447 27 465 31 c 0
 533 45 540 56 559 112 c 2
 600 235 l 2
 604 246 591 253 572 253 c 2
 391 244 l 2
 386 244 367 238 356 226 c 2
 240 102 l 2
 195 54 228 32 241 30 c 0
 262 27 268 19 265 10 c 0
 263 2 251 -1 235 -1 c 0
 218 -1 185 1 151 1 c 0
 110 1 69 -5 38 -5 c 0
 22 -5 13 0 15 8 c 0
 18 17 29 24 52 31 c 0
 87 41 136 65 180 108 c 2
 652 564 l 2
 681 592 698 622 706 622 c 0
 719 622 730 626 752 636 c 0
 769 644 796 676 801 676 c 0
 806 676 808 662 803 644 c 2
 648 128 l 2
 630 67 643 35 678 28 c 0
 698 24 705 14 702 5 c 0
 700 -3 688 -5 672 -5 c 0
640 506 m 2
 442 310 l 2
 430 298 422 285 458 288 c 2
 592 296 l 2
 606 297 615 303 622 324 c 2
 680 494 l 2
 689 521 690 539 684 539 c 0
 679 539 665 531 640 506 c 2
EndSplineSet
Substitution2: "Swash subtable" A.sw
Substitution2: "c2sc subtable" A.sc
Substitution2: "sups subtable" A.sups
Substitution2: "sinf subtable" A.sinf
Substitution2: "ordn subtable" A.ordn
Substitution2: "subs subtable" A.subs
EndChar

StartChar: B
Encoding: 66 66 30
Width: 592
VWidth: 0
Flags: W
HStem: -4 29<21.1484 103.953 245.969 355.254> 343 28<316.1 400.267> 621 29<222.195 284.947> 625 26<381.576 486.165>
VStem: 474 87<119.333 282.403> 536 81<450.137 588.429>
AnchorPoint: "below_accent" 282 -100 basechar 0
AnchorPoint: "top_accent" 267 700 basechar 0
LayerCount: 2
Fore
SplineSet
345 371 m 0xd4
 435 371 536 422.477 536 516 c 20
 536 578 505 625 426 625 c 4
 393 625 379 617 372 594 c 2
 372 594 322 418 319 408 c 0
 309 374 322 371 345 371 c 0xd4
253 -4 m 0
 236 -4 203 0 166 0 c 0
 118 0 98 -5 44 -5 c 0
 28 -5 20 -3 20 6 c 0
 20 16 33 20 56 24 c 0
 105 33 137 51 152 99 c 2
 289 549 l 2
 304 597 293 612 249 621 c 0
 229 625 222 628 222 638 c 0
 222 647 239 650 255 650 c 0xe8
 288 650 301 651 329 651 c 0
 359 651 409 656.867 430 657 c 4
 577.997 657.937 617 579.01 617 517 c 4xd4
 617 430 524 382 456 369 c 4
 445 367 448 361 453 359 c 4
 478 350 561 318 561 193 c 0xd8
 561 73 414 -4 253 -4 c 0
336 343 m 0
 312 343 297.271 335.532 288 307 c 0
 268.646 247.435 243 161 229 108 c 0
 224 90 222 68 229 56 c 0
 236 45 261 25 284 25 c 8
 384.215 25 474 99.3799 474 198 c 8
 474 281.062 427 343 336 343 c 0
EndSplineSet
Validated: 33
Substitution2: "Swash subtable" B.sw
Substitution2: "c2sc subtable" B.sc
Substitution2: "sups subtable" B.sups
Substitution2: "sinf subtable" B.sinf
Substitution2: "ordn subtable" B.ordn
Substitution2: "subs subtable" B.subs
EndChar

StartChar: C
Encoding: 67 67 32
Width: 622
VWidth: 0
Flags: HW
HStem: -14 37<315.982 450.038> 628 35<422.993 591.501>
VStem: 96 84<142.219 360.884> 622 33<467.178 536.318>
AnchorPoint: "cedilla" 442 8 basechar 0
AnchorPoint: "below_accent" 420 -100 basechar 0
AnchorPoint: "top_accent" 551 700 basechar 0
LayerCount: 2
Fore
SplineSet
384 -14 m 12
 234 -14 96 90 96 240 c 20
 96 494 293 663 529 663 c 20
 610 663 662 629 672 629 c 4
 684 629 700 645 715 645 c 4
 727 645 726 634 722 629 c 4
 700 599 664 532 655 487 c 4
 653 477 644 467 637 467 c 12
 625 467 620 481 622 493 c 4
 628 523 634 565 613 593 c 4
 596 616 558 628 519 628 c 4
 326 628 180 432 180 228 c 12
 180 110 294 23 402 23 c 4
 465 23 513 76 552 139 c 4
 558 149 564 157 569 157 c 4
 575 157 576 149 576 138 c 4
 576 115 523 -7 512 -9 c 4
 502 -11 492 11 472 11 c 4
 452 11 435 -14 384 -14 c 12
EndSplineSet
Substitution2: "Swash subtable" C.sw
Substitution2: "c2sc subtable" C.sc
Substitution2: "sups subtable" C.sups
Substitution2: "sinf subtable" C.sinf
Substitution2: "ordn subtable" C.ordn
Substitution2: "subs subtable" C.subs
EndChar

StartChar: D
Encoding: 68 68 43
Width: 773
VWidth: 0
Flags: W
HStem: -7 35<192.833 439.529> -5 29<20.7629 111.218> 618 33<187.538 282.055 395.293 554.01>
VStem: 697 86<273.574 501.999>
AnchorPoint: "cedilla" 409 8 basechar 0
AnchorPoint: "below_accent" 367 -100 basechar 0
AnchorPoint: "top_accent" 502 700 basechar 0
LayerCount: 2
Back
Fore
SplineSet
335 -7 m 0xb0
 316 -7 221 0 148 0 c 0
 111 0 93 -5 44 -5 c 0
 28 -5 20 -2 20 6 c 0
 20 15 33 23 56 24 c 0x70
 119 26 131 51 147 99 c 2
 297 560 l 2
 312 608 254 613 210 622 c 0
 190 626 186 633 186 642 c 0
 186 650 200 653 216 653 c 0
 269 653 311 651 353 651 c 0
 393 651 391 656 449 656 c 0
 628 656 783 578 783 406 c 0
 783 149 588 -7 335 -7 c 0xb0
697 395 m 0
 697 548 602 618 445 618 c 0
 425 618 385 611 371 567 c 2
 229 121 l 2
 202 36 241 28 343 28 c 8xb0
 542 28 697 207 697 395 c 0
EndSplineSet
Substitution2: "Swash subtable" D.sw
Substitution2: "c2sc subtable" D.sc
Substitution2: "sups subtable" D.sups
Substitution2: "sinf subtable" D.sinf
Substitution2: "ordn subtable" D.ordn
Substitution2: "subs subtable" D.subs
EndChar

StartChar: E
Encoding: 69 69 35
Width: 621
VWidth: 0
Flags: W
HStem: -5 35<8.01822 107.75 228.884 496.445> 322 27<307.177 478.603> 388 20G<556.5 561.5> 618 32<218.007 283.946 384.656 609.242>
VStem: 492 28<252.052 308.246> 618 55<568.25 613.321>
AnchorPoint: "cedilla" 322 8 basechar 0
AnchorPoint: "ogonek" 450 18 basechar 0
AnchorPoint: "below_accent" 280 -100 basechar 0
AnchorPoint: "top_accent" 496 701 basechar 0
LayerCount: 2
Back
Fore
SplineSet
247 653 m 0
 262 653 314 650 356 650 c 2
 611 650 l 2
 636 650 660 654 665 654 c 0
 672 654 673 651 673 644 c 0
 673 632 654 593 646 540 c 0
 645 534 635 523 629 523 c 0
 622 523 618 539 618 546 c 0
 618 583 621 618 570 618 c 2
 426 618 l 2
 399 618 383.454488974 607.983482481 377 588 c 6
 308 374 l 2
 304.619077204 363.532461557 306 349 315 349 c 2
 460 352 l 2
 487 353 512 368 531 389 c 0
 540 399 554 408 559 408 c 0
 564 408 571 401 566 392 c 0
 540 342 533 320 520 269 c 0
 517 260 514 252 507 252 c 8
 496 252 492 268 492 275 c 0
 492 306 469 319 455 320 c 0
 432 322 348 322 330 322 c 0
 307 322 290 320 282 291 c 2
 231 113 l 2
 216 62 223 30 265 30 c 2
 430 30 l 2
 502 30 535 77 565 116 c 0
 571 124 573 126 581 126 c 0
 587 126 589 122 589 114 c 0
 589 96 565 39 547 11 c 0
 542 3 533 -5 524 -5 c 8
 380 -5 247 1 154 1 c 8
 105 1 79 -5 29 -5 c 0
 13 -5 5 -2 5 6 c 0
 5 15 18 20 41 24 c 0
 90 33 134 51 149 99 c 2
 286 549 l 2
 300.53510968 596.840679203 285 613 241 622 c 0
 221 626 216 632.51 216 642 c 0
 216 650.25 231 653 247 653 c 0
EndSplineSet
Substitution2: "Swash subtable" E.sw
Substitution2: "c2sc subtable" E.sc
Substitution2: "sups subtable" E.sups
Substitution2: "sinf subtable" E.sinf
Substitution2: "ordn subtable" E.ordn
Substitution2: "subs subtable" E.subs
EndChar

StartChar: G
Encoding: 71 71 40
Width: 687
VWidth: 0
Flags: W
HStem: -14 37<332.283 472.585> 256 34<456.065 535.558 631.69 695.418> 628 35<415.017 585.501>
VStem: 98 84<152.169 376.763> 616 33<467.178 536.318>
AnchorPoint: "below_accent" 363 -100 basechar 0
AnchorPoint: "top_accent" 536 710 basechar 0
LayerCount: 2
Back
Fore
SplineSet
716 629 m 0
 694 599 658 532 649 487 c 0
 647 477 638 467 631 467 c 8
 619 467 614 481 616 493 c 0
 622 523 628 565 607 593 c 0
 590 616 552 628 513 628 c 8
 315 628 182 436 182 242 c 0
 182 110 311 23 418 23 c 0
 478 23 507 73 514 100 c 2
 542 208 l 2
 554 252 498 256 479 256 c 0
 465 256 456 265 456 274 c 0
 456 283 466 290 480 290 c 8
 526 290 552 287 598 287 c 24
 631 287 649 290 682 290 c 16
 687 290 696 285 696 276 c 0
 696 267 683 258 671 256 c 0
 641 251 626 240 614 213 c 0
 596 174 578 103 578 88 c 0
 578 76 594 64 592 60 c 0
 590 55 582 48 574 42 c 0
 555 26 477 -14 405 -14 c 0
 229 -14 98 82 98 254 c 0
 98 486 277 663 523 663 c 0
 604 663 656 629 666 629 c 0
 678 629 694 645 709 645 c 0
 721 645 720 634 716 629 c 0
EndSplineSet
Substitution2: "Swash subtable" G.sw
Substitution2: "c2sc subtable" G.sc
Substitution2: "sups subtable" G.sups
Substitution2: "sinf subtable" G.sinf
Substitution2: "ordn subtable" G.ordn
Substitution2: "subs subtable" G.subs
EndChar

StartChar: H
Encoding: 72 72 47
Width: 788
VWidth: 0
Flags: HW
HStem: -5 29<20.7629 97.2328 228.292 284.641 451.763 527.694 644.559 700.641> 302 48<288.912 631> 622 31<221.487 277.532 388.255 467.785 648.487 705.031 817.674 892.785>
AnchorPoint: "below_accent" 400 -100 basechar 0
AnchorPoint: "top_accent" 578 700 basechar 0
LayerCount: 2
Fore
SplineSet
648 100 m 2
 633 51 632 33 676 24 c 0
 696 20 701 15.4902 701 6 c 0
 701 -2.25 687 -5 671 -5 c 0
 621 -5 614 0 576 0 c 24
 537 0 525 -5 475 -5 c 0
 459 -5 451 -2.25 451 6 c 0
 451 15.4902 464 20 487 24 c 0
 529 32 560 54 573 97 c 2
 631 287 l 2
 633 294 637 302 631 302 c 2
 276 302 l 2
 272 302 270 299 268 291 c 2
 211 106 l 2
 198 64 220 32 260 24 c 0
 280 20 285 15.4902 285 6 c 0
 285 -2.25 271 -5 255 -5 c 0
 205 -5 189 0 147 0 c 24
 107 0 93 -5 43 -5 c 0
 27 -5 20 -2.25 20 6 c 0
 20 15.4902 33 20 56 24 c 0
 105 33 120 51 135 99 c 2
 273 551 l 2
 287 597 289 613 245 622 c 0
 225 626 221 632.51 221 642 c 0
 221 650.25 235 653 251 653 c 0
 301 653 309 650 346 650 c 24
 384 650 395 653 445 653 c 0
 461 653 469 650.25 469 642 c 0
 469 632.51 455 626 432 622 c 0
 383 613 359 590 347 551 c 2
 289 359 l 2
 287 351 293 350 299 350 c 2
 644 350 l 2
 649 350 651 353 654 362 c 2
 712 552 l 2
 723 588 716 613 672 622 c 0
 652 626 648 632.51 648 642 c 0
 648 650.25 662 653 678 653 c 0
 728 653 743 650 785 650 c 24
 818 650 820 653 870 653 c 0
 886 653 894 650.25 894 642 c 0
 894 632.51 880 626 857 622 c 0
 808 613 799 590 787 552 c 2
 648 100 l 2
EndSplineSet
Substitution2: "Swash subtable" H.sw
Substitution2: "c2sc subtable" H.sc
Substitution2: "sups subtable" H.sups
Substitution2: "sinf subtable" H.sinf
Substitution2: "ordn subtable" H.ordn
Substitution2: "subs subtable" H.subs
EndChar

StartChar: J
Encoding: 74 74 42
Width: 335
VWidth: 0
Flags: W
HStem: -200 42<-80 27.4867> 622 31<204.593 265.535 375.47 452.649>
AnchorPoint: "top_accent" 351 710 basechar 0
LayerCount: 2
Fore
SplineSet
-10 -158 m 0
 34 -158 70 -97 100 0 c 2
 268 551 l 1
 283 597 273 613 229 622 c 0
 209 626 204 633 204 642 c 0
 204 650 219 653 235 653 c 0
 285 653 299 650 342 650 c 24
 376 650 381 653 431 653 c 0
 447 653 454 650 454 642 c 0
 454 633 441 626 418 622 c 0
 369 613 358 597 343 551 c 1
 218 142 l 2
 154 -68 122 -94 84 -134 c 0
 47 -173 5 -200 -50 -200 c 0
 -110 -200 -133 -180 -133 -158 c 0
 -133 -130 -100 -103 -83 -103 c 0
 -59 -103 -51 -111 -45 -129 c 0
 -38 -152 -26 -158 -10 -158 c 0
EndSplineSet
Validated: 33
Substitution2: "Swash subtable" J.sw
Substitution2: "c2sc subtable" J.sc
Substitution2: "sups subtable" J.sups
Substitution2: "sinf subtable" J.sinf
Substitution2: "ordn subtable" J.ordn
Substitution2: "subs subtable" J.subs
Substitution2: "historic_j subtable" J.hist
EndChar

StartChar: K
Encoding: 75 75 61
Width: 685
VWidth: 0
Flags: W
HStem: -5 29<16.8438 95.2952 226.541 285.641 406.032 466.279 606.352 678.641> 323 22<293.891 311.574> 622 31<210.593 271.933 378.594 457.556 576.097 620.534 723.464 823.13>
AnchorPoint: "below_accent" 341 -100 basechar 0
AnchorPoint: "top_accent" 545 700 basechar 0
LayerCount: 2
Fore
SplineSet
649 -5 m 0
 594 -5 547 0 496 0 c 0
 473 0 471 -1 429 -1 c 0
 413 -1 406 2 406 10 c 0
 406 19 417 23 436 27 c 0
 475 36 475.538 40.1035 457 72 c 2
 317 306 l 26
 309.567 318.424 289 323 284 323 c 0
 279 323 276.165 309.702 274 302 c 2
 220 110 l 2
 204.035 53.2012 217 33 261 24 c 0
 281 20 286 15 286 6 c 0
 286 -2 272 -5 256 -5 c 0
 206 -5 196.929 2 159 2 c 24
 112.51 2 90 -5 40 -5 c 0
 24 -5 16 -2 16 6 c 0
 16 15 29 20 52 24 c 0
 101 33 123 51 138 101 c 2
 276 551 l 2
 290 597 279 613 235 622 c 0
 215 626 210 633 210 642 c 0
 210 650 225 653 241 653 c 0
 291 653 303.822 651 344 651 c 24
 379.499 651 385 653 435 653 c 0
 451 653 459 650 459 642 c 0
 459 633 445 626 422 622 c 0
 373 613 366.044 603.635 350 551 c 2
 293 364 l 2
 291 359 287 345 292 345 c 0
 331.566 345 362.566 377 371.566 385 c 2
 587 567 l 2
 613.604 589.476 645.821 615.904 599 620 c 0
 578.199 621.82 576 631 576 640 c 0
 576 648 591 651 607 651 c 0
 640 651 648 651 657 651 c 0
 710 651 773 655 809 655 c 0
 821 655 826 651 826 644 c 0
 826 635 812 628 789 624 c 0
 740 615 683 597 628 558 c 0
 542 497 480.791 437.797 392 355 c 24
 386.857 350.205 387 344 391 337 c 2
 548 95 l 2
 567.789 64.498 601.566 27 654 24 c 0
 674.582 22.8223 679 15 679 6 c 0
 679 -2 665 -5 649 -5 c 0
EndSplineSet
Validated: 33
Substitution2: "Swash subtable" K.sw
Substitution2: "c2sc subtable" K.sc
Substitution2: "sups subtable" K.sups
Substitution2: "sinf subtable" K.sinf
Substitution2: "ordn subtable" K.ordn
Substitution2: "subs subtable" K.subs
EndChar

StartChar: L
Encoding: 76 76 36
Width: 619
VWidth: 0
Flags: HW
HStem: -5 35<12.0182 111.625 232.884 516.445> 622 31<231.494 295.483 409.436 504.821>
AnchorPoint: "top_right" 650 605 basechar 0
AnchorPoint: "cedilla" 183 8 basechar 0
AnchorPoint: "below_accent" 314 -100 basechar 0
AnchorPoint: "top_accent" 374 700 basechar 0
LayerCount: 2
Fore
SplineSet
152 99 m 2
 293 560 l 2
 308 608 300 613 256 622 c 0
 236 626 231 632.51 231 642 c 0
 231 650.25 245 653 261 653 c 0
 311 653 324 650 365 650 c 24
 411 650 433 653 483 653 c 0
 499 653 506 650.25 506 642 c 0
 506 632.51 493 626 470 622 c 0
 421 613 382 606 370 567 c 2
 235 113 l 2
 220 62 227 30 269 30 c 2
 450 30 l 2
 522 30 555 77 585 116 c 0
 591 124 593 126 601 126 c 0
 607 126 609 122 609 114 c 0
 609 96 585 39 567 11 c 0
 562 3 553 -5 544 -5 c 8
 393 -5 251 1 158 1 c 8
 109 1 83 -5 33 -5 c 0
 17 -5 9 -2 9 6 c 0
 9 15 22 20 45 24 c 0
 94 33 138 52 152 99 c 2
EndSplineSet
Substitution2: "Swash subtable" L.sw
Substitution2: "c2sc subtable" L.sc
Substitution2: "sups subtable" L.sups
Substitution2: "sinf subtable" L.sinf
Substitution2: "ordn subtable" L.ordn
Substitution2: "subs subtable" L.subs
Substitution2: "cool subtable" c
Substitution2: "loclCAT subtable" L.CAT
EndChar

StartChar: M
Encoding: 77 77 27
Width: 1004
VWidth: 0
Flags: HW
HStem: -14 21G<402.5 407> -3 29<-27.3379 57.0534 162.354 215.807 637.461 721.206 885.948 946.749> 622 36<288.205 395.855 1032.98 1136.79>
AnchorPoint: "below_accent" 403 -100 basechar 0
AnchorPoint: "top_accent" 446 700 basechar 0
LayerCount: 2
Back
Fore
SplineSet
1017 583 m 2x60
 869 106 l 2
 856 65 877 33 921 26 c 0
 941 23 947 18 947 9 c 0
 947 3 933 -3 917 -3 c 0
 867 -3 831.769 8 777 8 c 24
 731.169 8 710 -3 660 -3 c 0x60
 644 -3 637 1 637 9 c 0
 637 17 650 25 672 28 c 0
 731 35 761 57 776 104 c 2
 905 471 l 2
 909 482 916 506 913 506 c 0
 911 506 883 479 875 469 c 2
 430 10 l 1
 418 -7 409 -14 405 -14 c 0xa0
 400 -14 400 -4 401 11 c 2
 441 486 l 2
 442 500 444 537 435 537 c 0
 429 537 418 519 401 490 c 2
 167 90 l 2
 153 66 147 33 191 26 c 0
 211 23 216 18 216 9 c 0
 216 1 203 -3 187 -3 c 0
 137 -3 125 0 79 0 c 8
 45.3789 0 43 -6 -7 -6 c 0
 -23 -6 -31 -4 -31 4 c 0
 -31 13 -19 19 4 23 c 0
 67 34 83 52 124 119 c 2
 378 532 l 2
 411 586 427.19 622 310 622 c 0
 298 622 288 632 288 642 c 0
 288 653 320 658 326 658 c 0
 360 658 500 653 524 653 c 0
 541 653 522 599 519 553 c 2
 496 172 l 2
 495 162 499 157 503 157 c 0
 506 157 521 163 528 170 c 2
 913 573 l 2
 953 615 968 650 982 650 c 0
 1054 650 1091 658 1119 658 c 0
 1125 658 1138 654 1138 645 c 0
 1138 634 1124 625 1103 623 c 0
 1045 617 1024 605 1017 583 c 2x60
EndSplineSet
Substitution2: "Swash subtable" M.sw
Substitution2: "c2sc subtable" M.sc
Substitution2: "sups subtable" M.sups
Substitution2: "sinf subtable" M.sinf
Substitution2: "ordn subtable" M.ordn
Substitution2: "subs subtable" M.subs
EndChar

StartChar: N
Encoding: 78 78 28
Width: 819
VWidth: 0
Flags: HW
HStem: -5 35<18.709 105.045 194.863 280.591> 620 38<148.181 250.623 687 693 855.214 950.99>
AnchorPoint: "below_accent" 374 -100 basechar 0
AnchorPoint: "top_accent" 569 700 basechar 0
LayerCount: 2
Back
Fore
SplineSet
800 650 m 0
 845 650 871 653 928 653 c 0
 944 653 951 650 951 642 c 0
 951 633 937 624 914 622 c 0
 856 616 836 588 818 555 c 0
 806 533 694 168 682 112 c 0
 681 109 681 94 686 82 c 0
 697 57 724 16 724 6 c 0
 724 0 720 0 716 0 c 0
 695 0 648 0 643 0 c 0
 632 0 623 5 601 43 c 2
 357 456 l 2
 351 467 338 485 333 485 c 0
 326 485 316 463 313 455 c 2
 197 117 l 2
 171 40 200 34 257 24 c 0
 277 20 282 15 282 6 c 0
 282 -2 268 -5 252 -5 c 0
 202 -5 187 0 146 0 c 24
 105 0 92 -5 42 -5 c 0
 26 -5 18 -2 18 6 c 0
 18 15 20 25 43 30 c 0
 106 44 106 29 136 108 c 2
 285 500 l 2
 292 518 297 549 291 557 c 2
 258 596 l 2
 250 606 208 615 169 620 c 0
 164 621 148 631 148 644 c 0
 148 657 166 658 173 658 c 0
 245 656 266 653 333 653 c 0
 344 653 345 645 350 636 c 2
 628 188 l 2
 632 182 641 169 648 169 c 0
 653 169 655 174 661 189 c 0
 676 233 759 513 769 564 c 0
 776 599 706 615 687 619 c 0
 667 623 662 630 662 639 c 0
 662 647 677 650 693 650 c 0
 726 650 790 650 800 650 c 0
EndSplineSet
Substitution2: "Swash subtable" N.sw
Substitution2: "c2sc subtable" N.sc
Substitution2: "sups subtable" N.sups
Substitution2: "sinf subtable" N.sinf
Substitution2: "ordn subtable" N.ordn
Substitution2: "subs subtable" N.subs
EndChar

StartChar: O
Encoding: 79 79 46
Width: 712
VWidth: 0
Flags: W
HStem: -14 35<264.006 414.248> 628 36<391.576 555.605>
VStem: 89 82<128.393 340.569> 642 82<325.945 533.828>
AnchorPoint: "cedilla" 412 8 basechar 0
AnchorPoint: "ogonek" 520 18 basechar 0
AnchorPoint: "below_accent" 370 -100 basechar 0
AnchorPoint: "top_accent" 500 700 basechar 0
LayerCount: 2
Fore
SplineSet
479 628 m 0
 279 628 171 386 171 186 c 8
 171 95 245 21 336 21 c 16
 536 21 642 284 642 484 c 0
 642 569 564 628 479 628 c 0
484 664 m 16
 611 664 724 571 724 444 c 8
 724 208 565 -14 329 -14 c 8
 197 -14 89 94 89 226 c 16
 89 456 254 664 484 664 c 16
EndSplineSet
Validated: 1
Substitution2: "Swash subtable" O.sw
Substitution2: "c2sc subtable" O.sc
Substitution2: "sups subtable" O.sups
Substitution2: "sinf subtable" O.sinf
Substitution2: "ordn subtable" O.ordn
Substitution2: "subs subtable" O.subs
EndChar

StartChar: P
Encoding: 80 80 26
Width: 570
VWidth: 0
Flags: W
HStem: -5 29<10.8438 91.063 220.132 275.641> 254 26<308.021 388.879> 622 31<187.487 263.787> 630 22<374.65 456.83>
VStem: 546 83<394.468 555.574>
AnchorPoint: "below_accent" 170 -100 basechar 0
AnchorPoint: "top_accent" 445 710 basechar 0
LayerCount: 2
Fore
SplineSet
157 2 m 24xd8
 109 2 84 -5 34 -5 c 0
 18 -5 10 -2 10 6 c 0
 10 15 23 20 46 24 c 0
 95 33 123 51 138 100 c 2
 267 522 l 2
 290 596 277 616 211 622 c 0
 191 624 187 633 187 642 c 0
 187 650 201 653 217 653 c 0xe8
 227 653 296 652 306 652 c 0
 343 652 391 657 417 657 c 8
 524 657 629 595 629 484 c 8
 629 343 491 254 350 254 c 16
 337 254 308 256 308 267 c 0
 308 275 319 279 326 280 c 0
 455 294 546 357 546 471 c 8
 546 553 491 630 409 630 c 16
 374 630 370 618 361 588 c 2
 215 111 l 2
 200 63 207 33 251 24 c 0
 271 20 276 15 276 6 c 0
 276 -2 262 -5 246 -5 c 0
 196 -5 192 2 157 2 c 24xd8
EndSplineSet
Substitution2: "Swash subtable" P.sw
Substitution2: "c2sc subtable" P.sc
Substitution2: "sups subtable" P.sups
Substitution2: "sinf subtable" P.sinf
Substitution2: "ordn subtable" P.ordn
Substitution2: "subs subtable" P.subs
EndChar

StartChar: R
Encoding: 82 82 29
Width: 639
VWidth: 0
Flags: W
HStem: -5 29<15.8438 96.063 225.132 280.641 572.394 638.368> 290 28<305.605 355.461> 622 31<186.891 268.787> 630 27<379.162 468.964>
VStem: 536 83<429.363 575.846>
AnchorPoint: "below_accent" 312 -100 basechar 0
AnchorPoint: "top_accent" 436 700 basechar 0
LayerCount: 2
Fore
SplineSet
304 356 m 0xd8
 299 319 318 318 350 318 c 0
 406 318 536 360 536 500 c 0
 536 576 483.529 630 414 630 c 16
 386 630 374 618 366 588 c 2
 366 588 306 374 304 356 c 0xd8
220 111 m 2
 205 63 212 33 256 24 c 0
 276 20 281 15 281 6 c 0
 281 -2 267 -5 251 -5 c 0
 201 -5 196.817 2 162 2 c 24
 113.952 2 89 -5 39 -5 c 0
 23 -5 15 -2 15 6 c 0
 15 15 28 20 51 24 c 0
 100 33 128 51 143 100 c 2
 272 522 l 2
 295 596 282 616 216 622 c 0
 196 624 186 633 186 642 c 0
 186 650 206 653 222 653 c 0xe8
 232 653 301 652 311 652 c 0
 348 652 396 657 422 657 c 0
 524 657 619 618 619 524 c 0
 619 398 536.631 354.262 446 312 c 0
 436.937 307.773 433.254 304.272 437 295 c 0
 451.46 259.211 508.015 132.513 537 78 c 0
 555.69 42.8496 584 27 605 27 c 0
 622 27 639 22 639 13 c 0
 639 -2 614 -4 597 -4 c 0
 542 -4 495.12 0.615234 477 32 c 0
 444.12 88.9502 400.293 180.872 376 241 c 0
 357.277 287.341 350 290 300 290 c 0
 290 290 276 286 272 274 c 2
 220 111 l 2
EndSplineSet
Substitution2: "Swash subtable" R.sw
Substitution2: "c2sc subtable" R.sc
Substitution2: "sups subtable" R.sups
Substitution2: "sinf subtable" R.sinf
Substitution2: "ordn subtable" R.ordn
Substitution2: "subs subtable" R.subs
EndChar

StartChar: T
Encoding: 84 84 34
Width: 635
VWidth: 0
Flags: HW
HStem: -5 27<120.496 198.158 343.086 401.807> 607 35<196.229 388.493 469.995 669.037>
VStem: 681 25<497.112 565.837>
AnchorPoint: "cedilla" 352 18 basechar 0
AnchorPoint: "below_accent" 247 -100 basechar 0
AnchorPoint: "top_accent" 443 700 basechar 0
LayerCount: 2
Fore
SplineSet
327 102 m 2
 313 54 333 31 377 22 c 0
 397 18 402 15.4902 402 6 c 0
 402 -2.25 388 -5 372 -5 c 0
 322 -5 306.775 0 265 0 c 24
 217.77 0 194 -5 144 -5 c 0
 128 -5 120 -2.25 120 6 c 0
 120 15.4902 134 18 157 22 c 0
 206 31 239 54 253 102 c 2
 383 557 l 2
 389 575 393 607 379 607 c 0
 349 607 289 607 250 607 c 0
 194 607 161 560 142 524 c 0
 135 511 131 506 123 506 c 0
 115 506 115 506 115 517 c 0
 115 522 143 596 161 646 c 0
 164 655 169 666 174 666 c 0
 184 666 184 642 223 642 c 2
 691 642 l 2
 720 642 733 666 743 666 c 0
 746 666 749 658 749 650 c 0
 749 643 745 634 741 627 c 0
 733.558 613.977 714 565 706 511 c 0
 704.361 499.94 700 497 695 497 c 0
 686 497 681 506 681 520 c 0
 681 525 697 607 630 607 c 0
 582 607 507 607 488 607 c 0
 474 607 463 575 457 557 c 2
 327 102 l 2
EndSplineSet
Substitution2: "Swash subtable" T.sw
Substitution2: "c2sc subtable" T.sc
Substitution2: "sups subtable" T.sups
Substitution2: "sinf subtable" T.sinf
Substitution2: "ordn subtable" T.ordn
Substitution2: "subs subtable" T.subs
EndChar

StartChar: U
Encoding: 85 85 48
Width: 737
VWidth: 0
Flags: HW
HStem: -14 40<287.692 457.017> 620 33<194.681 245.501 355.376 416.649 658.732 696.984 785.167 856.043>
AnchorPoint: "cedilla" 397 8 basechar 0
AnchorPoint: "ogonek" 475 18 basechar 0
AnchorPoint: "below_accent" 355 -100 basechar 0
AnchorPoint: "top_accent" 543 700 basechar 0
LayerCount: 2
Fore
SplineSet
752 547 m 0
 710 432 684 346 653 254 c 0
 601 99 523 -14 344 -14 c 8
 225.419 -14 103.35 54.7373 151.675 221.5 c 2
 246 547 l 2
 260.27 595.221 244 614 225 620 c 0
 205 626 193 632.51 193 642 c 0
 193 650.25 215 653 231 653 c 0
 259 653 285.271 650.212 320 650 c 24
 349.26 649.821 375 652 395 652 c 0
 411 652 418 649.25 418 641 c 0
 418 631.51 405 628 382 621 c 0
 366 616 332.512 589.145 321 549 c 2
 233.675 237.5 l 2
 192.295 89.8936 271.865 26 370 26 c 16
 516 26 579 144 627 300 c 0
 640 344 666 434 688 511 c 0
 703 562 707 612 683 620 c 0
 671 624 658 630.51 658 640 c 0
 658 648.25 673 651 689 651 c 0
 717 651 731.09 649.629 758 650 c 24
 787.66 650.409 813 653 834 653 c 0
 850 653 858 650.25 858 642 c 0
 858 632.51 844 627 821 622 c 0
 786 615 766 587 752 547 c 0
EndSplineSet
Substitution2: "Swash subtable" U.sw
Substitution2: "c2sc subtable" U.sc
Substitution2: "sups subtable" U.sups
Substitution2: "sinf subtable" U.sinf
Substitution2: "ordn subtable" U.ordn
Substitution2: "subs subtable" U.subs
Substitution2: "Single Substitution lookup 26 subtable" U.LAT
Substitution2: "loclLAT subtable" U.LAT
EndChar

StartChar: V
Encoding: 86 86 37
Width: 644
VWidth: 0
Flags: W
HStem: 620 31<117.546 187.476 304.406 374.128 522.633 572.665 686.723 760.4>
AnchorPoint: "below_accent" 329 -100 basechar 0
AnchorPoint: "top_accent" 355 700 basechar 0
LayerCount: 2
Back
SplineSet
529 549 m 2
 571 600 527 619 514 621 c 0
 493 624 490 632 490 641 c 0
 490 649 504 652 520 652 c 0
 537 652 584 650 618 650 c 0
 659 650 678 656 709 656 c 0
 725 656 732 651 732 643 c 0
 732 634 718 627 695 620 c 0
 660 610 617 591 578 543 c 2
 208 94 l 2
 195 78 177 46 167 26 c 0
 165 22 101 -25 85 -25 c 0
 80 -25 80 -13 80 5 c 0
 80 10 93 60 101 106 c 2
 170 523 l 2
 180 586 169 613 107 623 c 0
 87 626 83 637 83 646 c 0
 83 654 97 656 113 656 c 0
 139 656 184 650 226 650 c 0
 262 650 298 651 320 651 c 0
 336 651 344 648 344 640 c 0
 344 631 325 624 307 620 c 0
 271 613 249 591 241 539 c 2
 187 168 l 2
 181 140 182 134 188 134 c 0
 193 134 202 138 224 166 c 2
 529 549 l 2
EndSplineSet
Fore
SplineSet
561 549 m 2
 603 600 559 619 546 621 c 0
 525 624 522 632 522 641 c 0
 522 649 536 652 552 652 c 0
 569 652 616 650 650 650 c 0
 691 650 710 656 741 656 c 0
 757 656 764 651 764 643 c 0
 764 634 750 627 727 620 c 0
 692 610 649 591 610 543 c 2
 240 94 l 2
 227 78 209 46 199 26 c 0
 197 22 133 -25 117 -25 c 0
 112 -25 112 -13 112 5 c 0
 112 10 125 60 133 106 c 2
 202 523 l 2
 212 586 201 613 139 623 c 0
 119 626 115 637 115 646 c 0
 115 654 129 656 145 656 c 0
 171 656 216 650 258 650 c 0
 294 650 330 651 352 651 c 0
 368 651 376 648 376 640 c 0
 376 631 357 624 339 620 c 0
 303 613 281 591 273 539 c 2
 219 168 l 2
 213 140 214 134 220 134 c 0
 225 134 234 138 256 166 c 2
 561 549 l 2
EndSplineSet
Substitution2: "Swash subtable" V.sw
Substitution2: "c2sc subtable" V.sc
Substitution2: "sups subtable" V.sups
Substitution2: "sinf subtable" V.sinf
Substitution2: "ordn subtable" V.ordn
Substitution2: "subs subtable" V.subs
EndChar

StartChar: W
Encoding: 87 87 38
Width: 976
VWidth: 0
Flags: W
HStem: 620 36<84.3975 158.098 268.913 343.625 454.397 527.823 649.703 730.294 860.17 912.796 1019.19 1100.29>
AnchorPoint: "below_accent" 263 -100 basechar 0
AnchorPoint: "top_accent" 623 710 basechar 0
LayerCount: 2
Back
SplineSet
941 549 m 2
 987.292 595.755 939 619 926 621 c 0
 905 624 899 632 902 641 c 0
 904 649 916 652 932 652 c 0
 949 652 996 650 1030 650 c 0
 1071 650 1127 656 1158 656 c 0
 1174 656 1183 651 1181 643 c 0
 1178 634 1167 627 1144 620 c 0
 1109 610 1045 586 1001 543 c 2
 545 87 l 2
 516.495 58.4951 500.295 44.2686 494.274 39 c 0
 462.274 11 406.854 -25 396 -25 c 0
 391 -25 388.363 -10.8145 394 7 c 2
 536.612 457.761 l 1
 161 87 l 2
 132.31 58.6807 116.295 44.2686 110.274 39 c 0
 78.2744 11 22.8545 -25 12 -25 c 0
 7 -25 5 -11 10 7 c 2
 165 523 l 2
 183 584 170 616 135 623 c 0
 115 627 108 637 111 646 c 0
 113 654 125 656 141 656 c 0
 167 656 227 650 269 650 c 0
 305 650 353 651 375 651 c 0
 391 651 401 648 399 640 c 0
 396 631 380 624 362 620 c 0
 294 606 271.857 595.375 254 539 c 2
 133 157 l 2
 124.406 129.868 123 112 129 112 c 0
 134 112 148.274 119.73 173 145 c 2
 537 517 l 2
 560.47 539.976 564 566 564 574 c 0
 564 596.46 545.664 617.821 525 621 c 0
 509.251 623.25 490.48 632.44 495 646 c 0
 497 654 509 656 525 656 c 0
 548.576 656 600.108 651.066 640.826 650.146 c 1
 680.225 651.066 728.89 656 757 656 c 0
 769.824 656 779.922 655.394 779.922 647.394 c 0
 779.922 628.394 751.636 621.24 735.586 617.799 c 0
 688.264 607.652 653.917 589.248 638 539 c 2
 517 157 l 2
 508.406 129.868 507 112 513 112 c 0
 518 112 532.643 119.374 557 145 c 2
 941 549 l 2
EndSplineSet
Fore
SplineSet
899 549 m 2
 941 600 897 619 884 621 c 0
 863 624 860 632 860 641 c 0
 860 649 874 652 890 652 c 0
 907 652 954 650 988 650 c 0
 1029 650 1048 656 1079 656 c 0
 1095 656 1102 651 1102 643 c 0
 1102 634 1088 627 1065 620 c 0
 1030 610 987 591 948 543 c 2
 578 94 l 2
 543 51 482 -25 468 -25 c 0
 463 -25 458 -15 454 6 c 0
 453 10 460 58 471 106 c 1
 535 490 l 1
 208 94 l 2
 173 51 112 -25 98 -25 c 0
 93 -25 88 -15 84 6 c 0
 83 10 90 58 101 106 c 1
 170 523 l 2
 180 586 169 613 107 623 c 0
 87 626 83 637 83 646 c 0
 83 654 97 656 113 656 c 0
 139 656 184 650 226 650 c 0
 262 650 298 651 320 651 c 0
 336 651 344 648 344 640 c 0
 344 631 325 624 307 620 c 0
 271 613 249 591 241 539 c 2
 187 168 l 1
 181 140 182 134 188 134 c 0
 193 134 202 138 224 166 c 2
 529 549 l 2
 535 557 540 564 543 570 c 1
 539 600 521 616 477 623 c 0
 457 626 453 637 453 646 c 0
 453 654 467 656 483 656 c 0
 513 656 570 650 609 650 c 0
 647 650 677 656 709 656 c 0
 725 656 732 651 732 643 c 0
 732 634 718 627 695 620 c 0
 675 614 651 605 628 589 c 1
 620 577 614 561 611 539 c 2
 557 168 l 1
 551 140 552 134 558 134 c 0
 563 134 572 138 594 166 c 2
 899 549 l 2
EndSplineSet
Substitution2: "Swash subtable" W.sw
Substitution2: "c2sc subtable" W.sc
Substitution2: "sups subtable" W.sups
Substitution2: "sinf subtable" W.sinf
Substitution2: "ordn subtable" W.ordn
Substitution2: "subs subtable" W.subs
EndChar

StartChar: X
Encoding: 88 88 63
Width: 707
VWidth: 0
Flags: HW
HStem: -5 33<-1.28858 92.0125 206.546 255.95 348.068 430.718 578.199 646.178> 622 33<191.227 269.042 395.283 473.625 569.161 612.306 728.924 803.13>
AnchorPoint: "cedilla" 393 8 basechar 0
AnchorPoint: "below_accent" 404 -100 basechar 0
AnchorPoint: "top_accent" 381 700 basechar 0
LayerCount: 2
Fore
SplineSet
674 650 m 0
 710 650 757 656 782 656 c 0
 798 656 806 653.25 806 645 c 0
 806 635.51 792 631 769 625 c 0
 731 615 665.39 564.482 613 510 c 18
 477.896 369.5 l 2
 459.511 349.854 456.639 343.193 460 331 c 2
 517 111 l 10
 530.214 59.998 590 36 622 26 c 0
 642 20 647 15.4902 647 6 c 0
 647 -2.25 633 -5 617 -5 c 0
 591 -5 503 1 459 1 c 0
 421 1 394 0 372 0 c 0
 356 0 348 2.75 348 11 c 0
 348 20.4902 371.578 29.001 386 31 c 0
 432.896 37.5 449.999 40.7929 430 111 c 2
 387 262 l 2
 382.929 276.298 377 276 368 267 c 2
 214 93 l 2
 186.818 62.2881 200 39 232 30 c 0
 252 24 256 19.4902 256 10 c 0
 256 1.75 242 -1 226 -1 c 0
 209 -1 173 1 140 1 c 0
 98 1 52 -5 21 -5 c 0
 5 -5 -3 -2.25 -3 6 c 0
 -3 15.49 11.122 25.1996 35 28 c 0
 81.8957 33.5 124.589 53.0412 192 124 c 2
 344 284 l 2
 363.285 304.3 375.945 318.984 373 329 c 2
 314 529 l 2
 290.503 608.649 259.896 615.5 222 622 c 0
 202.965 625.265 190 633.51 190 643 c 0
 190 651.25 212 655 228 655 c 0
 259 655 322 650 368 650 c 0
 405 650 433 652 450 652 c 0
 466 652 474 649.25 474 641 c 0
 474 631.51 460.714 622.624 437 621 c 0
 385.896 617.5 380.398 600.979 402 528 c 2
 439 403 l 2
 441.899 392.97 446 388 450 388 c 0
 454 388 458.667 391.384 466 400 c 2
 586 538 l 2
 631.391 590.2 617 612 593 620 c 0
 581 624 569 630.51 569 640 c 0
 569 648.25 583 651 599 651 c 0
 621 651 646 650 674 650 c 0
EndSplineSet
Substitution2: "Swash subtable" X.sw
Substitution2: "c2sc subtable" X.sc
Substitution2: "sups subtable" X.sups
Substitution2: "sinf subtable" X.sinf
Substitution2: "ordn subtable" X.ordn
Substitution2: "subs subtable" X.subs
EndChar

StartChar: Y
Encoding: 89 89 49
Width: 595
VWidth: 0
Flags: W
HStem: -5 29<87.8438 164.653 310.55 368.641> 620 33<123.308 190.385 295.351 366.821 488.633 544.872 642.804 714.896>
AnchorPoint: "below_accent" 215 -100 basechar 0
AnchorPoint: "top_accent" 445 710 basechar 0
LayerCount: 2
Fore
SplineSet
222 108 m 2
 267 256 l 2
 275 283 272 302 266 330 c 2
 224 522 l 2
 206 603 186 616 150 620 c 0
 131 622 122 633 122 642 c 0
 122 650 141 653 157 653 c 0
 185 653 226 650 270 650 c 24
 299 650 325 652 345 652 c 0
 361 652 368 649 368 641 c 0
 368 632 355 623 331 621 c 0
 299 618 286 614 298 560 c 2
 334 395 l 2
 340 369 346 357 353 357 c 0
 360 357 372 370 395 395 c 0
 440 444 470 478 515 534 c 0
 559 589 557 614 512 620 c 0
 499 622 488 631 488 640 c 0
 488 648 502 651 518 651 c 0
 546 651 566 650 596 650 c 24
 634 650 673 653 694 653 c 0
 710 653 717 650 717 642 c 0
 717 633 704 627 681 622 c 0
 646 615 587 565 558 534 c 0
 508 482 429 392 392 352 c 0
 362 320 353 294 341 256 c 2
 296 108 l 2
 282 63 300 33 344 24 c 0
 364 20 369 15 369 6 c 0
 369 -2 355 -5 339 -5 c 0
 289 -5 273 0 231 0 c 24
 184 0 161 -5 111 -5 c 0
 95 -5 87 -2 87 6 c 0
 87 15 100 20 123 24 c 0
 172 33 207 60 222 108 c 2
EndSplineSet
Substitution2: "Swash subtable" Y.sw
Substitution2: "c2sc subtable" Y.sc
Substitution2: "sups subtable" Y.sups
Substitution2: "sinf subtable" Y.sinf
Substitution2: "ordn subtable" Y.ordn
Substitution2: "subs subtable" Y.subs
EndChar

StartChar: Z
Encoding: 90 90 64
Width: 636
VWidth: 0
Flags: W
HStem: -2 38<148.215 503.926> 604 42<243.75 552.002>
AnchorPoint: "below_accent" 281 -100 basechar 0
AnchorPoint: "top_accent" 450 700 basechar 0
LayerCount: 2
Fore
SplineSet
189 -2 m 0
 152 -2 113 -3 78 -3 c 0
 55 -3 36 -3 6 -3 c 8
 0 -3 4 11 4 11 c 1
 7 21 55 73 86 104 c 0
 269 290 375 395 552 588 c 24
 557 593 565 603 543 604 c 0
 510 605 457 606 408 606 c 0
 372 606 314 606 290 604 c 0
 260 602 229 580 193 520 c 0
 186 508 175 493 166 493 c 0
 157 493 155 505 155 512 c 0
 155 526 192 594 209 636 c 0
 215 651 230 652 235 652 c 0
 251 652 286 648 319 647 c 16
 367 646 435 646 477 646 c 0
 554 646 624 647 693 649 c 0
 699 649 702 636 697 631 c 2
 616 550 l 1
 431 364 330 262 155 70 c 24
 147 62 143 42 153 41 c 0
 179 38 216 36 257 36 c 0
 299 36 409 38 454 41 c 0
 500 45 556 72 596 142 c 0
 601 150 615 171 624 171 c 0
 630 171 631 159 631 150 c 0
 631 139 573 36 555 12 c 0
 549 4 542 -5 533 -5 c 0
 427 -5 272 -2 189 -2 c 0
EndSplineSet
Substitution2: "Swash subtable" Z.sw
Substitution2: "c2sc subtable" Z.sc
Substitution2: "sups subtable" Z.sups
Substitution2: "sinf subtable" Z.sinf
Substitution2: "ordn subtable" Z.ordn
Substitution2: "subs subtable" Z.subs
EndChar

StartChar: backslash
Encoding: 92 92 97
Width: 300
VWidth: 0
Flags: HW
VStem: 65 202
LayerCount: 2
Fore
SplineSet
267 -47 m 30
 269 -57 257 -62 247 -62 c 28
 234 -62 221 -59 218 -47 c 30
 65 648 l 30
 63 657 73 665 82 665 c 28
 96 665 110 661 113 648 c 30
 267 -47 l 30
EndSplineSet
Substitution2: "sups subtable" backslash.sups
Substitution2: "sinf subtable" backslash.sinf
Substitution2: "ordn subtable" backslash.ordn
Substitution2: "subs subtable" backslash.subs
EndChar

StartChar: asciicircum
Encoding: 94 94 89
Width: 500
Flags: W
HStem: 284 319
LayerCount: 2
Fore
SplineSet
250 603 m 1
 276 566 408 375 449 305 c 0
 455 295 451 284 443 284 c 0
 442 284 442 284 441 284 c 0
 429 287 410 295 404 302 c 0
 368 341 284 470 254 514 c 0
 249 520 248 520 244 514 c 0
 214 470 123 332 96 302 c 0
 89 295 71 287 59 284 c 0
 58 284 58 284 57 284 c 0
 49 284 45 295 51 305 c 0
 89 369 222 564 250 603 c 1
EndSplineSet
Substitution2: "sups subtable" asciicircum.sups
Substitution2: "sinf subtable" asciicircum.sinf
Substitution2: "ordn subtable" asciicircum.ordn
Substitution2: "subs subtable" asciicircum.subs
EndChar

StartChar: underscore
Encoding: 95 95 103
Width: 465
VWidth: 0
Flags: HW
HStem: -182 50<-43.6469 410.585>
LayerCount: 2
Fore
SplineSet
-18 -132 m 26
 413 -132 l 26
 420 -132 424 -139 420 -146 c 24
 409 -163 398 -182 381 -182 c 26
 -43 -182 l 26
 -50 -182 -54 -176 -52 -170 c 0
 -49 -161 -34 -132 -18 -132 c 26
EndSplineSet
Substitution2: "sups subtable" underscore.sups
Substitution2: "sinf subtable" underscore.sinf
Substitution2: "ordn subtable" underscore.ordn
Substitution2: "subs subtable" underscore.subs
EndChar

StartChar: a
Encoding: 97 97 0
Width: 451
Flags: W
HStem: -14 60<66.6045 134.407 310.118 368.837> 353 53<292.466 366.303> 406 20G<412 425.5>
VStem: 14 79<6.7959 105.185> 269 179<30 90> 369 82<301 411> 390 61<396.786 424.212>
AnchorPoint: "ogonek" 369 18 basechar 0
AnchorPoint: "below_accent" 148 -100 basechar 0
AnchorPoint: "top_accent" 370 550 basechar 0
LayerCount: 2
Fore
SplineSet
329 353 m 0xd4
 265 353 93 156 93 77 c 0
 93 50 97 46 116 46 c 0
 187 46 369 281 369 321 c 0
 369 339 346 353 329 353 c 0xd4
300 -14 m 0
 281 -14 269 8 269 30 c 0xb8
 269 65 296 122 311 153 c 0
 320 171 315.459 174.46 309.3 167.6 c 0
 186.3 30.5996 125 -14 57 -14 c 0
 40 -14 14 4 14 21 c 0
 14 130 150 285 256 362 c 0
 284 382 331 406 345 406 c 0
 355 406 371.3 397.6 378.3 386.6 c 0
 383.102 379.054 387.446 382.214 390 388 c 0xd2
 401.3 413.6 407 426 417 426 c 0
 434 426 451 416 451 406 c 0xb4
 451 401 447.99 392.003 444 381 c 2
 341 97 l 2
 332 71 343 49 360 49 c 0
 370 49 412 74 424 88 c 0
 427 92 448 111 448 90 c 0xb8
 448 87 441 74 438 70 c 0
 417 38 357 -14 300 -14 c 0
EndSplineSet
Validated: 33
Substitution2: "Smallcaps subtable" a.sc
Substitution2: "sups subtable" a.sups
Substitution2: "sinf subtable" a.sinf
Substitution2: "ordn subtable" a.ordn
Substitution2: "subs subtable" a.subs
EndChar

StartChar: b
Encoding: 98 98 9
Width: 452
Flags: W
HStem: -8 40<129.896 218.234> 371 42<328.679 408>
VStem: 61 59<40.2656 157.04> 386 66<241.526 369.624>
AnchorPoint: "below_accent" 89 -100 basechar 0
LayerCount: 2
Back
Fore
SplineSet
198 559 m 2
 205 582 216 620 211 633 c 0
 207 645 155 651 155 660 c 0
 155 665 157 669 161 671 c 0
 191 686 266 707 282 707 c 0
 288 707 298 707 298 697 c 0
 298 686 298 683 295 674 c 2
 295 674 214 410 164 250 c 0
 158 231 167 238 178 251 c 0
 251 341 331 413 390 413 c 0
 426 413 452 378 452 321 c 0
 452 208 299 -8 135 -8 c 0
 88 -8 61 26 61 74 c 0
 61 132 73 161 94 228 c 2
 198 559 l 2
357 371 m 0
 330 371 250 306 191 234 c 0
 151 185 120 121 120 91 c 0
 120 49 139 32 173 32 c 0
 202 32 257 76 299 132 c 0
 350 199 386 281 386 308 c 0
 386 333 384 371 357 371 c 0
EndSplineSet
Substitution2: "Smallcaps subtable" b.sc
Substitution2: "sups subtable" b.sups
Substitution2: "sinf subtable" b.sinf
Substitution2: "ordn subtable" b.ordn
Substitution2: "subs subtable" b.subs
EndChar

StartChar: c
Encoding: 99 99 14
Width: 318
Flags: W
HStem: -15 41<102.5 198.347> 380 34<217.183 311>
VStem: 42 72<34.0938 206.239>
AnchorPoint: "cedilla" 176 8 basechar 0
AnchorPoint: "below_accent" 102 -100 basechar 0
AnchorPoint: "top_accent" 295 550 basechar 0
LayerCount: 2
Fore
SplineSet
347 375 m 4
 347 362 331 333 317 333 c 4
 294 333 300 380 252 380 c 4
 188 380 114 208 114 98 c 12
 114 66 123 26 155 26 c 20
 203 26 229 56 257 89 c 4
 263 97 269 98 274 98 c 4
 280 98 278 90 278 84 c 4
 278 72 218 -15 122 -15 c 4
 83 -15 41 8 42 84 c 4
 42 204 122 414 292 414 c 4
 330 414 347 385 347 375 c 4
EndSplineSet
Validated: 33
Substitution2: "Smallcaps subtable" c.sc
Substitution2: "sups subtable" c.sups
Substitution2: "sinf subtable" c.sinf
Substitution2: "ordn subtable" c.ordn
Substitution2: "subs subtable" c.subs
EndChar

StartChar: d
Encoding: 100 100 11
Width: 513
Flags: HW
HStem: -14 32<77.22 158.669> 389 31<296.055 363.976> 685 20G<542 550.5>
VStem: 26 70<18.6526 140.602> 319 194<36 110>
AnchorPoint: "top_right" 641 634 basechar 0
AnchorPoint: "below_accent" 122 -100 basechar 0
LayerCount: 2
Fore
SplineSet
385 107 m 2
 377 80 383 50 395 50 c 0
 427 50 491 108 501 118 c 0
 502 119 503 119 504 119 c 0
 508 119 513 115 513 110 c 0
 513 105 510 99 508 96 c 0
 456 33 408 -14 345 -14 c 0
 325 -14 319 14 319 36 c 0
 319 77 325 108 333 136 c 0
 336 147 331 151 327 146 c 0
 259 58 175 -14 86 -14 c 0
 55 -14 26 12 26 47 c 0
 26 131 89 250 173 331 c 0
 227 384 294 420 343 420 c 0
 356 420 376 409 384 394 c 0
 390 382 395 384 398 392 c 2
 469 611 l 2
 487 667 424 661 424 675 c 0
 424 690 443 691 458 693 c 0
 476 696 537 705 547 705 c 0
 554 705 553 688 550 677 c 2
 385 107 l 2
96 61 m 0
 96 34 102 18 121 18 c 0
 174 18 268 107 320 175 c 0
 356 222 377 281 377 337 c 0
 377 363 359 389 333 389 c 0
 271 389 95 176 96 61 c 0
EndSplineSet
Substitution2: "Smallcaps subtable" d.sc
Substitution2: "sups subtable" d.sups
Substitution2: "sinf subtable" d.sinf
Substitution2: "ordn subtable" d.ordn
Substitution2: "subs subtable" d.subs
EndChar

StartChar: e
Encoding: 101 101 13
Width: 365
Flags: W
HStem: -15 50<125.328 210.99> 217 29<149.001 220.665> 385 29<245.983 309.393>
VStem: 42 72<45.032 206.365> 314 61<302.528 384.145>
AnchorPoint: "cedilla" 168 8 basechar 0
AnchorPoint: "ogonek" 212 18 basechar 0
AnchorPoint: "below_accent" 94 -100 basechar 0
AnchorPoint: "top_accent" 316 550 basechar 0
LayerCount: 2
Fore
SplineSet
286 385 m 4
 231 385 149 282 149 252 c 4
 149 246 151 246 156 246 c 4
 186 246 314 273 314 353 c 4
 314 371 306 385 286 385 c 4
127 -15 m 4
 88 -15 42 22 42 98 c 4
 42 218 144 414 301 414 c 4
 355 414 375 392 375 351 c 4
 375 271 216 217 146 217 c 4
 138 217 134.642578125 215.23046875 131 207 c 4
 117.5 176.5 114 154 114 112 c 4
 114 62 130 35 164 35 c 4
 212 35 252 72 272 98 c 4
 278 106 285 109 290 109 c 4
 296 109 300 105 300 99 c 4
 300 97 300 94 298 91 c 4
 258 26 197 -15 127 -15 c 4
EndSplineSet
Validated: 1
Substitution2: "Smallcaps subtable" e.sc
Substitution2: "sups subtable" e.sups
Substitution2: "sinf subtable" e.sinf
Substitution2: "ordn subtable" e.ordn
Substitution2: "subs subtable" e.subs
EndChar

StartChar: f
Encoding: 102 102 18
Width: 262
Flags: W
HStem: -288 40<-93.864 -24.5056> 362 38<58.643 148.264 228.706 273.667> 665 41<349.175 442.479>
VStem: 457 54<600.853 650.586>
AnchorPoint: "below_accent" 153 -100 basechar 0
AnchorPoint: "top_accent" 412 812 basechar 0
LayerCount: 2
Fore
SplineSet
-48 -248 m 0
 -5 -248 14 -192 48 -58 c 2
 48 -58 145 324 148 339 c 0
 151 352 148 357 134 357 c 6
 68 356 l 6
 59 356 55 361 55 368 c 4
 55 379 64 393 74 394 c 6
 153 398 l 6
 160 398 162 401 164 411 c 0
 218 635 350 706 424 706 c 0
 467 706 511 696 511 651 c 0
 511 626 490 590 469 590 c 0
 458 590 457 604 457 618 c 0
 457 640 430 665 380 665 c 0
 327 664 290 605 270 557 c 0
 263 539 233 438 229 422 c 0
 228 419 228 416 228 414 c 0
 228 403 235 400 244 400 c 4
 278 400 312 402 346 403 c 4
 348 403 353 398 353 396 c 4
 353 387 334 365 327 365 c 6
 247 362 l 6
 207 361 210 351 206 336 c 2
 126 0 l 2
 75 -214 -24 -288 -80 -288 c 0
 -130 -288 -171 -277 -171 -238 c 0
 -171 -214 -152 -194 -132 -194 c 0
 -112 -194 -98 -248 -48 -248 c 0
EndSplineSet
Validated: 1
Substitution2: "Single Substitution lookup 61 subtable" f.short
Substitution2: "Single Substitution lookup 60 subtable" f.short
Substitution2: "Smallcaps subtable" f.sc
Substitution2: "sups subtable" f.sups
Substitution2: "sinf subtable" f.sinf
Substitution2: "ordn subtable" f.ordn
Substitution2: "subs subtable" f.subs
Substitution2: "loclDEU subtable" f.DEU
EndChar

StartChar: g
Encoding: 103 103 25
Width: 365
Flags: W
HStem: -290 30<40.6304 215.908> 77 27<128.279 175.884> 346 58<345.35 426.562> 381 33<204.562 263.817>
VStem: -103 64<-216.845 -145.087> 47 65<123.397 249.219> 57 59<-4.24349 50.2772> 250 73<-226.518 -147.494> 272 59<234.655 352.818>
AnchorPoint: "top_accent" 287 550 basechar 0
LayerCount: 2
Fore
SplineSet
136 -86 m 0xc9
 123 -79 109 -82 96 -86 c 0
 16 -111 -39 -141 -39 -182 c 0
 -39 -226 54 -260 136 -260 c 0
 230 -260 251 -224 250 -188 c 0
 248 -144 173 -106 136 -86 c 0xc9
241 381 m 0xdc80
 225 381 202 366 187 347 c 0
 151 302 111 212 112 158 c 0
 113 110 131 104 141 104 c 0
 211 104 274 265 272 330 c 0
 271 350 264 381 241 381 c 0xdc80
91 -66 m 0
 96 -64 97 -56 93 -52 c 0
 69 -31 57 -12 57 14 c 0xeb
 57 39 71 44 98 65 c 0
 105 70 116 81 110 84 c 0
 93 94 47 134 47 180 c 0
 46 269 143 414 248 414 c 0
 276 414 294 405 300 399 c 0
 307 392 313 391 323 391 c 0xdd
 358 393 377 404 412 404 c 0
 420 404 428 400 428 392 c 0
 428 363 423 346 418 346 c 0
 389 346 373 353 344 353 c 0
 337 353 323 355 327 344 c 0
 331 332 332 318 331 300 c 0xe880
 329 247 282 140 215 99 c 0
 191 84 155 77 144 77 c 0
 136 77 131 67 126 61 c 0
 120 53 115 55 116 38 c 0
 117 10 140 -9 175 -33 c 0
 209 -56 255 -84 296 -114 c 0
 313 -126 323 -146 323 -166 c 0xeb
 323 -271 190 -290 85 -290 c 0
 0 -290 -103 -249 -103 -180 c 0
 -103 -138 5 -95 20 -90 c 0
 49 -81 66 -75 91 -66 c 0
EndSplineSet
Validated: 33
Substitution2: "Smallcaps subtable" g.sc
Substitution2: "sups subtable" g.sups
Substitution2: "sinf subtable" g.sinf
Substitution2: "ordn subtable" g.ordn
Substitution2: "subs subtable" g.subs
EndChar

StartChar: k
Encoding: 107 107 62
Width: 469
Flags: W
HStem: -21 60<310.823 368.638> 178 25<172 214> 372 42<336.026 418.757>
VStem: 400 69<315.638 387.5>
AnchorPoint: "below_accent" 164 -100 basechar 0
AnchorPoint: "top_accent" 335 708 basechar 0
LayerCount: 2
Fore
SplineSet
400 346 m 0
 400 368 381 372 361 372 c 0
 305 372 202 248 202 220 c 0
 202 212 206 203 214 203 c 0
 297 203 400 296 400 346 c 0
106 16 m 0
 98 -6 96 -15 80 -15 c 0
 70 -15 55 3 55 15 c 0
 55 21 57 35 68 74 c 2
 209 557 l 2
 216 580 227 618 222 631 c 0
 218 643 169 649 169 658 c 0
 169 663 171 667 175 669 c 0
 205 684 272 706 288 706 c 0
 294 706 304 706 304 696 c 0
 304 685 304 682 301 673 c 2
 180 266 l 2
 176 251 184 255 189 262 c 0
 261 357 351 414 399 414 c 0
 438 414 469 404 469 371 c 0
 469 296 334 207 266 188 c 0
 259 186 258 184 261 177 c 2
 307 68 l 2
 313 54 325 39 340 39 c 0
 365 39 394 66 412 95 c 0
 419 107 423 110 428 110 c 0
 430 110 433 105 433 100 c 0
 433 35 349 -21 319 -21 c 0
 304 -21 275 -15 256 28 c 2
 218 134 l 2
 210 156 194 178 172 178 c 0
 163 178 149 150 145 136 c 0
 139 117 113 35 106 16 c 0
EndSplineSet
Validated: 33
Substitution2: "Smallcaps subtable" k.sc
Substitution2: "sups subtable" k.sups
Substitution2: "sinf subtable" k.sinf
Substitution2: "ordn subtable" k.ordn
Substitution2: "subs subtable" k.subs
EndChar

StartChar: l
Encoding: 108 108 2
Width: 252
Flags: W
HStem: -14 55<78 158.697>
VStem: 50 76<5.25383 105.281>
AnchorPoint: "top_right" 383 634 basechar 0
AnchorPoint: "below_accent" 56 -100 basechar 0
AnchorPoint: "top_accent" 293 812 basechar 0
LayerCount: 2
Fore
SplineSet
233 99 m 0
 241 107 248 120 253 120 c 0
 258 120 258 115 258 107 c 0
 258 47 129 -14 94 -14 c 0
 62 -14 50 2 50 21 c 0
 50 38 54 52 61 76 c 2
 206 559 l 2
 212 578 220 607 220 624 c 0
 220 646 170 648 170 660 c 0
 170 665 172 669 176 671 c 0
 206 686 274 707 290 707 c 0
 296 707 307 707 307 697 c 0
 307 686 306 683 303 674 c 2
 131 86 l 2
 128 75 126 65 126 57 c 0
 126 47 129 41 136 41 c 0
 168 41 223 89 233 99 c 0
EndSplineSet
Substitution2: "Smallcaps subtable" l.sc
Substitution2: "sups subtable" l.sups
Substitution2: "sinf subtable" l.sinf
Substitution2: "ordn subtable" l.ordn
Substitution2: "subs subtable" l.subs
Substitution2: "loclCAT subtable" l.CAT
EndChar

StartChar: m
Encoding: 109 109 7
Width: 755
Flags: W
HStem: -14 64<575.251 632.58> 372 42<346.936 406.22 593.936 653.22>
AnchorPoint: "below_accent" 425 -100 basechar 0
AnchorPoint: "top_accent" 491 550 basechar 0
LayerCount: 2
Fore
SplineSet
396 309 m 2
 418 367 400 371 384 372 c 0
 362 373 325 351 281 297 c 0
 250 259 178 151 138 78 c 0
 103 14 88 -17 72 -17 c 0
 62 -17 55 5 55 17 c 0
 55 23 63 46 77 84 c 2
 164 312 l 2
 175 341 179 356 166 356 c 0
 146 356 126 352 94 310 c 0
 89 304 81 304 79 314 c 0
 78 326 87 353 96 364 c 0
 118 392 144 413 189 414 c 0
 216 414 243 402 227 360 c 2
 173 212 l 2
 169 202 178 201 182 208 c 0
 263 348 348 414 413 414 c 0
 452 414 482 380 446 282 c 2
 420 212 l 2
 416 202 425 201 429 208 c 0
 510 348 595 414 660 414 c 0
 699 414 731 379 693 282 c 2
 618 86 l 2
 607 60 611 50 623 50 c 0
 655 50 719 108 729 118 c 0
 730 119 731 119 732 119 c 0
 736 119 740 115 740 110 c 0
 740 105 738 99 736 96 c 0
 684 33 627 -14 564 -14 c 0
 544 -14 529 12 538 36 c 2
 643 309 l 2
 665 367 647 371 631 372 c 0
 609 373 572 351 528 297 c 0
 497 259 425 151 385 78 c 0
 350 14 322 -17 306 -17 c 0
 296 -17 289 5 289 17 c 0
 289 23 297 46 311 84 c 2
 396 309 l 2
EndSplineSet
Substitution2: "Smallcaps subtable" m.sc
Substitution2: "sups subtable" m.sups
Substitution2: "sinf subtable" m.sinf
Substitution2: "ordn subtable" m.ordn
Substitution2: "subs subtable" m.subs
EndChar

StartChar: o
Encoding: 111 111 3
Width: 400
Flags: W
HStem: -14 30<122.149 188.736> 384 30<246.264 312.851>
VStem: 45 64<30.5807 194.315> 326 64<205.685 369.419>
AnchorPoint: "ogonek" 228 18 basechar 0
AnchorPoint: "below_accent" 137 -100 basechar 0
AnchorPoint: "top_accent" 322 550 basechar 0
LayerCount: 2
Fore
SplineSet
326 304 m 0
 326 354 317 384 283 384 c 0
 203 384 109 189 109 96 c 0
 109 46 118 16 152 16 c 0
 232 16 326 211 326 304 c 0
390 296 m 0
 390 176 290 -14 140 -14 c 0
 100 -14 45 28 45 104 c 0
 45 224 145 414 295 414 c 0
 335 414 390 372 390 296 c 0
EndSplineSet
Substitution2: "Smallcaps subtable" o.sc
Substitution2: "sups subtable" o.sups
Substitution2: "sinf subtable" o.sinf
Substitution2: "ordn subtable" o.ordn
Substitution2: "subs subtable" o.subs
EndChar

StartChar: q
Encoding: 113 113 10
Width: 465
Flags: W
HStem: -286 29<115.027 180.212> -272 26<283.637 337.699> -14 36<68.5 164.461> 383 37<296.295 368.911> 408 20G<469 476.5>
VStem: 24 70<22.7031 139.96> 375 108<309 409.5>
AnchorPoint: "top_accent" 385 550 basechar 0
LayerCount: 2
Back
SplineSet
233 -211 m 2xa6
 360 126 l 2
 374.406 164.229 342 140 338 136 c 0
 238 43 144 -14 75 -14 c 0
 38 -14 10 -1 10 67 c 0
 10 234 189 414 358 414 c 0
 404 414 432 360 437 360 c 0
 447 360 455.043 367.732 460 378 c 2
 474 407 l 2xb5
 480 415 489 428 499 428 c 0
 504 428 510 412 510 407 c 0
 510 401 508.672 404.111 504 390 c 2
 309 -199 l 2
 303.962 -213.989 297 -242 335 -246 c 0
 348 -247 365 -251 365 -261 c 0
 365 -269 351 -272 336 -272 c 0x6e
 270 -272 188 -281 160 -286 c 0
 153 -287 140 -285 140 -277 c 0
 140 -267 158 -259 170 -257 c 0
 198 -253 223.024 -236.012 233 -211 c 2xa6
52 74 m 0
 52 49 63 32 91 32 c 0
 189 32 396 217 396 315 c 0x36
 396 346 379 375 346 375 c 0
 238 375 52 166 52 74 c 0
EndSplineSet
Fore
SplineSet
419 372 m 4xb6
 427 372 429 375 434 385 c 6
 447 407 l 6
 456 422 464 428 474 428 c 4
 479 428 483 412 483 407 c 4
 483 401 482 404 477 390 c 6
 282 -199 l 6
 277 -214 270 -242 308 -246 c 4
 321 -247 338 -251 338 -261 c 4
 338 -269 324 -272 309 -272 c 4x6e
 243 -272 161 -281 133 -286 c 4
 126 -287 113 -285 113 -277 c 4
 113 -267 131 -259 143 -257 c 4
 171 -253 196 -236 206 -211 c 6
 333 126 l 6
 347 164 321 140 317 136 c 4
 249 48 173 -14 84 -14 c 4
 53 -14 24 12 24 47 c 4
 24 131 91 246 171 331 c 4
 223 386 292 420 341 420 c 4
 399 420 405 372 419 372 c 4xb6
94 61 m 4
 94 34 100 22 119 22 c 4
 172 22 266 107 318 175 c 4
 354 222 375 281 375 337 c 4
 375 363 364 383 338 383 c 4x36
 276 383 93 176 94 61 c 4
EndSplineSet
Validated: 33
Substitution2: "Smallcaps subtable" q.sc
Substitution2: "sups subtable" q.sups
Substitution2: "sinf subtable" q.sinf
Substitution2: "ordn subtable" q.ordn
Substitution2: "subs subtable" q.subs
EndChar

StartChar: s
Encoding: 115 115 17
Width: 276
Flags: W
HStem: -14 48<27 135.035> 368 46<186.871 249.111>
VStem: 110 57<248.66 339.851> 166 64<65.1854 184.928>
AnchorPoint: "cedilla" 119 8 basechar 0
AnchorPoint: "below_accent" 47 -100 basechar 0
AnchorPoint: "top_accent" 267 550 basechar 0
LayerCount: 2
Back
Fore
SplineSet
243 414 m 0xe0
 274 414 294 388 294 377 c 0
 294 365 278 335 266 335 c 0
 251 335 243 368 207 368 c 0
 185 368 167 348 167 319 c 0xe0
 167 302 184 254 200 227 c 0
 216 200 230 153 230 123 c 0
 230 44 124 -14 44 -14 c 0
 10 -14 -10 10 -10 30 c 0
 -10 45 8 76 18 76 c 0
 34 76 52 34 109 34 c 0
 143 34 165 62 166 94 c 0xd0
 167 132 156 164 142 190 c 0
 123 225 110 255 110 275 c 0
 110 355 206 414 243 414 c 0xe0
EndSplineSet
Validated: 33
Substitution2: "Smallcaps subtable" s.sc
Substitution2: "sups subtable" s.sups
Substitution2: "sinf subtable" s.sinf
Substitution2: "ordn subtable" s.ordn
Substitution2: "subs subtable" s.subs
Substitution2: "Single Substitution lookup 22 subtable" longs
EndChar

StartChar: t
Encoding: 116 116 1
Width: 285
Flags: HW
HStem: -14 73<66.3456 163.5> 360 38<87.8539 153.133 238.865 330.495>
VStem: 49 301
AnchorPoint: "top_right" 397 634 basechar 0
AnchorPoint: "cedilla" 139 8 basechar 0
AnchorPoint: "below_accent" 52 -100 basechar 0
AnchorPoint: "top_accent" 277 594 basechar 0
LayerCount: 2
Back
Fore
SplineSet
229 68 m 0
 181 23 110 -14 82 -14 c 0
 61 -14 49 -5 49 23 c 0
 49 35 51 42 63 79 c 2
 153 346 l 2
 156 355 149 358 143 358 c 2
 103 360 l 2
 86 361 85 369 85 374 c 0
 85 377 101 398 119 398 c 0
 129 398 133 398 155 398 c 0
 169 398 172 401 179 416 c 2
 199 457 l 2
 210 479 244 502 253 502 c 0
 269 502 263 475 261 470 c 2
 239 411 l 2
 236 402 241 400 252 400 c 0
 279 400 309 395 327 392 c 0
 348 388 350 384 350 377 c 0
 350 374 346 366 331 365 c 0
 321 364 261 362 245 362 c 0
 233 362 217 357 214 348 c 2
 132 99 l 2
 126 80 131 59 150 59 c 0
 177 59 196 76 218 93 c 0
 234 105 246 106 246 98 c 0
 246 89 241 79 229 68 c 0
EndSplineSet
Substitution2: "Smallcaps subtable" t.sc
Substitution2: "sups subtable" t.sups
Substitution2: "sinf subtable" t.sinf
Substitution2: "ordn subtable" t.ordn
Substitution2: "subs subtable" t.subs
EndChar

StartChar: u
Encoding: 117 117 15
Width: 498
Flags: W
HStem: -14 61<132.975 134 321.759 384.925> 398 20G<235.5 260 467.5 477>
AnchorPoint: "ogonek" 384 18 basechar 0
AnchorPoint: "below_accent" 181 -100 basechar 0
AnchorPoint: "top_accent" 387 550 basechar 0
LayerCount: 2
Back
Fore
SplineSet
286 36 m 0
 314 96 350 175 360 203 c 0
 366 219 355 219 348 211 c 0
 209 59 134 -14 78 -14 c 0
 51 -14 55 30 66 55 c 26
 156 270 l 2
 165 292 184 339 174 339 c 0
 163 339 125 306 96 280 c 0
 93 277 83 279 83 283 c 0
 83 288 84 298 95 313 c 0
 145 380 221 418 250 418 c 0
 270 418 281 404 265 373 c 2
 144 104 l 2
 132 77 127 50 141 50 c 0
 155 50 181 72 243 136 c 0
 331 226 434 370 448 396 c 0
 457 413 465 414 470 414 c 0
 484 414 491 403 491 391 c 0
 491 385 488 373 478 350 c 2
 363 86 l 2
 352 60 354 47 366 47 c 0
 398 47 464 108 474 118 c 0
 475 119 476 119 477 119 c 0
 481 119 486 115 486 110 c 0
 486 105 483 99 481 96 c 0
 429 33 375 -14 312 -14 c 0
 292 -14 277 16 286 36 c 0
EndSplineSet
Validated: 33
Substitution2: "Smallcaps subtable" u.sc
Substitution2: "sups subtable" u.sups
Substitution2: "sinf subtable" u.sinf
Substitution2: "ordn subtable" u.ordn
Substitution2: "subs subtable" u.subs
Substitution2: "Single Substitution lookup 24 subtable" u.LAT
Substitution2: "loclLAT subtable" u.LAT
EndChar

StartChar: w
Encoding: 119 119 23
Width: 611
Flags: W
HStem: -14 55<150.387 204.408 349.432 444.476> 400 20G<210.5 235 591.5 612>
VStem: 575 59<233.927 383.402>
AnchorPoint: "below_accent" 384 -100 basechar 0
AnchorPoint: "top_accent" 442 550 basechar 0
LayerCount: 2
Fore
SplineSet
374 143 m 0
 364 82 371 41 404 41 c 0
 478 41 575 179 575 288 c 0
 575 310 564 327 546 353 c 0
 541 360 541 369 543 374 c 0
 550 394 578 420 605 420 c 0
 619 420 634 395 634 349 c 0
 634 261 597 171 520 80 c 0
 466 17 429 -14 375 -14 c 0
 324 -14 303 54 318 120 c 0
 321 133 317 132 310 120 c 0
 262 44 191 -14 153 -14 c 0
 102 -14 60 40 100 141 c 10
 148 270 l 2
 157 293 169 334 156 334 c 0
 147 334 116 307 88 280 c 0
 85 277 75 279 75 283 c 0
 75 288 76 298 87 313 c 0
 137 380 196 418 225 418 c 0
 245 418 251 406 240 373 c 2
 153 120 l 2
 137 74 149 43 182 43 c 0
 230 43 325 182 331 202 c 0
 338 227 352 294 359 334 c 0
 360 342 368 362 379 372 c 0
 393 385 409 397 436 397 c 0
 450 397 446 348 436 322 c 0
 418 275 406 239 395 214 c 0
 385 191 376 157 374 143 c 0
EndSplineSet
Substitution2: "Smallcaps subtable" w.sc
Substitution2: "sups subtable" w.sups
Substitution2: "sinf subtable" w.sinf
Substitution2: "ordn subtable" w.ordn
Substitution2: "subs subtable" w.subs
Substitution2: "ss03 subtable" w.alt
EndChar

StartChar: x
Encoding: 120 120 53
Width: 438
Flags: W
HStem: -14 60<8.74617 79.1599 279 349.656> 345 69<115.942 180.5> 356 58<358.514 403.347>
VStem: 378 26<88.4023 129.488>
AnchorPoint: "below_accent" 222 -100 basechar 0
AnchorPoint: "top_accent" 307 550 basechar 0
LayerCount: 2
Fore
SplineSet
24 -14 m 0xb0
 4 -14 -10 2 -10 28 c 0
 -10 51 9 85 26 85 c 0
 35 85 37 79 42 65 c 0
 46 53 60 46 63 46 c 0
 70 46 81 48 91 60 c 2
 91 60 150 120 196 188 c 0
 198 190 197 193 196 198 c 2
 162 327 l 2
 158 342 150 345 142 345 c 0
 132 345 118 342 91 308 c 0
 88 304 77 293 68 293 c 0
 63 293 61 300 61 310 c 0
 61 343 117 414 169 414 c 0xd0
 192 414 204 393 209 374 c 2
 238 262 l 2
 241 252 247 255 254 264 c 2
 322 355 l 2
 343 383 376 414 412 414 c 0
 438 414 462 387 463 371 c 0
 464 359 448 316 422 316 c 0
 414 316 411 318 404 333 c 0
 397 351 391 356 382 356 c 0
 347 357 260 224 260 224 c 2
 253 216 254 206 259 189 c 2
 286 90 l 2
 295 55 312 49 319 49 c 0
 343 49 359 67 378 116 c 0
 382 126 389 130 394 130 c 0
 399 130 404 128 404 108 c 0
 404 58 352 -14 294 -14 c 0
 264 -14 244 13 233 53 c 0
 228 70 212 137 212 137 c 2
 208 153 204 153 196 143 c 0
 154 93 98 27 98 27 c 2
 70 -6 48 -14 24 -14 c 0xb0
EndSplineSet
Substitution2: "Smallcaps subtable" x.sc
Substitution2: "sups subtable" x.sups
Substitution2: "sinf subtable" x.sinf
Substitution2: "ordn subtable" x.ordn
Substitution2: "subs subtable" x.subs
EndChar

StartChar: y
Encoding: 121 121 24
Width: 420
Flags: W
HStem: -287 60<-54.8674 25.7879> 355 59<113.939 168.582> 403 20G<372.5 383>
VStem: 61 28<263.771 317.558> 202 56<87.9897 300.203> 359 56<261.366 415.265>
AnchorPoint: "top_accent" 292 550 basechar 0
LayerCount: 2
Fore
SplineSet
145 355 m 0xdc
 125 355 96 314 89 290 c 0
 87 283 78 261 70 261 c 0
 65 261 61 274 61 289 c 0
 61 350 119 414 164 414 c 0xdc
 184 414 216 397 231 348 c 0
 249 290 264 212 258 79 c 0
 257 55 264 59 273 76 c 0
 317 160 359 271 359 401 c 0
 359 414 367 423 378 423 c 0xbc
 388 423 415 401 415 374 c 0
 415 250 315 53 167 -130 c 0
 97 -217 20 -287 -35 -287 c 0
 -55 -287 -80 -273 -80 -245 c 0
 -80 -223 -55 -195 -38 -195 c 0
 -21 -195 -16 -227 20 -227 c 0
 41 -227 80 -200 104 -166 c 0
 156 -93 202 12 202 116 c 0
 202 301 165 355 145 355 c 0xdc
EndSplineSet
Substitution2: "Smallcaps subtable" y.sc
Substitution2: "sups subtable" y.sups
Substitution2: "sinf subtable" y.sinf
Substitution2: "ordn subtable" y.ordn
Substitution2: "subs subtable" y.subs
EndChar

StartChar: z
Encoding: 122 122 65
Width: 381
VWidth: 0
Flags: W
HStem: -34 52<232.751 305.948> -20 21G<17 21.5> 52 44<97 131> 376 48<130.377 253.066>
VStem: 5 29<-19.9905 31.5369> 46 52<278.28 347.735> 337 44<38.4196 139.449>
AnchorPoint: "below_accent" 188 -100 basechar 0
AnchorPoint: "top_accent" 282 550 basechar 0
LayerCount: 2
Fore
SplineSet
422 428 m 0x7e
 426 428 431 422 431 416 c 0
 431 406 418 384 399 366 c 2
 135 114 l 2
 127 106 125 96 130 96 c 0
 180 96 238 18 284 18 c 0
 329 18 337 69 337 98 c 0
 337 114 335 116 335 129 c 0
 335 141 335 143 348 143 c 0
 362 143 381 124 381 92 c 0
 381 31 290 -34 250 -34 c 0xbe
 172 -34 131 52 97 52 c 0
 57 52 34 25 34 -6 c 0
 34 -19 24 -20 19 -20 c 0
 15 -20 6 -7 5 6 c 0
 4 20 10 41 29 59 c 2
 308 320 l 18
 316 328 304 335 285 342 c 0
 265 350 201 376 146 376 c 0
 122 376 97 352 98 332 c 0
 98 322 100 308 108 296 c 0
 113 288 113 284 108 278 c 0
 99 268 73 256 67 256 c 0
 60 256 46 268 46 290 c 0
 46 326 64 348 96 378 c 0
 119 400 169 424 191 424 c 0
 245 424 316 389 347 389 c 0
 367 389 377 396 392 410 c 0
 399 417 412 428 422 428 c 0x7e
EndSplineSet
Validated: 33
Substitution2: "Smallcaps subtable" z.sc
Substitution2: "sups subtable" z.sups
Substitution2: "sinf subtable" z.sinf
Substitution2: "ordn subtable" z.ordn
Substitution2: "subs subtable" z.subs
EndChar

StartChar: braceleft
Encoding: 123 123 1016
Width: 345
VWidth: 0
Flags: W
HStem: -154 27<190.672 270.358> 688 27<431.656 527.851>
LayerCount: 2
Fore
SplineSet
168 279 m 0
 196 270 247 213 227 147 c 16
 209 89 183 42 162 -26 c 16
 140 -99 191 -127 251 -127 c 16
 261 -127 274 -128 271 -139 c 16
 268 -148 258 -154 250 -154 c 8
 162 -154 74 -115 103 -21 c 8
 124 49 150 95 169 157 c 8
 187 215 160 253 116 273 c 8
 112 275 107 276 109 282 c 0
 111 288 116 286 121 288 c 16
 177 308 227 346 245 404 c 16
 264 466 266 512 287 582 c 16
 316 676 428 715 516 715 c 16
 524 715 531 709 528 700 c 8
 525 689 510 688 500 688 c 8
 440 688 371 660 349 587 c 8
 328 519 326 472 308 414 c 8
 288 348 212 300 168 283 c 0
 164 281 166 280 168 279 c 0
EndSplineSet
Substitution2: "sups subtable" braceleft.sups
Substitution2: "sinf subtable" braceleft.sinf
Substitution2: "ordn subtable" braceleft.ordn
Substitution2: "subs subtable" braceleft.subs
EndChar

StartChar: exclamdown
Encoding: 161 161 67
Width: 259
VWidth: 0
Flags: W
HStem: -180 21G<69 101.5> 374 120<240.645 303.158>
VStem: 176 48<151.335 245.884>
LayerCount: 2
Fore
SplineSet
254 374 m 24
 223 374 206 401 216 434 c 24
 226 467 260 494 291 494 c 24
 322 494 338 467 328 434 c 24
 318 401 285 374 254 374 c 24
86 -180 m 0
 52 -180 48 -145 60 -106 c 0
 79 -43 131 87 176 205 c 0
 187 234 206 263 220 263 c 0
 229 263 229 233 224 211 c 0
 200 95 179 -21 152 -108 c 0
 141 -144 117 -180 86 -180 c 0
EndSplineSet
EndChar

StartChar: sterling
Encoding: 163 163 1087
Width: 490
Flags: W
HStem: -36 68<287.032 402.648> -14 21G<11.5 27> 600 29<288.028 361.667>
VStem: 130 88<220.275 299 342 467.617> 395 53<503.28 574.539> 434 43<46.0144 142.884>
LayerCount: 2
Fore
SplineSet
130 341 m 1x74
 130 476 199 629 347 629 c 0
 424 629 448 593 448 547 c 0
 448 520 419 491 406 491 c 0
 389 491 395 507 395 527 c 0x78
 394 560 360 600 326 600 c 0
 261 600 219 504 218 342 c 1
 351 351 l 2
 358 351 367 344 364 337 c 0
 357 324 348 313 333 313 c 1
 216 305 l 1
 206 217 160 123 135 102 c 0
 132 100 132 93 139 93 c 0
 259 93 280 32 377 32 c 0
 407 32 434 57 434 87 c 0
 434 106 422 118 421 138 c 0
 421 147 421 159 430 158 c 0
 459 155 477 133 477 105 c 0
 477 28 405 -36 324 -36 c 0xb4
 257 -36 219 -12 164 26 c 0
 142 42 110 55 100 55 c 0
 94 55 70 32 56 6 c 0
 48 -9 34 -14 20 -14 c 0
 3 -14 -10 0 -10 17 c 0
 -10 37 35 81 86 91 c 0
 92 92 94 97 97 103 c 0
 114 134 126 218 129 299 c 1
 45 293 l 2
 38 293 31 299 31 305 c 0
 31 314 42 330 55 331 c 2
 130 336 l 1
 130 341 l 1x74
EndSplineSet
Validated: 33
EndChar

StartChar: currency
Encoding: 164 164 1076
Width: 447
VWidth: 0
Flags: HW
HStem: 75 50<199.676 334.763> 415 50<277.789 412.324>
LayerCount: 2
Fore
SplineSet
170 434 m 2
 163 445 193 472 208 472 c 0
 211 472 213 471 214 469 c 2
 242 424 l 1
 280 449 324 465 366 465 c 0
 408 465 441 450 463 424 c 1
 520 470 l 2
 523 472 525 473 528 473 c 0
 543 473 557 447 540 433 c 2
 484 388 l 1
 497 355 497 314 484 270 c 0
 471 226 445 185 412 152 c 1
 441 105 l 2
 448 94 419 67 404 67 c 0
 401 67 398 68 397 70 c 2
 369 116 l 1
 331 90 288 75 246 75 c 0
 204 75 171 90 149 116 c 1
 91 70 l 2
 88 68 86 67 83 67 c 0
 68 67 55 94 69 105 c 2
 128 152 l 1
 115 185 114 226 127 270 c 0
 140 314 166 355 199 387 c 1
 170 434 l 2
350 415 m 24
 277 415 198 349 174 270 c 24
 150 191 189 125 262 125 c 24
 335 125 414 191 438 270 c 24
 462 349 423 415 350 415 c 24
EndSplineSet
EndChar

StartChar: copyright
Encoding: 169 169 1032
Width: 665
Flags: HW
HStem: 24 34<254.755 435.66> 154 30<323.151 438.802> 464 30<316.949 426.916> 590 40<249.31 442.69>
VStem: 43 40<229.687 423.69> 188 70<247.385 404.16> 456 22<398.081 431.632> 609 40<229.48 423.69>
LayerCount: 2
Fore
SplineSet
346 590 m 0
 201 590 83 472 83 327 c 0
 83 181 199 58 345 58 c 0
 492 58 609 180 609 327 c 0
 609 472 491 590 346 590 c 0
346 630 m 0
 513 630 649 494 649 327 c 0
 649 160 512 24 345 24 c 0
 178 24 43 160 43 327 c 0
 43 494 179 630 346 630 c 0
462 225 m 0
 467 235 475 240 479 240 c 0
 483 240 484 236 484 227 c 0
 484 214 471 184 464 176 c 0
 446 158 402 154 359 154 c 0
 264 154 188 239 188 328 c 0
 188 427 281 494 380 494 c 0
 396 494 424 490 433 488 c 1
 441 485 462 481 471 478 c 0
 474 477 476 470 477 464 c 0
 479 448 480 431 478 409 c 0
 478 405 473 397 468 398 c 1
 462 398 459 405 456 413 c 0
 446 441 417 464 371 464 c 0
 303 464 258 404 258 331 c 0
 258 258 298 184 376 184 c 0
 413 184 446 193 462 225 c 0
EndSplineSet
EndChar

StartChar: guillemotleft
Encoding: 171 171 117
Width: 657
VWidth: 0
Flags: HW
LayerCount: 2
Back
SplineSet
454 217 m 4
 445 211 444 209 450 203 c 4
 481 169 515 125 541 40 c 4
 544 30 536 19 529 19 c 4
 528 19 528 19 527 19 c 4
 517 22 511 31 507 37 c 4
 463 104 408 155 361 182 c 4
 351 188 349 213 358 218 c 4
 472 279 534 316 618 382 c 4
 625 388 637 397 649 400 c 4
 651 400 l 4
 657 400 653 386 644 376 c 4
 566 291 505 251 454 217 c 4
257 217 m 4
 248 211 247 209 253 203 c 4
 284 169 318 125 344 40 c 4
 347 30 339 19 332 19 c 4
 331 19 331 19 330 19 c 4
 320 22 314 31 310 37 c 4
 266 104 210 155 163 182 c 4
 153 188 151 213 160 218 c 4
 274 279 337 316 421 382 c 4
 428 388 440 397 452 400 c 4
 454 400 l 4
 460 400 456 386 447 376 c 4
 369 291 308 251 257 217 c 4
EndSplineSet
Fore
Refer: 119 8249 N 1 0 0 1 165 0 2
Refer: 119 8249 N 1 0 0 1 -33 0 2
EndChar

StartChar: uni00AD
Encoding: 173 173 120
Width: 253
VWidth: 0
Flags: W
HStem: 170 85
VStem: 80 223
LayerCount: 2
Fore
SplineSet
88 170 m 0
 87 170 85 170 84 170 c 0
 79 170 79 172 80 176 c 8
 89 198 102 229 112 230 c 0
 174 239 236 248 298 255 c 0
 302 255 304 253 303 249 c 0
 293 224 282 197 267 195 c 0
 208 186 150 177 88 170 c 0
EndSplineSet
EndChar

StartChar: degree
Encoding: 176 176 984
Width: 290
Flags: W
HStem: 402 47<94.5795 195.421> 597 48<93.9511 196.049>
VStem: 25 47<472.049 574.328> 218 47<472.049 574.328>
LayerCount: 2
Fore
SplineSet
145 645 m 0
 208 645 265 592 265 528 c 0
 265 464 208 402 145 402 c 0
 82 402 25 464 25 528 c 0
 25 592 82 645 145 645 c 0
72 523 m 0
 72 483 105 449 145 449 c 0
 185 449 218 483 218 523 c 0
 218 564 185 597 145 597 c 0
 105 597 72 564 72 523 c 0
EndSplineSet
EndChar

StartChar: uni00B2
Encoding: 178 178 575
Width: 278
VWidth: 0
Flags: W
HStem: 440 52<245.777 372.363> 716 54<299.893 391.5>
LayerCount: 2
Fore
SplineSet
246 678 m 1
 238 668 230 672 233 683 c 0
 239 703 303 770 368 770 c 0
 415 770 440 728 424 677 c 16
 414 643 391 623 368 598 c 0
 337 565 255 506 246 498 c 0
 241 494 251 492 255 492 c 0
 262 492 267 492 272 492 c 0
 283 492 294 492 319 492 c 0
 347 492 380 512 403 542 c 0
 406 547 415 551 420 550 c 24
 424 550 422 544 420 541 c 0
 397 505 382 481 367 450 c 0
 362 439 357 437 354 437 c 0
 353 437 353 437 352 437 c 0
 305 440 305 440 274 440 c 24
 229 440 207 440 159 438 c 0
 154 437 155 447 164 454 c 2
 213 494 l 2
 233 510 344 588 364 651 c 0
 377 689 360 716 331 716 c 0
 298 716 281 708 246 678 c 1
EndSplineSet
EndChar

StartChar: uni00B5
Encoding: 181 181 1075
Width: 587
VWidth: 0
Flags: W
HStem: -286 21G<36.5 60.5> -14 62<161.588 279.073> -12 74<452.626 535.88> 396 20G<161.5 197.5 475 498.5>
VStem: -3 56<-252.5 -48.8333> 85 58<74.616 209.464> 421 96<301.986 375.41>
LayerCount: 2
Fore
SplineSet
397 90 m 0xbe
 396 96 386 117 383 112 c 0
 347 38 291 -14 241 -14 c 0
 193 -14 155 4 129 36 c 0
 121 45 110 66 105 60 c 0
 83 32 53 -20 53 -80 c 0
 53 -158 77 -186 83 -250 c 0
 85 -269 70 -286 51 -286 c 0
 22 -286 -3 -269 -3 -236 c 0
 -3 -116 21 -12 59 66 c 0
 72 93 85 113 85 132 c 0
 85 216 105 289 116 330 c 0
 127 370 140 416 183 416 c 0
 212 416 220 382 218 354 c 0
 215 312 143 184 143 130 c 0
 143 93 154 50 191 48 c 0xde
 253 45 294 72 333 120 c 0
 389 189 395 254 421 330 c 0
 434 369 463 414 487 414 c 0
 510 414 517 387 517 364 c 0
 517 328 479 270 441 212 c 0
 431 197 427 181 427 166 c 0
 427 123 449 62 492 62 c 0
 523 62 548 80 566 106 c 0
 572 115 574 115 585 115 c 0
 592 115 592 83 587 74 c 0
 563 30 529 -12 477 -12 c 0
 424 -12 407 42 397 90 c 0xbe
EndSplineSet
EndChar

StartChar: periodcentered
Encoding: 183 183 113
Width: 184
VWidth: 0
Flags: W
HStem: 150 110<125.26 184.74>
VStem: 104 102<171.203 238.797>
LayerCount: 2
Fore
SplineSet
172 260 m 24
 200 260 215 235 206 205 c 24
 197 175 166 150 138 150 c 24
 110 150 95 175 104 205 c 24
 113 235 144 260 172 260 c 24
EndSplineSet
EndChar

StartChar: uni00B9
Encoding: 185 185 577
Width: 276
VWidth: 0
Flags: W
HStem: 439 25<193.04 247.658 321.554 364.903>
LayerCount: 2
Fore
SplineSet
397 782 m 0
 400 783 402 784 404 784 c 0
 410 784 411 778 408 770 c 0
 402 757 395 738 388 716 c 0
 374 671 356 616 348 589 c 0
 339 559 332 534 325 510 c 0
 315 471 318 470 357 464 c 0
 364 463 367 457 365 451 c 0
 363 445 357 439 350 439 c 0
 297 439 305 444 275 444 c 24
 245 444 247 439 197 439 c 0
 186 439 188 463 205 464 c 0
 230 466 256 469 269 510 c 2
 316 663 l 2
 324 690 294 704 280 710 c 0
 265 716 278 736 287 737 c 0
 336 742 384 776 397 782 c 0
EndSplineSet
Validated: 33
EndChar

StartChar: ordmasculine
Encoding: 186 186 578
Width: 270
VWidth: 0
Flags: W
HStem: 161 35<77.9653 300.077> 268 31<202.212 266.954> 491 33<241.15 309.604>
LayerCount: 2
Fore
SplineSet
102 196 m 26
 296 196 l 26
 302 196 308 189 303 182 c 24
 293 169 283 161 270 161 c 26
 83 161 l 26
 77 161 73 167 75 173 c 0
 78 182 91 196 102 196 c 26
280 491 m 0
 241 491 213 448 199 402 c 0
 182 347 193 299 231 299 c 0
 269 299 297 341 312 389 c 0
 328 441 319 491 280 491 c 0
299 524 m 0
 356 524 391 469 371 404 c 0
 350 334 289 268 211 268 c 0
 153 268 118 316 140 388 c 0
 163 462 235 524 299 524 c 0
EndSplineSet
EndChar

StartChar: guillemotright
Encoding: 187 187 116
Width: 651
VWidth: 0
Flags: HW
LayerCount: 2
Back
SplineSet
303 217 m 4
 272 251 237 291 211 376 c 4
 208 386 211 400 218 400 c 4
 220 400 l 4
 230 397 235 388 240 382 c 4
 284 316 324 279 400 218 c 4
 406 213 389 188 375 182 c 4
 312 155 225 104 140 37 c 4
 132 31 121 22 109 19 c 4
 108 19 108 19 107 19 c 4
 100 19 99 30 108 40 c 4
 186 125 248 169 299 203 c 4
 308 209 309 211 303 217 c 4
501 217 m 4
 470 251 434 291 408 376 c 4
 405 386 409 400 416 400 c 4
 417 400 l 4
 427 397 432 388 437 382 c 4
 481 316 522 279 598 218 c 4
 604 213 587 188 573 182 c 4
 510 155 423 104 338 37 c 4
 330 31 318 22 306 19 c 4
 305 19 305 19 304 19 c 4
 297 19 296 30 305 40 c 4
 383 125 445 169 496 203 c 4
 505 209 507 211 501 217 c 4
EndSplineSet
Fore
Refer: 118 8250 N 1 0 0 1 142 0 2
Refer: 118 8250 N 1 0 0 1 -55 0 2
EndChar

StartChar: onequarter
Encoding: 188 188 1072
Width: 595
VWidth: 0
Flags: W
HStem: -10 21G<476.5 481> 101 47<427 494.854> 107 41<427 504.041 570 621.65> 283 25<130.484 184.952 258.147 299.422> 608 20G<340 344> 635 20G<723 734.5>
LayerCount: 2
Fore
SplineSet
108 -11 m 26x9c
 690 638 l 26
 703 652 715 655 731 655 c 24
 738 655 744 645 738 638 c 26
 157 -11 l 26
 146 -24 133 -26 119 -26 c 24
 111 -26 101 -18 108 -11 c 26x9c
511 148 m 2xbc
 514 148 519 150 520 153 c 2
 554 264 l 2
 555 266 551 267 549 265 c 24
 501 223 466 190 428 153 c 0
 426 151 425 148 427 148 c 2xdc
 511 148 l 2xbc
575 108 m 0
 569 108 554 107 553 103 c 2
 528 19 l 2
 523 4 483 -10 479 -10 c 0
 474 -10 471 -8 473 -2 c 2
 504 100 l 2
 505 104 498 105 497 105 c 0
 451 105 419 102 360 101 c 0xdc
 356 101 355 107 357 109 c 0
 414 165 471 219 529 273 c 0
 545 288 574 313 603 338 c 24
 609 343 616 349 620 350 c 0
 624 351 626 345 625 342 c 0
 617 316 589 225 568 151 c 24
 567 149 568 147 570 147 c 16
 576 147 581 147 586 147 c 0
 599 147 610 147 625 148 c 0
 628 148 631 146 629 142 c 24
 623 128 611 107 607 107 c 0xbc
 597 107 585 108 575 108 c 0
334 626 m 0
 337 627 339 628 341 628 c 0
 347 628 348 622 345 614 c 0
 339 600 330 576 320 544 c 0
 306 500 294 463 285 433 c 0
 276 403 269 378 262 354 c 0
 251 315 255 314 294 308 c 0
 309 306 302 283 287 283 c 0
 234 283 242 288 212 288 c 24
 182 288 184 283 134 283 c 0
 123 283 126 307 142 308 c 0
 168 310 193 313 206 354 c 2
 253 507 l 2
 261 534 231 548 217 554 c 0
 202 560 215 580 224 581 c 0
 273 586 321 620 334 626 c 0
EndSplineSet
EndChar

StartChar: onehalf
Encoding: 189 189 1074
Width: 648
VWidth: 0
Flags: W
HStem: -6 52<481.777 607.662> 270 54<535.893 627.5> 283 25<130.484 184.952 258.147 299.422> 608 20G<340 344> 635 20G<723 734.5>
LayerCount: 2
Fore
SplineSet
482 232 m 1xd8
 474 222 466 226 469 237 c 0
 475 257 539 324 604 324 c 0
 651 324 676 282 660 231 c 16
 650 197 628 177 605 152 c 0
 574 119 491 60 482 52 c 0
 477 48 487 46 491 46 c 0
 498 46 503 46 508 46 c 0
 519 46 530 46 555 46 c 0
 583 46 617 66 640 96 c 0
 643 101 651 105 656 104 c 24
 660 104 658 98 656 95 c 0
 633 59 618 35 603 4 c 0
 597 -10 591 -10 588 -9 c 0
 541 -6 542 -6 511 -6 c 24
 466 -6 444 -6 396 -8 c 0
 391 -9 392 1 401 8 c 2
 449 48 l 2
 469 64 580 142 600 205 c 0
 613 243 596 270 567 270 c 0
 534 270 517 262 482 232 c 1xd8
108 -11 m 26
 690 638 l 26
 703 652 715 655 731 655 c 24
 738 655 744 645 738 638 c 26
 157 -11 l 26
 146 -24 133 -26 119 -26 c 24
 111 -26 101 -18 108 -11 c 26
334 626 m 0
 337 627 339 628 341 628 c 0
 347 628 348 622 345 614 c 0
 339 600 330 576 320 544 c 0
 306 500 294 463 285 433 c 0
 276 403 269 378 262 354 c 0
 251 315 255 314 294 308 c 0
 309 306 302 283 287 283 c 0
 234 283 242 288 212 288 c 24
 182 288 184 283 134 283 c 0
 123 283 126 307 142 308 c 0xb8
 168 310 193 313 206 354 c 2
 253 507 l 2
 261 534 231 548 217 554 c 0
 202 560 215 580 224 581 c 0
 273 586 321 620 334 626 c 0
EndSplineSet
EndChar

StartChar: threequarters
Encoding: 190 190 1073
Width: 594
VWidth: 0
Flags: HW
HStem: -10 21G<476.5 481> 101 47<426 494.854> 107 41<426 504.041 569 621.398> 274 34<184.213 258.145> 450 11<224.448 232.16> 585 47<280.741 348.046> 635 20G<723 734.5>
LayerCount: 2
Fore
SplineSet
195 274 m 0x9e
 167 274 133 278 142 307 c 0
 144 315 159 335 167 335 c 0
 173 335 177 332 178 330 c 0
 187 322 206 308 234 308 c 0
 246 308 293 323 311 381 c 8
 323 420 307 457 272 457 c 0
 263 457 246 453 235 450 c 0
 229 448 219 456 225 461 c 24
 244 476 264 477 279 486 c 0
 313 506 339 516 349 548 c 16
 356 569 333 585 316 585 c 0
 295 585 269 575 240 555 c 0
 236 552 232 548 229 549 c 24
 226 551 224 556 227 560 c 0
 251 591 296 632 345 632 c 1
 392 631 421 612 405 561 c 0
 397 536 368 512 329 494 c 0
 325 492 324 489 328 489 c 8
 368 487 378 445 365 401 c 16
 340 320 244 274 195 274 c 0x9e
108 -11 m 26
 690 638 l 26
 703 652 715 655 731 655 c 24
 738 655 744 645 738 638 c 26
 156 -11 l 26
 145 -24 132 -26 118 -26 c 24
 110 -26 101 -18 108 -11 c 26
511 148 m 2xbe
 514 148 519 150 520 153 c 2
 554 264 l 2
 555 266 551 267 549 265 c 24
 501 223 466 190 428 153 c 0
 426 151 424 148 426 148 c 2xde
 511 148 l 2xbe
575 108 m 0
 569 108 554 107 553 103 c 2
 527 19 l 2
 522 4 483 -10 479 -10 c 0
 474 -10 471 -8 473 -2 c 2
 504 100 l 2
 505 104 498 105 497 105 c 0
 451 105 419 102 360 101 c 0xde
 356 101 355 107 357 109 c 0
 414 165 471 219 529 273 c 0
 545 288 574 313 603 338 c 24
 609 343 616 349 620 350 c 0
 621 350 l 0
 624 350 625 345 624 342 c 0
 616 316 589 225 568 151 c 24
 567 149 567 147 569 147 c 16
 575 147 581 147 586 147 c 0
 599 147 610 147 625 148 c 0
 628 148 631 146 629 142 c 24
 623 128 610 107 606 107 c 0xbe
 596 107 585 108 575 108 c 0
EndSplineSet
EndChar

StartChar: AE
Encoding: 198 198 1000
Width: 805
VWidth: 0
Flags: HW
HStem: -5 33<0.425468 69.51 196.407 251.899 329.356 416.755> 1 34<532.791 737.63> 285 43<389.109 503.385 601.898 729.281> 598 53<581.891 598.859> 618 35<691.522 886.561> 626 25<469.337 506.4>
VStem: 732 28<223.012 278.812> 900 23<532.562 588.262>
AnchorPoint: "top_accent" 540 700 basechar 0
LayerCount: 2
Fore
SplineSet
140 1 m 0x63
 98 1 52 -5 21 -5 c 0
 5 -5 -5 -2 -3 6 c 0
 0 15 12 21 35 28 c 0
 70 38 120 78 161 126 c 2
 558 594 l 2
 565 602 560 610 548 611 c 1
 470 626 l 1
 456 632 469 651 478 651 c 16xa7
 517 651 577 648 640 648 c 16
 744 648 882 653 921 653 c 0
 924 653 927 653 929 653 c 0
 936 653 944 651 943 644 c 0
 938 606 933 576 923 541 c 0
 921 535 913 532 907 532 c 0
 900 532 900 535 900 542 c 0
 900 564 898 581 893 591 c 0
 882 612 862 618 839 618 c 2
 717 618 l 2
 707 618 692 604 686 592 c 0
 656 534 625 426 603 354 c 0
 600 343 597 332 606 332 c 0
 645 332 680 333 703 334 c 0
 721 335 733 336 748 347 c 0
 759 355 763 359 771 371 c 0
 774 376 788 388 793 388 c 0
 798 388 804 381 800 372 c 0
 779 320 773 291 760 240 c 0
 757 231 753 223 746 223 c 8
 734 223 732 239 732 246 c 0
 732 277 715 284 700 285 c 0
 662 287 639 287 605 287 c 0
 592 287 579 279 575 262 c 1
 556 201 548 170 532 113 c 0
 520 72 525 35 567 35 c 2
 664 35 l 2x6b
 669 35 725 43 740 53 c 0
 761 67 785 99 798 116 c 0
 804 124 807 126 814 126 c 24
 820 125 826 121 823 114 c 0
 807 75 793 44 776 12 c 0
 772 4 766 -5 757 -5 c 0xa3
 648 -5 564 1 477 1 c 0
 471 1 464 1 458 1 c 8x63
 416 1 399 -5 349 -5 c 0xa3
 333 -5 324 -2 326 6 c 0
 329 15 339 20 362 24 c 0
 411 33 440 51 454 99 c 0
 470 154 491 224 504 267 c 0
 507 277 508 285 489 285 c 2
 358 285 l 10
 344 285 333 275 323 262 c 0
 285 218 250 174 201 112 c 0
 158 58 196 39 228 30 c 0
 248 24 255 19 252 10 c 0
 250 2 238 -1 222 -1 c 0
 205 -1 174 1 140 1 c 0x63
585 581 m 2
 386 343 l 2
 375 330 376 328 392 328 c 2
 508 328 l 2
 522 328 522 328 527 343 c 2
 600 580 l 2
 604 592 605 598 602 598 c 0x33
 599 598 594 592 585 581 c 2
EndSplineSet
Substitution2: "c2sc subtable" AE.sc
EndChar

StartChar: multiply
Encoding: 215 215 1024
Width: 600
Flags: HW
LayerCount: 2
Fore
SplineSet
290 299 m 2
 295 294 295 296 297 298 c 2
 441 441 l 2
 443 444 447 446 451 446 c 0
 455 446 458 444 460 441 c 0
 470 422 486 401 470 386 c 2
 339 255 l 2
 337 253 337 252 339 250 c 2
 482 107 l 2
 497 92 472 62 465 56 c 0
 463 54 460 53 457 53 c 0
 453 53 450 54 447 57 c 2
 298 207 l 2
 296 209 293 209 291 207 c 2
 148 64 l 2
 143 59 134 59 130 63 c 0
 124 69 98 99 113 114 c 2
 247 248 l 2
 251 252 250 254 246 258 c 2
 125 379 l 2
 110 394 132 429 136 434 c 0
 141 439 150 439 155 434 c 2
 290 299 l 2
EndSplineSet
Substitution2: "Smallcaps subtable" multiply.sc
EndChar

StartChar: Thorn
Encoding: 222 222 1005
Width: 614
VWidth: 0
Flags: W
HStem: -5 29<5.84375 87.4897 224.325 286.641> 126 26<269.021 349.879> 502 27<343.047 424.368> 622 31<210.501 270.933 389.79 472.556>
VStem: 507 83<266.468 427.574>
AnchorPoint: "top_accent" 359 710 basechar 0
AnchorPoint: "below_accent" 130 -100 basechar 0
AnchorPoint: "ogonek" 173 18 basechar 0
LayerCount: 2
Back
SplineSet
279 134 m 0
 267 134 257 137 248 137 c 0
 245 137 241 134 239 128 c 0
 237 121 232 109 228 96 c 0
 215 54 235 33 279 24 c 0
 299 20 308 15 305 6 c 0
 303 -2 290 -5 274 -5 c 0
 224 -5 209 0 167 0 c 24
 120 0 95 -5 45 -5 c 0
 29 -5 20 -2 22 6 c 0
 25 15 35 20 58 24 c 0
 107 33 139 51 154 99 c 2
 292 549 l 2
 304 588 305 613 261 622 c 0
 241 626 234 633 237 642 c 0
 239 650 251 653 267 653 c 0
 317 653 325 650 363 650 c 24
 406 650 424 653 474 653 c 0
 490 653 500 650 498 642 c 0
 495 633 484 626 461 622 c 0
 412 613 381 597 366 549 c 0
 366 548 366 546 365 544 c 0
 362 533 356 514 365 514 c 0
 366 514 367 514 368 514 c 0
 388 520 428 524 453 524 c 0
 554 524 621 457 585 339 c 0
 571 294 516 220 465 186 c 0
 412 151 330 134 279 134 c 0
271 165 m 0
 279 164 288 163 296 163 c 0
 333 163 370 174 394 189 c 8
 453 227 481 280 499 338 c 0
 523 415 498 491 428 491 c 0
 408 491 372 489 360 483 c 1
 352 480 344 472 340 462 c 0
 307 359 285 287 254 183 c 0
 252 175 264 166 271 165 c 0
EndSplineSet
Fore
SplineSet
212 99 m 2
 198 52 218 33 262 24 c 0
 282 20 287 15 287 6 c 0
 287 -2 273 -5 257 -5 c 0
 207 -5 191 0 149 0 c 24
 102 0 79 -5 29 -5 c 0
 13 -5 5 -2 5 6 c 0
 5 15 18 20 41 24 c 0
 90 33 123 51 137 98 c 2
 275 550 l 2
 289 597 278 613 234 622 c 0
 214 626 210 633 210 642 c 0
 210 650 224 653 240 653 c 0
 290 653 306 650 348 650 c 24
 388 650 400 653 450 653 c 0
 466 653 474 650 474 642 c 0
 474 633 460 626 437 622 c 0
 388 613 363 597 349 550 c 2
 343 530 l 2
 341 523 341 520 344 521 c 0
 350 524 366 529 378 529 c 0
 485 529 590 467 590 356 c 8
 590 215 452 126 311 126 c 16
 298 126 269 128 269 139 c 0
 269 147 280 151 287 152 c 0
 416 166 507 229 507 343 c 8
 507 425 452 502 370 502 c 16
 335 502 331 490 322 460 c 2
 212 99 l 2
EndSplineSet
Substitution2: "c2sc subtable" Thorn.sc
EndChar

StartChar: germandbls
Encoding: 223 223 21
Width: 484
VWidth: 0
Flags: W
HStem: -288 47<-95.5868 -10.4255> -14 48<278.789 353.717> 670 36<406.886 526.555>
VStem: 318 74<244.998 358.073> 387 69<73.7637 164.752> 553 76<559.547 648.31>
LayerCount: 2
Fore
SplineSet
422 443 m 0xf4
 454 472 553 535 553 591 c 0
 553 629 535 670 468 670 c 0
 352 670 271 519 230 406 c 0
 189 294 151 141 126 0 c 0
 105 -118 39 -288 -77 -288 c 0
 -127 -288 -168 -277 -168 -238 c 0
 -168 -214 -149 -194 -129 -194 c 0
 -109 -194 -95 -241 -45 -241 c 0
 -2 -241 12 -206 29 -124 c 0
 37 -85 69 69 80 118 c 0
 103 223 127 324 165 414 c 0
 250 616 359 706 517 706 c 0
 579 706 629 665 629 609 c 0
 629 543 502 476 478 456 c 2
 440 423 l 2
 416 402 392 378 392 317 c 0xf4
 392 300 411 249 422 227 c 0
 439 192 456 163 456 133 c 0
 456 83 413 49 391 32 c 0
 361 9 322 -13 279 -14 c 0
 252 -15 212 -13 212 25 c 0
 212 47 234 69 255 69 c 0
 268 69 273 64 284 49 c 0
 293 38 304 34 319 34 c 0
 353 34 387 64 387 96 c 0xec
 387 120 371 154 354 188 c 0
 339 218 318 266 318 292 c 0
 318 353 364 392 422 443 c 0xf4
EndSplineSet
Substitution2: "Smallcaps subtable" germandbls.sc
EndChar

StartChar: ae
Encoding: 230 230 1010
Width: 472
VWidth: 0
Flags: HW
HStem: -12 58<55.126 145.89 270.893 348.168> 253 66<168.907 210.897> 365 49<287.229 345.624>
VStem: 24 65<46.6175 130.754> 211 45<121.243 191.105 208.003 252.992> 349 49<271.207 363.866>
AnchorPoint: "top_accent" 298 550 basechar 0
LayerCount: 2
Back
Fore
SplineSet
319 365 m 0
 282 365 256 288 256 218 c 0
 256 212 260 208 266 208 c 0
 282 208 349 259 349 319 c 0
 349 346 341 365 319 365 c 0
190 253 m 0
 150 253 89 164 89 90 c 8
 89 70.8145 92 46 111 46 c 0
 173 46 211 148.327 211 230 c 16
 211 242 210 253 190 253 c 0
206 319 m 0
 211 319 217 317 218 312 c 0
 219 308 221 311 222 315 c 0
 236 361 281.329 414 342 414 c 16
 378 414 398 380 398 344 c 8
 398 263.955 337 222 267 186 c 0
 257 181 256 175 256 164 c 0
 256 97 259 46 317 46 c 0
 346 46 368 62 380 80 c 0
 390 94 393 106 398 106 c 0
 403 106 404 97 404 92 c 0
 404 45 345 -9 289 -9 c 0
 254 -9 214 9 202 77 c 0
 201 81 198 86 194 76 c 0
 173 21 133 -12 72 -12 c 8
 38.252 -12 24 26.252 24 60 c 16
 24 140 163 319 206 319 c 0
EndSplineSet
Substitution2: "Smallcaps subtable" ae.sc
Ligature2: "LATliga subtable" a e
LCarets2: 1 195 
EndChar

StartChar: eth
Encoding: 240 240 1028
Width: 424
VWidth: 0
Flags: W
HStem: -14 30<185.157 266.198> 380 34<267.136 373.055> 678 27<269.146 313.77>
LayerCount: 2
Fore
SplineSet
319 380 m 0
 246 380 185 293 160 210 c 0
 130 111 156 16 224 16 c 0
 292 16 366 130 393 219 c 0
 424 322 388 380 319 380 c 0
472 250 m 0
 436 133 326 -14 196 -14 c 0
 99 -14 42 66 79 186 c 0
 117 310 237 414 343 414 c 0
 371 414 396 406 416 391 c 0
 423 387 425 390 426 400 c 0
 430 459 429 516 414 552 c 1
 257 472 l 2
 249 468 250 490 253 494 c 0
 259 501 257 511 265 515 c 2
 399 584 l 1
 367 636 321 667 281 678 c 0
 275 680 266 686 269 696 c 0
 272 705 282 705 294 705 c 0
 347 705 409 671 454 612 c 1
 559 665 l 2
 568 670 581 674 580 664 c 0
 577 646 568 630 552 622 c 2
 474 583 l 1
 505 522 526 427 472 250 c 0
EndSplineSet
Validated: 33
Substitution2: "Smallcaps subtable" eth.sc
EndChar

StartChar: divide
Encoding: 247 247 1023
Width: 590
Flags: W
HStem: 69 92<256.347 333.653> 232 50<53.1042 534.648> 353 92<255.394 332.653>
VStem: 249 92<76.3474 153.653 360.963 437.301>
CounterMasks: 1 e0
LayerCount: 2
Fore
SplineSet
295 161 m 0
 320 161 341 140 341 115 c 0
 341 90 320 69 295 69 c 0
 270 69 249 90 249 115 c 0
 249 140 270 161 295 161 c 0
295 445 m 0
 320 445 340 424 340 399 c 0
 340 374 319 353 294 353 c 0
 269 353 248 374 248 399 c 0
 248 425 269 445 295 445 c 0
64 232 m 2
 57 232 50 238 50 244 c 0
 50 253 56 282 74 282 c 2
 527 282 l 2
 534 282 543 275 540 268 c 0
 534 251 528 232 509 232 c 2
 64 232 l 2
EndSplineSet
Substitution2: "Smallcaps subtable" divide.sc
EndChar

StartChar: oslash
Encoding: 248 248 1008
Width: 400
Flags: W
HStem: -14 30<109.072 188.736> 384 30<246.264 312.851>
VStem: 45 64<58.9353 194.315> 326 64<205.685 334.474>
AnchorPoint: "top_accent" 322 550 basechar 0
AnchorPoint: "below_accent" 137 -100 basechar 0
AnchorPoint: "ogonek" 228 18 basechar 0
LayerCount: 2
Back
SplineSet
319 380 m 0
 288 380 256 364 232 340 c 0
 200 307 179 258 164 210 c 0
 154 177 149 145 151 117 c 1
 389 316 l 1
 379 354 357 380 319 380 c 0
101 34 m 1
 45 -12 l 2
 43 -14 40 -15 38 -15 c 0
 30 -15 23 -5 22 -1 c 0
 21 7 29 18 38 25 c 2
 85 63 l 1
 71 99 70 142 83 186 c 0
 121 310 237 414 343 414 c 0
 386 414 421 394 443 361 c 1
 505 411 l 2
 508 414 511 415 515 415 c 0
 520 415 525 412 525 407 c 0
 525 398 518 383 506 374 c 2
 458 335 l 1
 471 300 474 258 460 213 c 0
 424 96 326 -14 196 -14 c 0
 155 -14 122 5 101 34 c 1
393 281 m 1
 156 79 l 1
 165 41 188 16 223 16 c 0
 262 16 299 33 328 72 c 0
 351 103 368 150 380 189 c 0
 390 221 394 252 393 281 c 1
EndSplineSet
Fore
SplineSet
326 304 m 0
 326 354 317 384 283 384 c 0
 203 384 109 189 109 96 c 0
 109 46 118 16 152 16 c 0
 232 16 326 211 326 304 c 0
390 296 m 0
 390 176 290 -14 140 -14 c 0
 100 -14 45 28 45 104 c 0
 45 224 145 414 295 414 c 0
 335 414 390 372 390 296 c 0
70 -23 m 2
 66 -29 62 -31 57 -31 c 0
 49 -31 45 -15 45 -5 c 0
 45 5 54 16 61 25 c 2
 368 420 l 2
 372 426 378 432 384 432 c 0
 390 432 390 407 390 400 c 0
 390 391 380 377 371 365 c 2
 70 -23 l 2
EndSplineSet
Validated: 5
Substitution2: "Smallcaps subtable" oslash.sc
EndChar

StartChar: thorn
Encoding: 254 254 1004
Width: 445
Flags: W
HStem: -286 29<-119.973 -53.2755> -272 26<34.6826 94.6987> -14 34<133.112 205.837> 376 8<210 269>
VStem: 335 73<186.917 353.397>
LayerCount: 2
Back
SplineSet
152 -14 m 0
 127 -14 116 2 111 2 c 0
 101 2 95 -15 92 -24 c 2
 34 -208 l 2
 29 -223 28 -242 66 -246 c 0
 79 -247 96 -251 96 -261 c 0
 96 -269 82 -272 67 -272 c 0
 1 -272 -73 -281 -101 -286 c 0
 -108 -287 -121 -285 -121 -277 c 0
 -121 -267 -103 -259 -91 -257 c 0
 -63 -253 -46.9189 -246.028 -39 -220 c 2
 198 559 l 2
 204.998 582.001 216 620 211 633 c 0
 207 645 155 651 155 660 c 0
 155 665 157 669 161 671 c 0
 191 686 266 707 282 707 c 0
 288 707 298 707 298 697 c 0
 298 686 298 683 295 674 c 2
 295 674 214 410 164 250 c 0
 158 231 167 238 178 251 c 0
 251 341 331 413 390 413 c 4
 426 413 452 378 452 321 c 0
 452 208 316 -14 152 -14 c 0
357 371 m 0
 330 371 250 306 191 234 c 0
 151 185 120 121 120 91 c 0
 120 49 139 32 173 32 c 0
 202 32 257 76 299 132 c 0
 350 199 386 281 386 308 c 0
 386 333 384 371 357 371 c 0
EndSplineSet
Fore
SplineSet
212 404 m 2xb8
 209 394 204 384 210 384 c 0
 215 384 251 414 298 414 c 0
 353 414 408 368 408 282 c 0
 408 138 249 -14 151 -14 c 0
 126 -14 115 2 110 2 c 0
 100 2 94 -15 91 -24 c 2
 33 -208 l 2
 28 -223 27 -242 65 -246 c 0
 78 -247 95 -251 95 -261 c 0
 95 -269 81 -272 66 -272 c 0x78
 0 -272 -74 -281 -102 -286 c 0
 -109 -287 -122 -285 -122 -277 c 0
 -122 -267 -104 -259 -92 -257 c 0
 -64 -253 -48 -246 -40 -220 c 2
 198 559 l 2
 205 582 216 620 211 633 c 0
 207 645 155 651 155 660 c 0
 155 665 157 669 161 671 c 0
 191 686 266 707 282 707 c 0
 288 707 298 707 298 697 c 0
 298 686 298 683 295 674 c 2
 212 404 l 2xb8
335 282 m 0
 335 330 311 376 269 376 c 0
 246 376 220 359 210 349 c 0
 203 342 193 328 191 318 c 2
 136 117 l 2
 126 80 125 71 125 57 c 0
 125 37 147 20 170 20 c 0
 209 20 335 137 335 282 c 0
EndSplineSet
Substitution2: "Smallcaps subtable" thorn.sc
EndChar

StartChar: Aogonek
Encoding: 260 260 183
Width: 772
VWidth: 0
Flags: W
HStem: -286 64<476.852 522.466> -5 36<17.8519 96.2793 218.75 264.899 429.027 521.115 647.592 701.899>
VStem: 390 82<-217.944 -137.026>
AnchorPoint: "top_accent" 792 710 basechar 0
AnchorPoint: "cedilla" 124 8 basechar 0
LayerCount: 2
Fore
SplineSet
453 -286 m 0
 424 -287 390 -250 390 -216 c 0
 390 -110 498 -32 585 18 c 1
 612 18 l 17
 537 -34 472 -92 472 -179 c 0
 472 -197 483 -222 509 -222 c 0
 530 -222 561 -197 573 -183 c 0
 576 -179 600 -160 600 -181 c 0
 600 -184 593 -197 590 -201 c 0
 555 -248 508 -285 453 -286 c 0
EndSplineSet
Refer: 31 65 N 1 0 0 1 0 0 3
Substitution2: "c2sc subtable" Aogonek.sc
EndChar

StartChar: Dcroat
Encoding: 272 272 994
Width: 754
VWidth: 0
Flags: W
HStem: -7 35<192.833 439.529> -5 29<20.7629 111.218> 317 36<145.149 462.674> 618 33<187.538 282.055 395.293 554.01>
VStem: 697 86<273.574 501.999>
LayerCount: 2
Fore
SplineSet
173 353 m 26x38
 459 353 l 26
 466 353 471 346 466 339 c 24
 456 326 445 317 431 317 c 26
 153 317 l 26
 145 317 143 329 145 335 c 0
 148 344 162 353 173 353 c 26x38
EndSplineSet
Refer: 43 68 N 1 0 0 1 0 0 2
Substitution2: "c2sc subtable" Dcroat.sc
EndChar

StartChar: dcroat
Encoding: 273 273 996
Width: 480
VWidth: 0
Flags: W
HStem: -14 32<77.22 158.669> 389 31<296.055 363.976> 535 36<340.148 607.564> 685 20<542 550.5>
VStem: 26 70<18.6526 140.602> 319 194<36 110>
LayerCount: 2
Fore
SplineSet
366 571 m 26
 604 571 l 26
 610 571 616 564 611 557 c 24
 601 544 591 535 578 535 c 26
 346 535 l 26
 338 535 338 547 340 553 c 0
 343 562 356 571 366 571 c 26
EndSplineSet
Refer: 11 100 N 1 0 0 1 0 0 2
Substitution2: "Smallcaps subtable" dcroat.sc
EndChar

StartChar: Ebreve
Encoding: 276 276 197
Width: 621
VWidth: 0
Flags: W
HStem: -5 35<8.01822 107.75 228.884 496.445> 322 27<307.177 478.603> 388 20<556.5 561.5> 618 32<218.007 283.946 386.483 609.242> 724 70<642.393 764.779>
VStem: 492 28<252.052 308.246> 618 55<568.25 613.321> 836.952 29<841.993 872.004>
LayerCount: 2
Fore
SplineSet
616.952148438 857 m 0
 620.952148438 835 642.952148438 794 707.952148438 794 c 0
 772.952148438 794 818.952148438 835 836.952148438 857 c 0
 843.952148438 866 854.952148438 878 863.952148438 878 c 0
 872.952148438 878 869.952148438 867 865.952148438 854 c 0
 845.952148438 790 760.952148438 724 686.952148438 724 c 0
 612.952148438 724 563.952148438 779 586.952148438 854 c 0
 590.952148438 867 593.952148438 878 602.952148438 878 c 0
 611.952148438 878 614.952148438 866 616.952148438 857 c 0
EndSplineSet
Refer: 35 69 N 1 0 0 1 0 0 3
Validated: 1
Substitution2: "c2sc subtable" Ebreve.sc
EndChar

StartChar: Hbar
Encoding: 294 294 993
Width: 799
VWidth: 0
Flags: W
HStem: -5 29<20.7629 97.2328 228.292 284.641 451.844 527.694 644.559 700.641> 302 48<288.912 631> 456 36<167.098 244 329 683 769 848.713> 622 31<221.501 277.532 388.255 467.556 648.501 705.031 817.674 892.556>
AnchorPoint: "top_accent" 578 710 basechar 0
AnchorPoint: "below_accent" 356 -100 basechar 0
AnchorPoint: "cedilla" 168 8 basechar 0
LayerCount: 2
Back
SplineSet
695 100 m 1
 681 51 678 33 722 24 c 0
 742 20 751 15 748 6 c 0
 746 -2 733 -5 717 -5 c 0
 667 -5 660 0 622 0 c 0
 583 0 571 -5 521 -5 c 0
 505 -5 495 -2 497 6 c 0
 500 15 511 20 534 24 c 0
 576 32 606 54 619 97 c 1
 644 173 662 238 680 297 c 0
 682 304 681 304 678 304 c 0
 605 304 549 305 492 305 c 0
 435 305 377 304 302 304 c 0
 297 304 296 301 294 293 c 0
 276 235 262 183 238 106 c 0
 225 64 245 32 285 24 c 0
 305 20 314 15 311 6 c 0
 309 -2 296 -5 280 -5 c 0
 230 -5 216 0 173 0 c 0
 133 0 119 -5 69 -5 c 0
 53 -5 44 -2 46 6 c 0
 49 15 59 20 82 24 c 0
 131 33 145 51 160 99 c 2
 270 456 l 1
 209 456 l 2
 201 456 200 468 202 474 c 0
 205 483 218 492 229 492 c 2
 281 492 l 1
 299 551 l 2
 313 597 315 613 271 622 c 0
 251 626 243 633 246 642 c 0
 248 650 261 653 277 653 c 0
 327 653 335 650 372 650 c 0
 410 650 421 653 471 653 c 0
 487 653 497 650 495 642 c 0
 492 633 481 626 458 622 c 0
 409 613 385 590 373 551 c 2
 355 492 l 1
 739 492 l 1
 757 552 l 2
 768 588 762 613 718 622 c 0
 698 626 691 633 694 642 c 0
 696 650 708 653 724 653 c 0
 774 653 789 650 831 650 c 0
 864 650 867 653 917 653 c 0
 933 653 942 650 940 642 c 0
 937 633 926 626 903 622 c 0
 854 613 845 590 833 552 c 2
 814 492 l 1
 877 492 l 2
 884 492 890 485 885 478 c 0
 875 465 863 456 849 456 c 2
 803 456 l 1
 695 100 l 1
728 456 m 1
 344 456 l 1
 314 359 l 2
 312 351 319 350 325 350 c 0
 396 348 451 348 507 348 c 0
 563 348 619 348 690 350 c 0
 695 350 697 353 700 362 c 0
 710 395 719 423 728 456 c 1
EndSplineSet
Fore
SplineSet
174 456 m 2
 168 456 165 460 165 466 c 0
 165 479 181 492 194 492 c 2
 255 492 l 1
 273 551 l 2
 287 597 289 613 245 622 c 0
 225 626 221 633 221 642 c 0
 221 650 235 653 251 653 c 0
 301 653 309 650 346 650 c 0
 384 650 395 653 445 653 c 0
 461 653 469 650 469 642 c 0
 469 633 455 626 432 622 c 0
 383 613 359 590 347 551 c 2
 329 492 l 1
 694 492 l 1
 712 552 l 2
 723 588 716 613 672 622 c 0
 652 626 648 633 648 642 c 0
 648 650 662 653 678 653 c 0
 728 653 743 650 785 650 c 0
 818 650 820 653 870 653 c 0
 886 653 894 650 894 642 c 0
 894 633 880 626 857 622 c 0
 808 613 799 590 787 552 c 2
 769 492 l 1
 842 492 l 2
 847 492 853 489 853 484 c 0
 853 468 823 456 814 456 c 2
 757 456 l 1
 648 100 l 2
 633 51 632 33 676 24 c 0
 696 20 701 15 701 6 c 0
 701 -2 687 -5 671 -5 c 0
 621 -5 614 0 576 0 c 0
 537 0 525 -5 475 -5 c 0
 459 -5 451 -2 451 6 c 0
 451 15 464 20 487 24 c 0
 529 32 560 54 573 97 c 2
 631 287 l 2
 633 294 637 302 631 302 c 2
 276 302 l 2
 272 302 270 299 268 291 c 2
 211 106 l 2
 198 64 220 32 260 24 c 0
 280 20 285 15 285 6 c 0
 285 -2 271 -5 255 -5 c 0
 205 -5 189 0 147 0 c 0
 107 0 93 -5 43 -5 c 0
 27 -5 20 -2 20 6 c 0
 20 15 33 20 56 24 c 0
 105 33 120 51 135 99 c 2
 244 456 l 1
 174 456 l 2
683 456 m 1
 318 456 l 1
 289 359 l 2
 287 351 293 350 299 350 c 2
 644 350 l 2
 649 350 651 353 654 362 c 2
 683 456 l 1
EndSplineSet
Substitution2: "c2sc subtable" Hbar.sc
EndChar

StartChar: hbar
Encoding: 295 295 995
Width: 504
Flags: W
HStem: -14 41<245.684 332.768> 379 42<372.751 467.5> 532 39<115.148 192 263 384.301>
VStem: 438 66<220.903 378.727>
AnchorPoint: "cedilla" 67 8 basechar 0
AnchorPoint: "below_accent" 231 -100 basechar 0
AnchorPoint: "top_accent" 309 757 basechar 0
LayerCount: 2
Fore
SplineSet
122 532 m 2
 114 532 113 547 115 553 c 0
 118 562 131 571 141 571 c 2
 204 571 l 1
 210 593 217 621 213 632 c 0
 209 644 160 650 160 659 c 0
 160 664 162 668 166 670 c 0
 196 685 263 707 279 707 c 0
 285 707 296 707 296 697 c 0
 296 686 294 683 292 674 c 2
 263 571 l 1
 382 571 l 2
 388 571 394 564 389 557 c 0
 379 544 369 532 356 532 c 2
 251 532 l 1
 160 212 l 2
 157 202 164 202 169 208 c 0
 296 368 383 421 448 421 c 0
 487 421 504 394 504 333 c 0
 504 213 402 -14 265 -14 c 0
 242 -14 222 1 222 23 c 0
 222 36 237 52 249 52 c 0
 273 52 283 27 305 27 c 0
 373 27 438 255 438 332 c 0
 438 356 428 379 415 379 c 0
 393 379 359 368 283 292 c 0
 248 258 165 151 125 78 c 0
 90 14 79 -18 63 -18 c 0
 53 -18 46 4 46 16 c 0
 46 22 48 36 59 75 c 2
 192 532 l 1
 122 532 l 2
EndSplineSet
Substitution2: "Smallcaps subtable" hbar.sc
EndChar

StartChar: Jcircumflex
Encoding: 308 308 223
Width: 335
VWidth: 0
Flags: W
HStem: -200 42<-80 27.4867> 622 31<204.52 265.535 375.47 452.821> 725 132
LayerCount: 2
Fore
SplineSet
384.543945312 788 m 0
 376.543945312 795 377.543945312 795 365.543945312 788 c 0
 336.543945312 773 332.543945312 769 278.543945312 743 c 0
 265.543945312 736 236.543945312 725 224.543945312 725 c 0
 210.543945312 725 209.543945312 737 223.543945312 747 c 2
 351.543945312 835 l 2
 374.543945312 851 381.543945312 857 395.543945312 857 c 0
 409.543945312 857 413.543945312 851 427.543945312 835 c 2
 500.543945312 747 l 2
 508.543945312 737 500.543945312 724 486.543945312 724 c 0
 474.543945312 724 467.543945312 732 458.543945312 739 c 0
 420.543945312 765 404.543945312 773 384.543945312 788 c 0
EndSplineSet
Refer: 42 74 N 1 0 0 1 0 0 3
Validated: 1
Substitution2: "c2sc subtable" Jcircumflex.sc
EndChar

StartChar: kgreenlandic
Encoding: 312 312 1028
Width: 414
Flags: W
HStem: -21 60<255.429 313.638> 356 58<52.457 140.214 309.518 399.414>
VStem: 0 51<-14.3854 70.163>
AnchorPoint: "below_accent" 229 -100 basechar 0
AnchorPoint: "top_accent" 353 550 basechar 0
LayerCount: 2
Back
SplineSet
202 231 m 0x60
 200 226 202 224 205 224 c 0
 212 224 227 233 231 236 c 8
 296 280 380 337 395 353 c 0
 404 363 391 370 381 378 c 8
 383 383 388 402 388 402 c 8
 406 402 410 400 434 400 c 8
 465 400 491 403 515 406 c 0
 515 407 509 385 508 382 c 0
 485 374 465 369 446 358 c 0
 432 350 346 292 284 247 c 24
 279 243 272 238 274 233 c 24
 302 166 351 83 358 70 c 0
 370 49 389 24 416 17 c 0
 422 15 416 -7 409 -7 c 0
 408 -7 l 0xa0
 377 -3 339 2 294 2 c 0
 274 2 265 -3 234 -3 c 0
 234 -3 241 20 241 21 c 0x60
 267 25 286 45 279 60 c 0
 276 65 235 152 202 205 c 24
 200 208 192 199 192 199 c 1
 182 162 169 122 156 77 c 0
 138 17 l 1xa0
 83 0 l 1
 72 4 l 1
 93 74 l 0
 111 134 152 266 166 316 c 0
 174 345 165 363 152 379 c 0
 147 384 153 399 160 400 c 0
 208 402 214 405 251 414 c 1
 252 414 252 414 253 414 c 0
 260 414 263 409 259 400 c 0
 246 369 240 353 231 323 c 0
 215 272 208 251 202 231 c 0x60
EndSplineSet
Fore
SplineSet
165 363 m 2
 117 221 l 2
 112.029296875 206.295898438 121 210 126 217 c 0
 198 312 316 414 364 414 c 0
 400 414 414 394 414 363 c 0
 414 356 402.48046875 345 392 345 c 8
 373.853515625 345 366 352 346 352 c 0
 290 352 210 274 185 240 c 0
 180.260742188 233.5546875 178.855685148 232.144314852 182 229 c 0
 194 217 211.072143566 192.023807377 219 168 c 2
 252 68 l 2
 256.7734375 53.5341796875 270 39 285 39 c 0
 310 39 339 66 357 95 c 0
 364 107 368 110 373 110 c 0
 375 110 378 105 378 100 c 0
 378 35 294 -21 264 -21 c 0
 249 -21 214.264648438 -17.099609375 201 28 c 2
 166 147 l 2
 157.626953125 170.356445312 148 190 137 190 c 0
 129 190 120.24609375 178.25 115 167 c 16
 86.9043379595 106.748658318 67.3253553411 56.406672382 51 16 c 0
 42.2304596481 -5.70537403541 37 -15 25 -15 c 0
 15 -15 0 3 0 15 c 0
 0 21 0.23828125 35.552734375 13 74 c 2
 92 312 l 2
 101.771484375 341.436523438 107 356 94 356 c 0
 74 356 54 352 22 310 c 0
 17 304 9 304 7 314 c 0
 6 326 15 353 24 364 c 0
 46 392 72 413 117 414 c 0
 144 414 176.852590351 398.063913121 165 363 c 2
EndSplineSet
Validated: 33
Substitution2: "Smallcaps subtable" kgreenlandic.sc
EndChar

StartChar: Lslash
Encoding: 321 321 1007
Width: 619
VWidth: 0
Flags: W
HStem: -5 35<12.0182 111.625 232.884 516.445> 400 20G<489 492.5> 622 31<231.633 295.483 409.436 504.649>
AnchorPoint: "top_right" 650 605 basechar 0
AnchorPoint: "cedilla" 183 8 basechar 0
AnchorPoint: "below_accent" 314 -100 basechar 0
AnchorPoint: "top_accent" 186 700 basechar 0
LayerCount: 2
Back
SplineSet
364 567 m 2x60
 298 352 l 1
 475 415 l 2
 482 418 492 416 490 409 c 0
 484 389 483 379 462 372 c 2
 285 310 l 1
 220 96 l 2
 207 55 212 35 273 35 c 2
 408 35 l 2xa0
 413 35 446 45 468 61 c 0
 499 84 511 96 538 132 c 0
 543 140 560 162 568 162 c 0
 577 162 575 146 571 139 c 0
 542 87 524 54 507 12 c 0
 503 3 498 -5 489 -5 c 0
 364 -5 265 0 172 0 c 0
 126 0 45 -5 45 -5 c 2
 28 -5 20 0 22 7 c 0
 26 19 44 23 48 24 c 0
 99 34 132 52 145 96 c 2
 202 281 l 1
 134 257 l 2
 126 254 118 261 118 266 c 0
 116 274 122 290 139 296 c 2
 214 322 l 1
 287 560 l 2
 302 608 293 613 249 622 c 0
 229 626 222 633 225 642 c 0
 227 650 239 653 255 653 c 0
 305 653 317 650 358 650 c 0
 404 650 426 653 476 653 c 0
 492 653 502 650 500 642 c 0
 497 633 486 626 463 622 c 0
 414 613 376 606 364 567 c 2x60
EndSplineSet
Fore
SplineSet
134 257 m 2
 128 255 125 254 122 254 c 0
 116 254 113 257 113 263 c 0
 113 271 121 290 139 296 c 2
 221 325 l 1
 293 560 l 2
 308 608 300 613 256 622 c 0
 236 626 231 633 231 642 c 0
 231 650 245 653 261 653 c 0
 311 653 324 650 365 650 c 0
 411 650 433 653 483 653 c 0
 499 653 506 650 506 642 c 0
 506 633 493 626 470 622 c 0
 421 613 382 606 370 567 c 2
 307 356 l 1
 475 415 l 2
 480 417 488 420 490 420 c 0
 495 420 495 414 495 410 c 0
 495 395 477 377 462 372 c 2
 295 313 l 1
 235 113 l 2
 220 62 227 30 269 30 c 2
 450 30 l 2
 522 30 555 77 585 116 c 0
 591 124 593 126 601 126 c 0
 607 126 609 122 609 114 c 0
 609 96 585 39 567 11 c 0
 562 3 553 -5 544 -5 c 0
 393 -5 251 1 158 1 c 0
 109 1 83 -5 33 -5 c 0
 17 -5 9 -2 9 6 c 0
 9 15 22 20 45 24 c 0
 94 33 138 52 152 99 c 2
 208 283 l 1
 134 257 l 2
EndSplineSet
Substitution2: "c2sc subtable" Lslash.sc
EndChar

StartChar: lslash
Encoding: 322 322 1006
Width: 264
Flags: W
HStem: -14 55<78 158.697> 285 21G<66 70>
VStem: 50 76<5.25383 105.281>
AnchorPoint: "top_accent" 293 812 basechar 0
AnchorPoint: "top_right" 383 634 basechar 0
AnchorPoint: "below_accent" 115 -100 basechar 0
LayerCount: 2
Back
SplineSet
156 62 m 2
 153 51 146 30 145 24 c 1
 145 20 154 16 161 16 c 0
 167 16 181 20 189 26 c 2
 228 59 l 1
 238 53 l 1
 196 10 165 -6 128 -6 c 0
 88 -6 81 21 95 67 c 2
 171 317 l 1
 116 288 l 2
 108 284 102 296 104 304 c 0
 107 313 110 316 121 322 c 2
 183 355 l 1
 248 566 l 2
 253 581 257 632 231 639 c 0
 223 641 229 662 237 664 c 0
 285 676 319 692 351 704 c 0
 352 704 352 705 353 705 c 0
 356 705 357 701 356 698 c 0
 352 686 338 652 310 562 c 2
 258 393 l 1
 316 423 l 2
 318 424 319 424 321 424 c 0
 326 424 331 420 326 405 c 0
 324 398 322 394 304 385 c 2
 245 355 l 1
 156 62 l 2
EndSplineSet
Fore
SplineSet
233 99 m 0
 241 107 248 120 253 120 c 0
 258 120 258 115 258 107 c 0
 258 47 129 -14 94 -14 c 0
 62 -14 50 2 50 21 c 0
 50 38 54 52 61 76 c 2
 206 559 l 2
 212 578 220 607 220 624 c 0
 220 646 170 648 170 660 c 0
 170 665 172 669 176 671 c 0
 206 686 274 707 290 707 c 0
 296 707 307 707 307 697 c 0
 307 686 306 683 303 674 c 2
 131 86 l 2
 128 75 126 65 126 57 c 0
 126 47 129 41 136 41 c 0
 168 41 223 89 233 99 c 0
278 390 m 2
 78 288 l 2
 75 287 72 285 68 285 c 0
 64 285 62 287 62 295 c 0
 62 308 75 326 85 331 c 2
 292 437 l 2
 295 438 300 441 302 441 c 0
 305 441 308 438 308 431 c 0
 308 413 298 400 278 390 c 2
EndSplineSet
Validated: 5
Substitution2: "Smallcaps subtable" lslash.sc
EndChar

StartChar: Eng
Encoding: 330 330 1031
Width: 738
VWidth: 0
Flags: W
HStem: -228 42<402.618 489.538> -3 21G<225 255.5> 630 28<220.096 258.105 684.953 717.605 857.954 905.764>
AnchorPoint: "below_accent" 401 -100 basechar 0
AnchorPoint: "top_accent" 400 700 basechar 0
LayerCount: 2
Fore
SplineSet
327 -174 m 0
 333 -156 344 -134 360 -134 c 0
 380 -134 392 -140 398 -157 c 0
 408 -185 427 -186 454 -186 c 0
 480 -186 520 -144 552 -50 c 0
 565 -13 569 0 563 15 c 0
 483 196 445 296 355 478 c 0
 348 492 342 497 337 497 c 0
 331 497 326 489 324 482 c 0
 294 392 226 188 201 98 c 0
 195 79 202 69 212 56 c 24
 226 38 247 42 259 22 c 24
 263 15 263 -3 248 -3 c 0
 202 -3 183 2 141 2 c 24
 102 2 78 -3 39 -3 c 8
 30 -3 38 15 46 22 c 24
 66 38 83 33 103 50 c 24
 125 69 137 84 147 110 c 8
 207 268 230 351 280 516 c 0
 284 530 287 542 290 553 c 0
 293 564 292 572 289 580 c 0
 271 616 240 629 225 630 c 0
 219 630 218 637 220 644 c 0
 222 651 227 658 233 658 c 0
 257 657 275 657 290 657 c 0
 320 657 341 658 386 658 c 0
 397 658 397 646 401 636 c 24
 484 450 521 338 609 156 c 16
 611 151 614 136 620 136 c 0
 623 136 628 141 633 156 c 0
 684 308 708 398 753 562 c 0
 765 607 697 624 682 630 c 0
 676 632 683 655 690 655 c 0
 737 655 759 650 804 650 c 24
 843 650 867 655 906 655 c 0
 912 655 908 631 898 630 c 0
 871 627 856 615 845 608 c 0
 836 602 814 587 807 568 c 24
 729 352 696 228 631 14 c 0
 625 -7 587 -111 525 -179 c 0
 495 -212 462 -228 417 -228 c 0
 370 -228 315 -214 327 -174 c 0
EndSplineSet
Validated: 33
Substitution2: "c2sc subtable" Eng.sc
EndChar

StartChar: Ohungarumlaut
Encoding: 336 336 245
Width: 712
VWidth: 0
Flags: HW
HStem: -14 35<264.006 414.248> 628 36<391.576 555.605> 724 157<561.65 575.65>
VStem: 89 82<128.393 340.569> 523.65 75<833.271 878.272> 642 82<325.945 533.828> 655.65 75<833.271 878.272>
LayerCount: 2
Fore
SplineSet
599.650390625 742 m 0xf8
 591.650390625 735 575.650390625 724 568.650390625 724 c 0
 561.650390625 724 558.650390625 733 567.650390625 745 c 0
 615.650390625 811 635.650390625 836 655.650390625 860 c 0
 671.650390625 878 678.650390625 881 693.650390625 881 c 24
 712.650390625 881 726.650390625 877 730.650390625 860 c 24
 733.650390625 848 719.650390625 837 706.650390625 827 c 0
 681.650390625 809 617.650390625 758 599.650390625 742 c 0xf8
467.650390625 742 m 0
 459.650390625 735 443.650390625 724 436.650390625 724 c 0
 429.650390625 724 426.650390625 733 435.650390625 745 c 0
 483.650390625 811 503.650390625 836 523.650390625 860 c 0
 539.650390625 878 546.650390625 881 561.650390625 881 c 24
 580.650390625 881 594.650390625 877 598.650390625 860 c 24
 601.650390625 848 587.650390625 837 574.650390625 827 c 0
 549.650390625 809 485.650390625 758 467.650390625 742 c 0
EndSplineSet
Refer: 46 79 N 1 0 0 1 0 0 3
Substitution2: "c2sc subtable" Ohungarumlaut.sc
EndChar

StartChar: oe
Encoding: 339 339 582
Width: 604
Flags: W
HStem: -15 50<345.409 435.172> -14 30<102.149 170.573> 217 29<367.001 439.437> 384 30<226.264 292.918 464.874 533.002>
VStem: 25 64<30.5807 194.315> 306 61<248.515 296.141> 536 61<302.528 384.145>
AnchorPoint: "top_accent" 412 550 basechar 0
LayerCount: 2
Fore
SplineSet
508 385 m 0x3e
 453 385 367 282 367 252 c 0
 367 246 369 246 374 246 c 0
 404 246 536 273 536 353 c 0
 536 371 528 385 508 385 c 0x3e
306 304 m 0
 306 354 297 384 263 384 c 0
 183 384 89 189 89 96 c 0
 89 46 98 16 132 16 c 0x7e
 212 16 306 211 306 304 c 0
365 334 m 1
 408 381 459 414 523 414 c 0
 577 414 597 392 597 351 c 0
 597 271 434 217 364 217 c 0
 356 217 353 215 349 207 c 0
 336 177 332 154 332 112 c 0
 332 62 352 35 386 35 c 0
 434 35 474 72 494 98 c 0
 500 106 507 109 512 109 c 0
 518 109 522 105 522 99 c 0
 522 97 522 94 520 91 c 0
 480 26 423 -15 353 -15 c 0xbe
 321 -15 284 10 272 60 c 1
 231 16 180 -14 120 -14 c 0
 80 -14 25 28 25 104 c 0
 25 224 125 414 275 414 c 0
 308 414 351 386 365 334 c 1
EndSplineSet
Substitution2: "Smallcaps subtable" oe.sc
Ligature2: "LATliga subtable" o e
LCarets2: 1 0 
EndChar

StartChar: Scaron
Encoding: 352 352 259
Width: 464
VWidth: 0
Flags: HW
HStem: -14 30<155.901 272.26> 0 21<19 30> 459 21<438 445> 630 29<269.94 382.395> 724 133
VStem: 13 71<23 157> 138 75<443.644 566.63> 339 82<82.0568 191.012> 432 65<493 622>
LayerCount: 2
Fore
SplineSet
390.30859375 793 m 4x3f80
 419.30859375 808 441.30859375 816 495.30859375 842 c 4
 508.30859375 849 520.30859375 857 532.30859375 857 c 4
 546.30859375 857 546.30859375 844 532.30859375 834 c 6
 405.30859375 746 l 6
 382.30859375 730 374.30859375 724 360.30859375 724 c 4
 346.30859375 724 343.30859375 730 329.30859375 746 c 6
 255.30859375 834 l 6
 247.30859375 844 255.30859375 856 269.30859375 856 c 4
 281.30859375 856 303.30859375 845 312.30859375 838 c 4
 350.30859375 812 352.30859375 808 372.30859375 793 c 4
 380.30859375 786 378.30859375 786 390.30859375 793 c 4x3f80
EndSplineSet
Refer: 45 83 N 1 0 0 1 0 0 3
Substitution2: "c2sc subtable" Scaron.sc
EndChar

StartChar: tbar
Encoding: 359 359 999
Width: 285
Flags: W
HStem: -14 73<66.3456 163.5> 198 39<52.9649 248.797> 360 38<87.8539 153.133 238.865 330.495>
VStem: 49 301
AnchorPoint: "top_accent" 277 594 basechar 0
AnchorPoint: "below_accent" 52 -100 basechar 0
AnchorPoint: "cedilla" 139 8 basechar 0
AnchorPoint: "top_right" 397 634 basechar 0
LayerCount: 2
Fore
SplineSet
229 68 m 0
 181 23 110 -14 82 -14 c 0
 61 -14 49 -5 49 23 c 0
 49 35 51 42 63 79 c 2
 153 346 l 2
 156 355 149 358 143 358 c 2
 103 360 l 2
 86 361 85 369 85 374 c 0
 85 377 101 398 119 398 c 0
 129 398 133 398 155 398 c 0
 169 398 172 401 179 416 c 2
 199 457 l 2
 210 479 244 502 253 502 c 0
 269 502 263 475 261 470 c 2
 239 411 l 2
 236 402 241 400 252 400 c 0
 279 400 309 395 327 392 c 0
 348 388 350 384 350 377 c 0
 350 374 346 366 331 365 c 0
 321 364 261 362 245 362 c 0
 233 362 217 357 214 348 c 2
 132 99 l 2
 126 80 131 59 150 59 c 0
 177 59 196 76 218 93 c 0
 234 105 246 106 246 98 c 0
 246 89 241 79 229 68 c 0
58 198 m 2
 53 198 51 204 51 209 c 0
 51 223 66 237 78 237 c 2
 244 237 l 2
 248 237 253 233 253 228 c 0
 253 213 227 198 218 198 c 2
 58 198 l 2
EndSplineSet
Substitution2: "Smallcaps subtable" tbar.sc
EndChar

StartChar: Uhungarumlaut
Encoding: 368 368 273
Width: 737
VWidth: 0
Flags: HW
HStem: -14 40<287.692 457.017> 620 33<194.681 245.501 355.376 416.649 658.732 696.984 785.167 856.043> 724 157<613.513 627.513>
VStem: 575.513 75<833.271 878.272> 707.513 75<833.271 878.272>
LayerCount: 2
Fore
SplineSet
651.512695312 742 m 0
 643.512695312 735 627.512695312 724 620.512695312 724 c 0
 613.512695312 724 610.512695312 733 619.512695312 745 c 0
 667.512695312 811 687.512695312 836 707.512695312 860 c 0
 723.512695312 878 730.512695312 881 745.512695312 881 c 24
 764.512695312 881 778.512695312 877 782.512695312 860 c 24
 785.512695312 848 771.512695312 837 758.512695312 827 c 0
 733.512695312 809 669.512695312 758 651.512695312 742 c 0
519.512695312 742 m 0
 511.512695312 735 495.512695312 724 488.512695312 724 c 0
 481.512695312 724 478.512695312 733 487.512695312 745 c 0
 535.512695312 811 555.512695312 836 575.512695312 860 c 0
 591.512695312 878 598.512695312 881 613.512695312 881 c 24
 632.512695312 881 646.512695312 877 650.512695312 860 c 24
 653.512695312 848 639.512695312 837 626.512695312 827 c 0
 601.512695312 809 537.512695312 758 519.512695312 742 c 0
EndSplineSet
Refer: 48 85 N 1 0 0 1 0 0 3
Substitution2: "c2sc subtable" Uhungarumlaut.sc
EndChar

StartChar: Wcircumflex
Encoding: 372 372 277
Width: 976
VWidth: 0
Flags: W
HStem: 620 36<84.3975 158.098 268.913 343.625 454.397 527.823 649.703 730.294 860.17 912.796 1019.19 1100.29> 725 132
LayerCount: 2
Fore
SplineSet
646.626953125 788 m 0
 638.626953125 795 639.626953125 795 627.626953125 788 c 0
 598.626953125 773 594.626953125 769 540.626953125 743 c 0
 527.626953125 736 498.626953125 725 486.626953125 725 c 0
 472.626953125 725 471.626953125 737 485.626953125 747 c 2
 613.626953125 835 l 2
 636.626953125 851 643.626953125 857 657.626953125 857 c 0
 671.626953125 857 675.626953125 851 689.626953125 835 c 2
 762.626953125 747 l 2
 770.626953125 737 762.626953125 724 748.626953125 724 c 0
 736.626953125 724 729.626953125 732 720.626953125 739 c 0
 682.626953125 765 666.626953125 773 646.626953125 788 c 0
EndSplineSet
Refer: 38 87 N 1 0 0 1 0 0 3
Validated: 1
Substitution2: "c2sc subtable" Wcircumflex.sc
EndChar

StartChar: uni01C0
Encoding: 448 448 583
Width: 237
VWidth: 0
Flags: H
HStem: -14 21G<95 102>
VStem: 91 268
LayerCount: 2
Fore
SplineSet
298 676 m 10
 305 698 344 707 350 707 c 0
 357 707 361 701 359 694 c 18
 150 10 l 10
 144 -11 106 -14 98 -14 c 0
 92 -14 89 -7 91 0 c 18
 298 676 l 10
EndSplineSet
EndChar

StartChar: uni01C1
Encoding: 449 449 584
Width: 249
VWidth: 0
Flags: HW
HStem: -14 21G<40 47 161 168>
LayerCount: 2
Fore
SplineSet
243 676 m 10
 250 698 289 707 295 707 c 0
 302 707 306 701 304 694 c 18
 95 10 l 10
 89 -11 51 -14 43 -14 c 0
 37 -14 34 -7 36 0 c 18
 243 676 l 10
364 676 m 10
 371 698 410 707 416 707 c 0
 423 707 427 701 425 694 c 18
 216 10 l 10
 210 -11 172 -14 164 -14 c 0
 158 -14 155 -7 157 0 c 18
 364 676 l 10
EndSplineSet
EndChar

StartChar: uni01CF
Encoding: 463 463 294
Width: 371
VWidth: 0
Flags: W
HStem: -5 29<5.7629 87.4897 224.031 286.641> 622 31<210.487 270.933 389.79 472.785> 724 133
LayerCount: 2
Fore
SplineSet
397.142578125 793 m 4
 426.142578125 808 448.142578125 816 502.142578125 842 c 4
 515.142578125 849 527.142578125 857 539.142578125 857 c 4
 553.142578125 857 553.142578125 844 539.142578125 834 c 6
 412.142578125 746 l 6
 389.142578125 730 381.142578125 724 367.142578125 724 c 4
 353.142578125 724 350.142578125 730 336.142578125 746 c 6
 262.142578125 834 l 6
 254.142578125 844 262.142578125 856 276.142578125 856 c 4
 288.142578125 856 310.142578125 845 319.142578125 838 c 4
 357.142578125 812 359.142578125 808 379.142578125 793 c 4
 387.142578125 786 385.142578125 786 397.142578125 793 c 4
EndSplineSet
Refer: 33 73 N 1 0 0 1 0 0 3
Validated: 1
EndChar

StartChar: uni01D1
Encoding: 465 465 296
Width: 712
VWidth: 0
Flags: W
HStem: -14 35<264.006 414.248> 628 36<391.576 555.605> 724 133
VStem: 89 82<128.393 340.569> 642 82<325.945 533.828>
LayerCount: 2
Fore
SplineSet
532.780273438 793 m 4
 561.780273438 808 583.780273438 816 637.780273438 842 c 4
 650.780273438 849 662.780273438 857 674.780273438 857 c 4
 688.780273438 857 688.780273438 844 674.780273438 834 c 6
 547.780273438 746 l 6
 524.780273438 730 516.780273438 724 502.780273438 724 c 4
 488.780273438 724 485.780273438 730 471.780273438 746 c 6
 397.780273438 834 l 6
 389.780273438 844 397.780273438 856 411.780273438 856 c 4
 423.780273438 856 445.780273438 845 454.780273438 838 c 4
 492.780273438 812 494.780273438 808 514.780273438 793 c 4
 522.780273438 786 520.780273438 786 532.780273438 793 c 4
EndSplineSet
Refer: 46 79 N 1 0 0 1 0 0 3
Validated: 1
EndChar

StartChar: uni01D9
Encoding: 473 473 304
Width: 737
VWidth: 0
Flags: W
HStem: -14 40<287.692 457.017> 620 33<194.681 245.501 355.376 416.649 658.732 696.984 785.167 856.043> 700 100<434.438 517.562 629.438 712.562>
VStem: 426 100<708.438 791.562> 621 100<708.438 791.562>
LayerCount: 2
Fore
SplineSet
652.108398438 963 m 4
 681.108398438 978 703.108398438 986 757.108398438 1012 c 4
 770.108398438 1019 782.108398438 1027 794.108398438 1027 c 4
 808.108398438 1027 808.108398438 1014 794.108398438 1004 c 6
 667.108398438 916 l 6
 644.108398438 900 636.108398438 894 622.108398438 894 c 4
 608.108398438 894 605.108398438 900 591.108398438 916 c 6
 517.108398438 1004 l 6
 509.108398438 1014 517.108398438 1026 531.108398438 1026 c 4
 543.108398438 1026 565.108398438 1015 574.108398438 1008 c 4
 612.108398438 982 614.108398438 978 634.108398438 963 c 4
 642.108398438 956 640.108398438 956 652.108398438 963 c 4
EndSplineSet
Refer: 154 220 N 1 0 0 1 0 0 3
Validated: 1
EndChar

StartChar: uni01EA
Encoding: 490 490 314
Width: 712
VWidth: 0
Flags: W
HStem: -286 64<341.852 387.466> -14 35<264.006 414.248> 628 36<391.576 555.605>
VStem: 89 82<128.393 340.569> 255 82<-217.944 -137.026> 642 82<325.945 533.828>
AnchorPoint: "top_accent" 501 710 basechar 0
LayerCount: 2
Fore
SplineSet
318 -286 m 0
 289 -287 255 -250 255 -216 c 0
 255 -110 363 -32 450 18 c 1
 477 18 l 17
 402 -34 337 -92 337 -179 c 0
 337 -197 348 -222 374 -222 c 0
 395 -222 426 -197 438 -183 c 0
 441 -179 465 -160 465 -181 c 0
 465 -184 458 -197 455 -201 c 0
 420 -248 373 -285 318 -286 c 0
EndSplineSet
Refer: 46 79 N 1 0 0 1 0 0 3
Validated: 37
EndChar

StartChar: uni021E
Encoding: 542 542 329
Width: 788
VWidth: 0
Flags: W
HStem: -5 29<20.7629 97.2328 228.292 284.641 451.763 527.694 644.559 700.641> 302 48<288.912 631> 622 31<221.487 277.532 388.255 467.785 648.487 705.031 817.674 892.785> 724 133
LayerCount: 2
Fore
SplineSet
612.642578125 793 m 4
 641.642578125 808 663.642578125 816 717.642578125 842 c 4
 730.642578125 849 742.642578125 857 754.642578125 857 c 4
 768.642578125 857 768.642578125 844 754.642578125 834 c 6
 627.642578125 746 l 6
 604.642578125 730 596.642578125 724 582.642578125 724 c 4
 568.642578125 724 565.642578125 730 551.642578125 746 c 6
 477.642578125 834 l 6
 469.642578125 844 477.642578125 856 491.642578125 856 c 4
 503.642578125 856 525.642578125 845 534.642578125 838 c 4
 572.642578125 812 574.642578125 808 594.642578125 793 c 4
 602.642578125 786 600.642578125 786 612.642578125 793 c 4
EndSplineSet
Refer: 47 72 N 1 0 0 1 0 0 3
EndChar

StartChar: dotlessj
Encoding: 567 567 345
Width: 255
Flags: W
HStem: -283 41<-107.926 -33.6691>
AnchorPoint: "top_accent" 241 550 basechar 0
LayerCount: 2
Fore
SplineSet
136 270 m 2
 143 293 149 318 136 318 c 0
 125 318 99 309 69 295 c 0
 65 293 54 296 54 300 c 0
 54 305 55 309 63 315 c 0
 129 362 165 384 226 418 c 0
 232 421 245 425 245 414 c 0
 245 400 240 387 235 370 c 2
 94 -102 l 2
 63 -205 -30 -283 -101 -283 c 0
 -148 -283 -175 -264 -175 -245 c 0
 -175 -232 -153 -201 -139 -201 c 0
 -115 -201 -107 -242 -62 -242 c 0
 -26 -242 -3 -202 14 -144 c 2
 136 270 l 2
EndSplineSet
EndChar

StartChar: uni0250
Encoding: 592 592 1998
Width: 348
VWidth: 0
Flags: HW
HStem: -14 49<151 258.168> 368 46<177.161 252 320.379 415>
LayerCount: 2
Fore
SplineSet
365 298 m 0
 377 336 361 368 345 368 c 0
 323 368 303 355 285 341 c 0
 277 335 271 326 263 301 c 9
 237 224 l 18
 232 209 234 204 241 204 c 0
 244 204 247 205 252 206 c 0
 324 228 358 275 365 298 c 0
227 414 m 0
 277 414 267 362 274 362 c 0
 285 362 325 413 397 414 c 0
 433 414 457 364 445 325 c 4
 432 283 397 237 348 217 c 10
 247 175 l 18
 221 164 219 162 210 135 c 2
 198 101 l 26
 186 67 197 35 229 35 c 0
 250 35 281 53 292 67 c 0
 299 76 302 88 305 100 c 0
 308 114 354 130 375 136 c 0
 381 138 382 126 375 115 c 0
 360 90 352 79 324 57 c 0
 289 29 251 -14 172 -14 c 0
 130 -14 114 28 128 75 c 10
 194 291 l 26
 204 323 219 368 193 368 c 0
 177 368 172 364 159 354 c 0
 151 347 143 356 149 366 c 0
 153 372 194 414 227 414 c 0
EndSplineSet
EndChar

StartChar: uni0254
Encoding: 596 596 1999
Width: 326
VWidth: 0
Flags: W
HStem: -14 37<124.269 210.866> 361 52<214.265 343.5>
LayerCount: 2
Fore
SplineSet
388 219 m 8
 351 96 241 -14 135 -14 c 16
 98 -14 56 5 41 42 c 0
 35 58 55 73 71 84 c 16
 75 87 81 88 85 88 c 0
 94 88 99 83 102 78 c 0
 119 42 130 23 173 23 c 8
 235 23 291 100 313 173 c 16
 342 269 322 361 241 361 c 16
 205 361 175 340 142 306 c 0
 139 303 135 301 132 301 c 0
 126 301 123 309 127 317 c 0
 146 352 220 413 300 413 c 8
 387 413 419 322 388 219 c 8
EndSplineSet
Validated: 33
EndChar

StartChar: uni0258
Encoding: 600 600 2001
Width: 338
VWidth: 0
Flags: W
HStem: -14 37<125.195 216.923> 249 39<174.062 326.272> 370 44<209.644 316.412>
LayerCount: 2
Fore
SplineSet
136 -14 m 0
 98 -14 57 5 42 42 c 0
 36 58 56 73 72 84 c 16
 76 87 81 88 85 88 c 0
 94 88 100 83 103 78 c 0
 120 42 131 23 175 23 c 0
 215 23 283 75 312 171 c 0
 322 205 336 256 322 255 c 2
 180 249 l 10
 160 248 144 249 131 252 c 0
 115 256 105 262 115 295 c 0
 127 334 202 414 291 414 c 0
 387 414 423 328 392 227 c 0
 335 39 212 -14 136 -14 c 0
333 318 m 0
 329 340 307 372 259 370 c 0
 203 368 181 340 175 320 c 0
 173 313 173 295 182 293 c 0
 199 289 218 288 242 288 c 18
 319 288 l 2
 338 288 335 305 333 318 c 0
EndSplineSet
Validated: 33
EndChar

StartChar: uni0259
Encoding: 601 601 2001
Width: 339
VWidth: 0
Flags: HW
HStem: -14 31<132.285 212.555> 148 31<144.892 291.646> 362 52<209.344 340>
LayerCount: 2
Fore
SplineSet
149 -14 m 0
 60 -14 34 52 49 101 c 0
 59 134 77 161 91 168 c 0
 105 175 132 179 157 179 c 18
 291 179 l 2
 305 179 308 182 318 216 c 0
 342 296 304 362 234 362 c 16
 198 362 175 346 142 312 c 0
 139 309 136 307 133 307 c 0
 127 307 124 315 128 323 c 0
 147 358 216 414 296 414 c 8
 384 414 419 323 388 220 c 8
 352 102 245 -14 149 -14 c 0
274 86 m 0
 284 99 304 148 285 148 c 2
 208 148 l 10
 184 148 163 147 144 143 c 0
 134 141 120 98 118 91 c 0
 108 59 127 17 168 17 c 0
 216 17 257 64 274 86 c 0
EndSplineSet
EndChar

StartChar: uni025B
Encoding: 603 603 2001
Width: 287
VWidth: 0
Flags: W
HStem: -14 49<123.588 218.29> 176 59<208.756 274.408> 187 34<182.649 240.117> 381 30<225.955 300.886>
VStem: 310 50<316.861 376.834>
LayerCount: 2
Fore
SplineSet
132 -14 m 0xb8
 41 -14 47 56 61 100 c 0
 79 158 128 197 166 207 c 0
 167 209 168 213 168 214 c 0
 136 220 115 246 131 299 c 0
 156 382 235 411 297 411 c 0
 334 411 358 390 360 360 c 0
 361 340 352 325 337 316 c 16
 333 313 328 313 324 313 c 0
 316 313 310 315 310 322 c 0
 310 354 306 381 267 381 c 0
 236 381 199 356 182 302 c 0
 165 247 185 221 208 221 c 0xb8
 224 221 248 235 259 235 c 0
 280 235 282 219 277 203 c 0
 273 190 255 176 241 176 c 0xd8
 222 176 213 187 200 187 c 0
 166 187 133 153 119 110 c 0
 104 64 129 35 177 35 c 0
 214 35 245 53 277 84 c 0
 280 87 283 88 286 88 c 0
 292 88 296 80 292 73 c 0
 273 40 212 -14 132 -14 c 0xb8
EndSplineSet
EndChar

StartChar: uni025C
Encoding: 604 604 2002
Width: 330
VWidth: 0
Flags: W
HStem: -14 32<110.874 202.582> 190 47<173.241 266.438> 271 21G<134.5 144.5> 381 30<230.216 309.174>
VStem: 61 26<48.3618 121.281>
LayerCount: 2
Fore
SplineSet
297 411 m 0
 359 411 403 386 380 311 c 0
 371 280 354 255 342 245 c 0
 324 231 318 229 291 218 c 0
 291 217 289 211 289 211 c 0
 322 207 352 178 334 120 c 0
 311 44 263 18 237 4 c 1
 208 -13 172 -14 133 -14 c 0
 121 -14 91 -9 70 4 c 24
 57 13 46 24 48 40 c 0
 51 67 55 78 61 99 c 0
 66 115 73 124 81 124 c 0
 85 124 86 108 87 94 c 0
 92 38 120 18 152 18 c 0
 198 18 243 55 261 115 c 0
 273 154 271 196 237 196 c 0
 224 196 214 190 195 190 c 0
 181 190 167 196 172 212 c 0
 178 231 194 237 215 237 c 0
 226 237 234 231 250 231 c 0
 270 231 300 255 312 295 c 0
 324 334 324 381 276 381 c 0
 243 381 211 358 177 317 c 0
 162 299 150 271 139 271 c 0
 130 271 133 281 137 294 c 0
 145 320 147 321 160 351 c 0
 164 361 172 376 181 380 c 0
 205 391 261 411 297 411 c 0
EndSplineSet
Validated: 33
EndChar

StartChar: uni0292
Encoding: 658 658 1031
Width: 370
VWidth: 0
Flags: W
HStem: -285 40<-5.60963 101.388> 94 26<202.141 290.5> 368 34<196.572 327.75> 396 20G<176.5 179.5>
AnchorPoint: "top_accent" 199 550 basechar 0
LayerCount: 2
Fore
SplineSet
238 -67 m 0xe0
 261 7 264 94 200 94 c 16
 174 94 138 83 125 83 c 0
 113 83 127 100 126 101 c 1
 131 109 149 131 165 151 c 2
 333 354 l 2
 337 358 341 363 328 364 c 0
 301 365 275 368 248 368 c 0xe0
 242 368 236 367 229 367 c 0
 211 366 176 337 151 311 c 0
 145 305 129 286 120 286 c 0
 112 286 120 300 126 308 c 0
 139 327 158 380 166 405 c 0
 169 415 175 416 178 416 c 0xd0
 181 416 184 412 188 407 c 0
 191 403 212 402 228 402 c 16
 250 402 270 402 290 402 c 0
 344 402 392 403 438 404 c 0
 442 404 443 396 440 392 c 0
 426 374 416 363 399 343 c 0
 329 263 292 218 226 133 c 0
 218 123 223 120 230 120 c 0
 236 120 243 122 245 122 c 8
 317 122 351 55 325 -31 c 0
 292 -138 146 -285 24 -285 c 16
 14 -285 -24 -284 -46 -268 c 24
 -56 -261 -54 -248 -50 -232 c 24
 -47 -220 -40 -204 -30 -204 c 0
 -15 -204 -13 -221 -1 -230 c 0
 13 -241 25 -245 35 -245 c 8
 118 -245 216 -139 238 -67 c 0xe0
EndSplineSet
Validated: 33
EndChar

StartChar: uni02B0
Encoding: 688 688 611
Width: 308
VWidth: 0
Flags: HW
HStem: 273 24<193.048 217.9 261.104 301.422 360.598 387.899> 488 36<275.721 367.5>
LayerCount: 2
Fore
SplineSet
360 323 m 2
 355 307 367 300 378 297 c 1
 384 294 390 289 388 283 c 0
 386 277 374 273 371 273 c 2
 271 273 l 2
 268 273 258 277 260 283 c 0
 262 289 272 294 279 297 c 1
 292 300 305 307 310 323 c 2
 344 434 l 10
 353 464 335 488 309 488 c 0
 294 488 271 481 256 472 c 0
 241 462 235 454 227 429 c 2
 194 321 l 2
 189 305 198 300 209 297 c 1
 216 294 220 289 218 283 c 0
 216 277 205 273 201 273 c 2
 103 273 l 2
 100 273 90 277 92 283 c 0
 94 289 103 294 110 297 c 1
 123 300 139 305 144 321 c 2
 231 608 l 2
 237 629 237 647 218 652 c 8
 211 654 216 672 224 674 c 16
 257 681 281 690 303 698 c 0
 303 698 303 698 304 698 c 0
 307 698 312 696 313 694 c 1
 311 687 303 677 283 612 c 2
 253 515 l 2
 251 508 249 496 251 493 c 1
 274 507 310 524 348 524 c 0
 387 524 413 498 399 452 c 2
 360 323 l 2
EndSplineSet
EndChar

StartChar: uni02B7
Encoding: 695 695 614
Width: 422
VWidth: 0
Flags: HW
HStem: 495 24<163.101 196.062 255.044 285.896 316.101 340.729 400.821 437.939 475.101 494.631 533.984 574.939>
LayerCount: 2
Fore
SplineSet
519 468 m 26
 376 271 l 2
 374 269 370 267 366 267 c 0
 362 267 359 269 359 271 c 2
 347 418 l 2
 347 424 345 426 339 417 c 2
 235 271 l 2
 233 269 229 267 226 267 c 0
 223 267 219 269 219 271 c 2
 199 478 l 2
 198 485 184 491 173 495 c 0
 167 497 161 503 163 509 c 0
 165 515 177 519 180 519 c 2
 276 519 l 2
 279 519 289 515 287 509 c 0
 285 503 275 497 268 495 c 0
 255 491 252 478 253 468 c 18
 263 364 l 2
 263 356 266 356 272 365 c 2
 329 448 l 2
 352 480 340 490 326 495 c 1
 320 496 314 503 316 509 c 0
 318 515 330 519 333 519 c 2
 428 519 l 2
 431 519 441 515 439 509 c 0
 437 503 428 497 421 495 c 0
 408 491 393 480 394 468 c 2
 402 374 l 2
 403 365 406 359 409 359 c 0
 412 359 416 363 422 372 c 2
 485 458 l 2
 505 485 496 491 485 495 c 0
 479 497 473 503 475 509 c 0
 477 515 489 519 492 519 c 2
 565 519 l 2
 568 519 578 515 576 509 c 0
 574 503 565 497 558 495 c 0
 545 491 530 483 519 468 c 26
EndSplineSet
EndChar

StartChar: uni02B8
Encoding: 696 696 615
Width: 282
VWidth: 0
Flags: W
HStem: 110 37<60.7558 117.126> 500 24<386.75 427.389>
LayerCount: 2
Fore
SplineSet
174 500 m 0
 167 502 163 509 165 515 c 0
 167 521 177 524 181 524 c 2
 274 524 l 2
 277 524 286 521 284 515 c 0
 282 509 273 502 266 500 c 0
 253 496 246 480 247 468 c 18
 256 366 l 2
 257 357 260 358 265 366 c 2
 330 458 l 10
 340 473 347 496 336 500 c 0
 330 502 325 509 327 515 c 0
 329 521 340 524 343 524 c 2
 418 524 l 2
 422 524 431 521 429 515 c 0
 427 509 418 502 410 500 c 0
 397 496 378 485 365 468 c 26
 224 273 l 2
 220 268 166 192 123 135 c 0
 110 118 94 110 76 110 c 8
 61 110 45 118 49 132 c 8
 52 143 61 155 72 156 c 1
 83 156 90 147 98 147 c 0
 101 147 104 149 108 153 c 0
 127 174 162 225 194 271 c 0
 199 279 209 301 208 310 c 2
 194 478 l 10
 192 491 185 496 174 500 c 0
EndSplineSet
Validated: 33
EndChar

StartChar: uni02BB
Encoding: 699 699 980
Width: 199
VWidth: 0
Flags: W
HStem: 419 78<252.989 299.154>
LayerCount: 2
Fore
SplineSet
277 497 m 0
 301 494 315 477 308 455 c 0
 303 439 280 419 253 419 c 0
 208 419 174 460 191 516 c 0
 207 569 293 634 341 636 c 0
 342 636 341 636 342 636 c 0
 363 636 360 619 340 615 c 0
 297 606 263 568 254 540 c 0
 247 518 259 499 277 497 c 0
EndSplineSet
Validated: 33
EndChar

StartChar: circumflex
Encoding: 710 710 90
Width: 237
VWidth: 0
Flags: W
HStem: 447 201<179.906 187.197>
VStem: 181 35<447.486 465>
LayerCount: 2
Fore
SplineSet
51 465 m 2
 43 457 31 447 20 447 c 0
 13 447 10 456 19 468 c 2
 19 468 106 582 137 619 c 0
 152 637 165 648 172 648 c 0
 179 648 185 637 189 619 c 0
 199 576 216 468 216 468 c 2
 218 456 209 447 202 447 c 0
 191 447 184 458 181 465 c 2
 146 561 l 1
 51 465 l 2
EndSplineSet
EndChar

StartChar: caron
Encoding: 711 711 985
Width: 4
VWidth: 0
Flags: HW
HStem: 447 201<-28.1966 -20.9062>
VStem: -57 35<630 647.555>
LayerCount: 2
Fore
SplineSet
-22 630 m 2
 13 534 l 1
 107 630 l 2
 114 637 128 648 139 648 c 0
 146 648 149 639 140 627 c 2
 140 627 58 519 22 476 c 0
 7 458 -6 447 -13 447 c 0
 -20 447 -26 458 -30 476 c 0
 -39 513 -57 627 -57 627 c 2
 -59 639 -50 648 -43 648 c 0
 -32 648 -25 638 -22 630 c 2
EndSplineSet
EndChar

StartChar: uni02C9
Encoding: 713 713 982
Width: 5
VWidth: 0
Flags: W
HStem: 510 50<-114.647 117.392>
VStem: -123 250
LayerCount: 2
Fore
SplineSet
-89 560 m 26
 119 560 l 26
 126 560 131 553 127 546 c 24
 116 529 104 510 87 510 c 26
 -113 510 l 26
 -120 510 -125 516 -123 522 c 0
 -120 531 -105 560 -89 560 c 26
EndSplineSet
EndChar

StartChar: uni02E1
Encoding: 737 737 620
Width: 138
VWidth: 0
Flags: W
HStem: 273 25<91.4196 135.719 191.999 219.899>
VStem: 90 220
LayerCount: 2
Fore
SplineSet
192 320 m 2
 187 304 200 302 211 298 c 0
 217 296 222 289 220 283 c 0
 218 277 206 273 203 273 c 2
 101 273 l 2
 98 273 88 277 90 283 c 0
 92 289 102 296 109 298 c 0
 122 302 136 304 141 320 c 2
 230 608 l 2
 233 617 233 648 215 652 c 8
 208 654 214 672 222 674 c 16
 255 681 277 691 299 698 c 0
 299 698 299 698 300 698 c 0
 304 698 311 696 310 694 c 0
 308 687 298 666 281 612 c 2
 192 320 l 2
EndSplineSet
Validated: 33
EndChar

StartChar: uni02E3
Encoding: 739 739 622
Width: 247
VWidth: 0
Flags: HW
HStem: 273 20<88.954 126.203> 500 24<340.959 396.545>
VStem: 88 309
LayerCount: 2
Fore
SplineSet
196 482 m 2
 194 487 190 495 179 499 c 0
 173 501 168 507 170 514 c 0
 172 520 184 524 187 524 c 2
 235 524 l 2
 250 524 252 525 266 525 c 0
 269 525 278 519 276 513 c 0
 274 506 266 501 259 498 c 0
 254 496 253 484 254 479 c 2
 259 456 l 2
 263 440 265 442 273 450 c 2
 307 484 l 2
 309 486 315 498 312 499 c 0
 306 501 300 507 302 513 c 0
 304 519 316 524 319 524 c 2
 386 524 l 2
 389 524 399 519 397 513 c 0
 395 507 386 502 379 500 c 0
 366 496 346 495 330 480 c 18
 273 425 l 2
 271 423 272 413 273 411 c 2
 301 314 l 2
 304 306 309 297 320 293 c 0
 326 291 333 289 331 282 c 0
 329 276 317 273 314 273 c 2
 221 273 l 2
 218 273 208 276 210 282 c 0
 216 301 253 292 246 317 c 2
 230 372 l 2
 229 375 222 367 220 365 c 2
 167 309 l 2
 163 305 160 299 171 295 c 0
 177 293 183 288 181 282 c 0
 179 276 167 273 164 273 c 2
 100 273 l 2
 89 273 86 275 88 281 c 0
 90 288 99 292 106 293 c 0
 120 295 144 316 151 323 c 2
 215 387 l 2
 222 394 222 402 221 407 c 2
 196 482 l 2
EndSplineSet
EndChar

StartChar: gravecomb
Encoding: 768 768 981
Width: 0
VWidth: 0
Flags: W
HStem: 470 197<54.8123 70.533>
VStem: 10 74<556.744 656.927>
AnchorPoint: "top_accent" 90 550 mark 0
LayerCount: 2
Fore
SplineSet
56 487 m 0
 44 521 10 616 10 621 c 0
 10 645 39 667 55 667 c 0
 67 667 71 650 73 627 c 0
 76 586 84 493 84 483 c 0
 84 475 81 470 76 470 c 0
 67 470 61 473 56 487 c 0
EndSplineSet
Substitution2: "Single Substitution lookup 20 subtable" gravecomb.grkstack
Substitution2: "Single Substitution lookup 18 subtable" gravecomb.grk
Substitution2: "Single Substitution lookup 13 subtable" gravecomb.stack
Substitution2: "'case' Case-Sensitive Forms lookup 6 subtable" gravecomb.cap
EndChar

StartChar: acutecomb
Encoding: 769 769 623
Width: 0
VWidth: 0
Flags: W
HStem: 463 189
VStem: 10 141
AnchorPoint: "top_accent" 40 550 mark 0
LayerCount: 2
Fore
SplineSet
41 478 m 0
 34.3916 470.629 26 463 18 463 c 0
 13 463 10 467 10 471 c 0
 10 475 10.0599 478.971 12 483 c 0
 25 510 70 596 87 627 c 0
 94.2125 640.152 102 652 112 652 c 0
 122 652 151 630 151 615 c 0
 151 610 67 507 41 478 c 0
EndSplineSet
Substitution2: "Single Substitution lookup 20 subtable" acutecomb.grkstack
Substitution2: "Single Substitution lookup 18 subtable" acutecomb.grk
Substitution2: "Single Substitution lookup 13 subtable" acutecomb.stack
Substitution2: "'case' Case-Sensitive Forms lookup 6 subtable" acutecomb.cap
EndChar

StartChar: uni0302
Encoding: 770 770 91
Width: 0
VWidth: 0
Flags: HW
HStem: 462 195
VStem: 180 25<463.061 508.472>
AnchorPoint: "top_accent" 134 550 mark 0
LayerCount: 2
Back
SplineSet
336 577 m 2
 334 582 333 582 327 577 c 2
 203 467 l 2
 194 460 183 452 171 449 c 0
 170 449 170 449 169 449 c 0
 162 449 161 460 170 470 c 2
 306 625 l 2
 322 643 348 673 362 673 c 0
 376 673 385 643 390 625 c 2
 431 470 l 2
 434 460 425 449 418 449 c 0
 417 449 418 449 417 449 c 0
 407 452 399 460 396 467 c 2
 336 577 l 2
EndSplineSet
Fore
SplineSet
135 570 m 0
 105 539 65 500 42 478 c 0
 35 471 24 462 19 462 c 0
 14 462 10 465 10 471 c 0
 10 477 13 483 17 489 c 0
 34 513 90 587 114 615 c 0
 132 636 154 657 164 657 c 0
 173 657 176 649 182 627 c 0
 192 588 205 493 205 483 c 0
 205 475 202 462 197 462 c 0
 190 462 185 468 180 479 c 0
 172 499 156 539 144 570 c 0
 142 575 138 574 135 570 c 0
EndSplineSet
Substitution2: "Single Substitution lookup 11 subtable" uni0302.stack
Substitution2: "'case' Case-Sensitive Forms lookup 6 subtable" uni0302.cap
EndChar

StartChar: uni0304
Encoding: 772 772 980
Width: 0
VWidth: 0
Flags: W
HStem: 534 44<8.43221 246.213>
VStem: 5 245<538.507 576.395>
AnchorPoint: "top_accent" 137 550 mark 0
LayerCount: 2
Fore
SplineSet
34 578 m 30
 241 578 l 22
 246 578 250 573 250 568 c 4
 250 550.948 227.07 534 214 534 c 30
 14 534 l 22
 9 534 5 538 5 543 c 4
 5 554.183 17.6465 578 34 578 c 30
EndSplineSet
Validated: 1
Substitution2: "'case' Case-Sensitive Forms lookup 6 subtable" uni0304.cap
EndChar

StartChar: uni0305
Encoding: 773 773 983
Width: 0
VWidth: 0
Flags: HW
HStem: 523 60<15.875 375.152>
AnchorPoint: "top_accent" 200 550 mark 0
LayerCount: 2
Fore
SplineSet
4 532 m 4
 4 543 23 583 42 583 c 30
 379 583 l 22
 384 583 388 579 388 574 c 4
 388 550.805 357.082 523 344 523 c 30
 14 523 l 22
 8 523 4 527 4 532 c 4
EndSplineSet
EndChar

StartChar: uni0306
Encoding: 774 774 121
Width: 0
VWidth: 0
Flags: W
HStem: 484 49<126.712 226.22> 602 20G<97 110.5 273.5 281>
VStem: 78 39<542.998 618.552> 255 32<566.111 618.833>
AnchorPoint: "top_accent" 169 550 mark 0
LayerCount: 2
Fore
SplineSet
117 601 m 0
 119 568 124 533 167 533 c 0
 217 533 243 560 255 594 c 0
 259 605 269 622 278 622 c 0
 284 622 287 617 287 610 c 0
 287 539 224 484 150 484 c 0
 118 484 78 513 78 554 c 0
 78 587 87 622 107 622 c 0
 114 622 116 610 117 601 c 0
EndSplineSet
Substitution2: "'case' Case-Sensitive Forms lookup 6 subtable" uni0306.cap
EndChar

StartChar: uni0307
Encoding: 775 775 122
Width: 0
VWidth: 0
Flags: W
HStem: 513 100<23.7711 87.2976>
VStem: 10 90<525.614 599.468>
AnchorPoint: "top_accent" 51 550 mark 0
LayerCount: 2
Fore
SplineSet
66 613 m 16
 87 613 100 591 100 570 c 16
 100 540 75 513 45 513 c 8
 25 513 10 532 10 552 c 8
 10 584 34 613 66 613 c 16
EndSplineSet
Substitution2: "'case' Case-Sensitive Forms lookup 6 subtable" uni0307.cap
EndChar

StartChar: uni0308
Encoding: 776 776 624
Width: 271
VWidth: 0
Flags: HW
HStem: 524 100<23.5835 87.1805 174.584 238.181>
VStem: 10 90<536.747 611.266> 161 90<536.747 611.266>
AnchorPoint: "top_accent" 127 550 mark 0
LayerCount: 2
Fore
SplineSet
217 624 m 16
 237.97 624 251 602.379 251 581 c 16
 251 551.43 225.57 524 196 524 c 8
 175.563 524 161 542.56 161 563 c 8
 161 595.295 184.705 624 217 624 c 16
66 624 m 16
 86.9697 624 100 602.379 100 581 c 16
 100 551.43 74.5703 524 45 524 c 8
 24.5635 524 10 542.56 10 563 c 8
 10 595.295 33.7051 624 66 624 c 16
EndSplineSet
Substitution2: "Single Substitution lookup 15 subtable" uni0308.grkstack
Substitution2: "'case' Case-Sensitive Forms lookup 6 subtable" uni0308.cap
EndChar

StartChar: hookabovecomb
Encoding: 777 777 1170
Width: 0
VWidth: 0
Flags: W
HStem: 653 24<141.254 182.794>
VStem: 79 156
AnchorPoint: "top_accent" 136 550 mark 0
LayerCount: 2
Fore
SplineSet
98 654 m 0
 120 666 146 677 181 677 c 0
 217 677 247 656 235 617 c 0
 230 600 211 573 166 550 c 0
 146 540 148 531 157 523 c 0
 164 517 148 508 139 508 c 0
 127 508 114 526 118 540 c 0
 124 558 138 571 151 581 c 0
 169 595 177 606 182 622 c 0
 187 638 182 653 168 653 c 0
 148 653 136 640 111 602 c 0
 107 596 101 593 95 593 c 0
 90 593 86 595 84 599 c 0
 79 609 75 617 79 630 c 0
 82 640 88 649 98 654 c 0
EndSplineSet
EndChar

StartChar: uni0309
Encoding: 777 777 1173
Width: 3
VWidth: 0
Flags: W
HStem: 653 24<331.254 372.794>
VStem: 269 156
AnchorPoint: "top_accent" 136 550 mark 0
LayerCount: 2
Fore
SplineSet
288 654 m 0
 310 666 336 677 371 677 c 0
 407 677 437 656 425 617 c 0
 420 600 401 573 356 550 c 0
 336 540 338 531 347 523 c 0
 354 517 338 508 329 508 c 0
 317 508 304 526 308 540 c 0
 314 558 328 571 341 581 c 0
 359 595 367 606 372 622 c 0
 377 638 372 653 358 653 c 0
 338 653 326 640 301 602 c 0
 297 596 291 593 285 593 c 0
 280 593 276 595 274 599 c 0
 269 609 265 617 269 630 c 0
 272 640 278 649 288 654 c 0
EndSplineSet
Validated: 33
EndChar

StartChar: uni030A
Encoding: 778 778 123
Width: 0
VWidth: 0
Flags: HW
HStem: 493 28<76.8169 132.921> 632 28<96.715 153.525>
VStem: 33 37<524.271 604.91> 162 37<547.493 627.124>
AnchorPoint: "top_accent" 101 550 mark 0
LayerCount: 2
Fore
SplineSet
143 660 m 4
 176 660 199 637 199 605 c 4
 199 535 131.776 493 87 493 c 4
 54 493 33 518 33 551 c 4
 33 610.354 96.7129 660 143 660 c 4
70 560 m 4
 70 538 82 521 102 521 c 4
 129.397 521 162 556.34 162 592 c 4
 162 614 147 632 126 632 c 4
 96.5107 632 70 597.695 70 560 c 4
EndSplineSet
Substitution2: "'case' Case-Sensitive Forms lookup 6 subtable" uni030A.cap
EndChar

StartChar: uni030B
Encoding: 779 779 124
Width: 0
VWidth: 0
Flags: W
HStem: 463 189
VStem: 10 141 121 141
AnchorPoint: "top_accent" 91 550 mark 0
LayerCount: 2
Back
SplineSet
333 462 m 4
 326 454 314 445 302 441 c 5
 301 440 300 440 299 440 c 4
 293 440 292 450 299 460 c 4
 356 551 359 549 429 645 c 4
 442 664 461 669 482 672 c 20
 486 672 490 673 494 673 c 4
 508 673 519 669 524 657 c 12
 528 645 513 633 500 622 c 4
 446 574 375 505 333 462 c 4
216 462 m 4
 209 454 197 445 185 441 c 5
 184 440 183 440 182 440 c 4
 176 440 175 450 182 460 c 4
 239 551 242 549 312 645 c 4
 325 664 344 669 365 672 c 20
 369 672 373 673 377 673 c 4
 391 673 401 669 406 657 c 12
 410 645 396 633 383 622 c 4
 329 574 258 505 216 462 c 4
EndSplineSet
Fore
Refer: 623 769 N 1 0 0 1 111 0 2
Refer: 623 769 N 1 0 0 1 0 0 2
Substitution2: "'case' Case-Sensitive Forms lookup 6 subtable" uni030B.cap
EndChar

StartChar: uni030F
Encoding: 783 783 2025
Width: 0
VWidth: 0
Flags: W
HStem: 470 197<54.7829 70.5805 160.783 176.581>
VStem: 10 74<556.697 656.931> 116 74<556.697 656.931>
AnchorPoint: "top_accent" 91 550 mark 0
LayerCount: 2
Back
SplineSet
313 462 m 4xa0
 297 505 268 574 244 622 c 4
 238 633 231 645 242 657 c 20
 254 669 267 673 281 673 c 4
 285 673 289 672 293 672 c 12
 313 669 327 664 329 645 c 4xc0
 341 549 345 551 346 460 c 4
 347 450 340 440 334 440 c 4
 333 440 332 440 331 441 c 5
 321 445 315 454 313 462 c 4xa0
431 462 m 4x88
 415 505 385 574 361 622 c 4
 355 633 348 645 359 657 c 20
 371 669 384 673 398 673 c 4
 402 673 406 672 410 672 c 12
 430 669 445 664 447 645 c 4x90
 459 549 462 551 463 460 c 4
 464 450 457 440 451 440 c 4
 450 440 449 440 448 441 c 5
 438 445 433 454 431 462 c 4x88
EndSplineSet
Fore
Refer: 981 768 S 1 0 0 1 106 0 2
Refer: 981 768 N 1 0 0 1 0 0 2
Substitution2: "'case' Case-Sensitive Forms lookup 6 subtable" uni030F.cap
EndChar

StartChar: uni0311
Encoding: 785 785 987
Width: 0
VWidth: 0
Flags: HW
HStem: 588 49<96.5165 192.028>
VStem: 32 31<498.736 549.808> 203 38<500.903 576.549>
AnchorPoint: "top_accent" 139 550 mark 0
LayerCount: 2
Fore
SplineSet
63 518 m 0
 59.9482 507.015 50 497 41 497 c 0
 35 497 32 502 32 509 c 0
 32 596 117 637 169 637 c 0
 218 637 241 600 241 558 c 0
 241 537.623 232.534 497 212 497 c 0
 203 497 203.558 508.797 203 518 c 0
 201 551 194 588 154 588 c 0
 113 588 78 572 63 518 c 0
EndSplineSet
Substitution2: "'case' Case-Sensitive Forms lookup 6 subtable" uni0311.cap
EndChar

StartChar: uni0312
Encoding: 786 786 125
Width: 0
VWidth: 0
Flags: W
HStem: 481 78<65.0044 105.688> 665 21<134.035 180.473>
VStem: 6 59<523 607.092>
AnchorPoint: "top_accent" 50 550 mark 0
LayerCount: 2
Fore
SplineSet
6 541 m 4
 6 627.723 109.504 686 167 686 c 4
 177 686 181 682 181 678 c 4
 181 673 175 667 164 665 c 4
 115.985 654.95 65 617.77 65 570 c 4
 65 562 71 559 83 559 c 4
 105 559 116 546 116 530 c 4
 116 504 91 481 60 481 c 4
 26 481 6 505 6 541 c 4
EndSplineSet
Validated: 1
EndChar

StartChar: uni0314
Encoding: 788 788 127
Width: 199
VWidth: 0
Flags: W
HStem: 426 21<256.636 286.468> 568 78<256.181 339.393>
AnchorPoint: "top_accent" 107 550 mark 0
LayerCount: 2
Fore
SplineSet
295 568 m 0
 276 568 243 540 236 518 c 0
 227 488 242 456 279 447 c 0
 297 443 289 426 267 426 c 0
 220 426 176 479 197 549 c 0
 214 605 274 646 319 646 c 0
 346 646 356 626 351 610 c 0
 344 588 322 568 295 568 c 0
EndSplineSet
Validated: 33
EndChar

StartChar: dotbelowcomb
Encoding: 803 803 2024
Width: 0
VWidth: 0
Flags: W
HStem: -192 101<29.3016 90.5954>
VStem: 10 100<-172.518 -110.482>
AnchorPoint: "below_accent" 71 -100 mark 0
LayerCount: 2
Fore
SplineSet
10 -158 m 0
 10 -120 46 -91 75 -91 c 0
 96 -91 110 -105 110 -125 c 0
 110 -163 74 -192 44 -192 c 0
 23 -192 10 -178 10 -158 c 0
EndSplineSet
Substitution2: "'case' Case-Sensitive Forms lookup 6 subtable" dotbelowcomb.cap
EndChar

StartChar: uni0323
Encoding: 803 803 2026
Width: 218
VWidth: 0
Flags: W
HStem: -192 101<29.3016 90.5954>
VStem: 10 100<-172.518 -110.482>
AnchorPoint: "below_accent" 71 -100 mark 0
LayerCount: 2
Fore
SplineSet
10 -158 m 4
 10 -120 46 -91 75 -91 c 4
 96 -91 110 -105 110 -125 c 4
 110 -163 74 -192 44 -192 c 4
 23 -192 10 -178 10 -158 c 4
EndSplineSet
Validated: 1
Substitution2: "'case' Case-Sensitive Forms lookup 6 subtable" uni0323.cap
EndChar

StartChar: uni0324
Encoding: 804 804 2074
Width: 271
VWidth: 0
Flags: HW
HStem: -196 100<23.5835 87.1805 174.584 238.181>
VStem: 10 90<-183.253 -108.734> 161 90<-183.253 -108.734>
AnchorPoint: "below_accent" 127 -100 mark 0
LayerCount: 2
Fore
SplineSet
217 -96 m 16
 237.97 -96 251 -117.621 251 -139 c 16
 251 -168.57 225.57 -196 196 -196 c 8
 175.563 -196 161 -177.44 161 -157 c 8
 161 -124.705 184.705 -96 217 -96 c 16
66 -96 m 16
 86.9697 -96 100 -117.621 100 -139 c 16
 100 -168.57 74.5703 -196 45 -196 c 12
 24.5635 -196 10 -177.44 10 -157 c 8
 10 -124.705 33.7051 -96 66 -96 c 16
EndSplineSet
Substitution2: "'case' Case-Sensitive Forms lookup 6 subtable" uni0324.cap
EndChar

StartChar: uni0325
Encoding: 805 805 2075
Width: 0
VWidth: 0
Flags: HW
HStem: -227 28<76.8169 132.921> -88 28<96.715 153.525>
VStem: 33 37<-195.729 -115.09> 162 37<-172.507 -92.8762>
AnchorPoint: "below_accent" 122 -100 mark 0
LayerCount: 2
Fore
SplineSet
143 -60 m 4
 176 -60 199 -83 199 -115 c 4
 199 -185 131.776 -227 87 -227 c 4
 54 -227 33 -202 33 -169 c 4
 33 -109.646 96.7129 -60 143 -60 c 4
70 -160 m 4
 70 -182 82 -199 102 -199 c 4
 129.397 -199 162 -163.66 162 -128 c 4
 162 -106 147 -88 126 -88 c 4
 96.5107 -88 70 -122.305 70 -160 c 4
EndSplineSet
Substitution2: "'case' Case-Sensitive Forms lookup 6 subtable" uni0325.cap
EndChar

StartChar: uni0326
Encoding: 806 806 129
Width: 0
VWidth: 0
Flags: W
HStem: -274 21<-48.4733 -2.21077> -147 78<26.3116 66.9956>
VStem: 67 59<-195.206 -111>
AnchorPoint: "below_accent" 54 -100 mark 0
LayerCount: 2
Back
SplineSet
36 -145 m 0
 19.6554 -140.699 2.57076 -126.777 2.57076 -108.965 c 0
 2.57076 -106.071 3.0217 -103.075 4 -100 c 0
 11 -76 33 -57 60 -57 c 0
 95.1442 -57 117.48 -82.0073 117.48 -119.637 c 0
 117.48 -130.19 115.723 -141.735 112 -154 c 0
 92 -218 32 -264 -18 -274 c 0
 -21 -275 -23 -275 -25 -275 c 0
 -31.4018 -275 -34.5249 -272.086 -34.5249 -268.278 c 0
 -34.5249 -263.164 -28.8911 -256.439 -18 -253 c 0
 23 -239 47 -202 56 -174 c 0
 56.9367 -170.815 57.3821 -167.946 57.3821 -165.36 c 0
 57.3821 -154.143 49.0025 -148.251 36 -145 c 0
EndSplineSet
Fore
SplineSet
126 -129 m 0
 126 -216 22 -274 -35 -274 c 0
 -45 -274 -49 -270 -49 -266 c 0
 -49 -261 -43 -255 -32 -253 c 0
 16 -243 67 -206 67 -158 c 0
 67 -150 61 -147 49 -147 c 0
 27 -147 16 -134 16 -118 c 0
 16 -92 41 -69 72 -69 c 0
 106 -69 126 -93 126 -129 c 0
EndSplineSet
Validated: 1
EndChar

StartChar: uni0328
Encoding: 808 808 128
Width: 0
VWidth: 0
Flags: W
HStem: -286 64<72.8808 118.74>
VStem: 0 71<-219.707 -132.493>
AnchorPoint: "ogonek" 197 18 mark 0
LayerCount: 2
Fore
SplineSet
52 -286 m 0
 23.0048828125 -286.505859375 0 -250 0 -216 c 0
 0 -110 97.3974609375 -32 184 18 c 1
 211 18 l 17
 136.490234375 -34.1728515625 71 -89 71 -186 c 0
 71 -204 79 -222 105 -222 c 0
 126 -222 157 -197 169 -183 c 0
 172 -179 193 -160 193 -181 c 0
 193 -184 186.001953125 -197.001953125 183 -201 c 0
 147.575195312 -248.181640625 106.991210938 -285.040039062 52 -286 c 0
EndSplineSet
Validated: 33
Substitution2: "'case' Case-Sensitive Forms lookup 6 subtable" uni0328.cap
EndChar

StartChar: Gamma
Encoding: 915 915 1080
Width: 573
VWidth: 0
Flags: HW
HStem: -5 29<5.84375 90.7769 249.692 312.641> 618 32<218.007 283.946 386.337 609.242>
VStem: 618 55<568.25 613.321>
LayerCount: 2
Fore
SplineSet
236 98 m 6
 221.82 51.0537 244 33 288 24 c 4
 308 20 313 15.4902 313 6 c 4
 313 -2.25 299 -5 283 -5 c 4
 233 -5 212.282 0 167 0 c 28
 113.145 0 79 -5 29 -5 c 4
 13 -5 5 -2 5 6 c 4
 5 15 18 20 41 24 c 4
 90 33 134 51 149 99 c 6
 286 549 l 6
 300.535 596.841 285 613 241 622 c 4
 221 626 216 632.51 216 642 c 4
 216 650.25 231 653 247 653 c 4
 262 653 314 650 356 650 c 6
 611 650 l 6
 636 650 660 654 665 654 c 4
 672 654 673 651 673 644 c 4
 673 632 654 593 646 540 c 4
 645 534 635 523 629 523 c 4
 622 523 618 539 618 546 c 4
 618 583 621 618 570 618 c 6
 416 618 l 6
 406 618 382.204 605.231 377 588 c 6
 236 98 l 6
EndSplineSet
EndChar

StartChar: Delta
Encoding: 916 916 1083
Width: 738
VWidth: 0
Flags: W
HStem: 1 55<115.106 439.52>
AnchorPoint: "top_accent" 685 700 basechar 0
LayerCount: 2
Fore
SplineSet
104 1 m 6
 63 1 54 -3 23 -3 c 4
 7 -3 -5.05150120952e-16 11.75 0 20 c 4
 8.57224447676e-16 34 39.552734375 73.3583984375 75 108 c 6
 547 564 l 6
 576 592 593 622 601 622 c 4
 614 622 625 626 647 636 c 4
 664 644 691 676 696 676 c 4
 701 676 703.286132812 661.930664062 698 644 c 6
 511 20 l 6
 504.965429083 -0.114272391752 494 -3 474 -3 c 4
 448 -3 415 1 373 1 c 6
 104 1 l 6
360 57 m 4
 427 57 436.142578125 55.625 454 112 c 6
 575 494 l 6
 583.59375 521.131835938 585 539 579 539 c 4
 574 539 559.875 531.124023438 535 506 c 6
 135 102 l 6
 88.7080078125 55.2451171875 122.846679688 56 136 56 c 4
 158 56 341.560546875 57 360 57 c 4
EndSplineSet
EndChar

StartChar: Lambda
Encoding: 923 923 1081
Width: 772
VWidth: 0
Flags: W
HStem: -5 36<17.8519 96.2793 218.7 264.899 429.027 521.434 647.592 701.899>
AnchorPoint: "top_accent" 790 700 basechar 0
AnchorPoint: "below_accent" 334 -100 basechar 0
AnchorPoint: "ogonek" 508 18 basechar 0
AnchorPoint: "cedilla" 124 8 basechar 0
LayerCount: 2
Fore
SplineSet
240 102 m 6
 193.708 55.2451 228 32 241 30 c 4
 262 27 268 19 265 10 c 4
 263 2 251 -1 235 -1 c 4
 218 -1 185 1 151 1 c 4
 110 1 69 -5 38 -5 c 4
 22 -5 13 0 15 8 c 4
 18 17 29 24 52 31 c 4
 87 41 136 65 180 108 c 6
 652 564 l 6
 681 592 698 622 706 622 c 4
 719 622 730 626 752 636 c 4
 769 644 796 676 801 676 c 4
 806 676 808 662 803 644 c 6
 648 128 l 6
 630 67 643 35 678 28 c 4
 698 24 705 14 702 5 c 4
 700 -3 688 -5 672 -5 c 4
 646 -5 586 1 544 1 c 4
 508 1 474 0 452 0 c 4
 436 0 426 3 428 11 c 4
 431 20 447 27 465 31 c 4
 533 45 541.143 55.625 559 112 c 6
 680 494 l 6
 688.594 521.132 690 539 684 539 c 4
 679 539 664.875 531.124 640 506 c 6
 240 102 l 6
EndSplineSet
Validated: 33
EndChar

StartChar: Xi
Encoding: 926 926 1129
Width: 594
VWidth: 0
Flags: W
HStem: -8 21G<33.5 119> 0 63<125.105 533.008> 308 65<296.232 493.774> 403 20G<287.5 292.5 567.5 573.5> 589 61<318.751 659.594>
VStem: 105 25<105.044 146.187> 271 25<378.646 420.282> 493 24<247.483 301.624> 659 28<529.815 579.972>
LayerCount: 2
Fore
SplineSet
296 308 m 2x3f80
 266 308 255 294 237 270 c 0
 232 263 218 246 211 246 c 0
 203 246 208 264 216 278 c 0
 229 302 264 382 271 400 c 0
 279 419 285 423 290 423 c 0
 295 423 298 416 296 404 c 0
 293 389 308 373 321 373 c 10
 508 373 l 18
 520 373 538 387 549 399 c 0
 559 409 564 415 571 415 c 0
 576 415 579 410 574 400 c 0
 555 361 527 305 517 270 c 0
 514 259 508 246 501 246 c 0
 496 246 492 259 493 269 c 0
 496 292 493 308 469 308 c 2
 296 308 l 2x3f80
163 63 m 2x7f80
 458 63 l 2x7f80
 507 63 544 85 571 121 c 0
 576 129 594 150 606 150 c 0
 615 150 608 136 606 129 c 0
 605 125 555 54 538 12 c 0
 534 3 528 -8 519 -8 c 2xbf80
 519 -8 504 0 420 0 c 2
 119 0 l 2x7f80
 73 0 38 -8 38 -8 c 2xbf80
 29 -8 24 4 31 12 c 0
 58 46 81 81 105 128 c 0
 113 143 119 150 125 150 c 0
 132 150 131 139 130 131 c 0
 120 78 121 63 163 63 c 2x7f80
348 589 m 2
 297 589 283 580 252 552 c 0
 243 544 224 527 215 527 c 0
 207 527 209 537 219 550 c 0
 247 588 266 616 290 657 c 0
 297 669 308 675 313 675 c 0
 318 675 321 669 324 664 c 0
 331 653 359 650 384 650 c 10
 656 650 l 10
 683 650 714 655 728 664 c 0
 734 668 739 672 746 672 c 0
 751 672 753 664 747 655 c 0
 722 620 703 588 687 552 c 0
 682 541 674 526 665 526 c 0
 656 526 657 541 659 551 c 0
 664 576 652 589 625 589 c 2
 348 589 l 2
EndSplineSet
Validated: 33
EndChar

StartChar: Pi
Encoding: 928 928 1083
Width: 821
VWidth: 0
Flags: W
HStem: -5 29<6.84375 88.4897 225.031 287.641 462.844 544.49 681.031 743.641> 610 40<371.938 736.764> 622 31<211.501 271.933 846.79 929.556>
LayerCount: 2
Fore
SplineSet
438 610 m 2xc0
 388 610 364 597 350 550 c 2
 212 98 l 2
 198 51 219 33 263 24 c 0
 283 20 288 15 288 6 c 0
 288 -2 274 -5 258 -5 c 0
 208 -5 192 0 150 0 c 24
 103 0 80 -5 30 -5 c 0
 14 -5 6 -2 6 6 c 0
 6 15 19 20 42 24 c 0
 91 33 124 51 138 98 c 2
 276 550 l 2
 290 597 279 613 235 622 c 0
 215 626 211 633 211 642 c 0
 211 650 225 653 241 653 c 0xa0
 291 653 307 650 349 650 c 26
 805 650 l 26xc0
 845 650 857 653 907 653 c 0
 923 653 931 650 931 642 c 0
 931 633 917 626 894 622 c 0xa0
 845 613 820 597 806 550 c 2
 668 98 l 2
 654 51 675 33 719 24 c 0
 739 20 744 15 744 6 c 0
 744 -2 730 -5 714 -5 c 0
 664 -5 648 0 606 0 c 24
 559 0 536 -5 486 -5 c 0
 470 -5 462 -2 462 6 c 0
 462 15 475 20 498 24 c 0
 547 33 580 51 594 98 c 2
 732 550 l 2
 746 597 736 610 691 610 c 2
 438 610 l 2xc0
EndSplineSet
EndChar

StartChar: Upsilon
Encoding: 933 933 643
Width: 686
VWidth: 0
Flags: HW
HStem: -5 29<201.948 278.421 423.55 481.899> 600 50<283.752 380 666.6 813.653>
AnchorPoint: "grk_uc_top" 558 710 basechar 0
AnchorPoint: "grk_uc_top_left" 73 665 basechar 0
LayerCount: 2
Fore
SplineSet
749 650 m 0
 806 650 829 616 846 589 c 0
 848 585 853 577 852 573 c 0
 851 569 844 565 842 567 c 0
 820 589 784 600 746 600 c 0
 663 600 587 537 533 453 c 0
 504 408 476 326 464 288 c 2
 409 108 l 2
 395 63 413 33 457 24 c 0
 477 20 485 15 482 6 c 0
 480 -2 468 -5 452 -5 c 0
 402 -5 387 0 345 0 c 24
 299 0 274 -5 224 -5 c 0
 208 -5 198 -2 200 6 c 0
 203 15 214 20 237 24 c 0
 286 33 320 60 335 108 c 2
 390 287 l 2
 402 327 419 392 417 452 c 0
 415 528 398 600 323 600 c 0
 277 600 226 573 195 549 c 0
 191 546 185 549 187 553 c 17
 187 553 188 560 205 575 c 0
 222 591 297 650 356 650 c 0
 496 650 473 452 477 452 c 0
 481 452 609 650 749 650 c 0
EndSplineSet
EndChar

StartChar: Phi
Encoding: 934 934 1132
Width: 750
VWidth: 0
Flags: HW
HStem: -22 29<175.763 257.391 393.933 456.641> 80 31<266.243 478.252> 543 32<352.453 523.127> 635 31<390.487 451.289 570.146 652.785>
VStem: 85 82<211.282 383.449> 653 82<264.178 434.764>
LayerCount: 2
Fore
SplineSet
447 543 m 0
 298.511 543 167 433.489 167 285 c 4
 167 170.02 276.02 111 391 111 c 0
 528.059 111 653 222.941 653 360 c 0
 653 467.463 554.463 543 447 543 c 0
452 575 m 0
 594.224 575 735 487.224 735 345 c 0
 735 177.803 551.197 80 384 80 c 0
 234.793 80 85 150.793 85 300 c 0
 85 478.854 273.146 575 452 575 c 0
455 563 m 2
 470.276 609.602 458 626 414 635 c 0
 394 639 390 645.51 390 655 c 0
 390 663.25 404 666 420 666 c 0
 470 666 485.863 663 528 663 c 24
 567.797 663 580 666 630 666 c 0
 646 666 654 663.25 654 655 c 0
 654 645.51 640 639 617 635 c 0
 568 626 544.276 609.602 529 563 c 2
 381 81 l 2
 366.604 34.1182 388 16 432 7 c 0
 452 3 457 -1.50977 457 -11 c 0
 457 -19.25 443 -22 427 -22 c 0
 377 -22 361.165 -17 319 -17 c 24
 272.159 -17 249 -22 199 -22 c 0
 183 -22 175 -19.25 175 -11 c 0
 175 -1.50977 188 3 211 7 c 0
 260 16 292.604 34.1182 307 81 c 2
 455 563 l 2
EndSplineSet
EndChar

StartChar: Psi
Encoding: 936 936 1164
Width: 692
VWidth: 0
Flags: W
HStem: -5 29<207.698 287.947 424.077 486.899> 567 50<195.025 233.221 791.886 863.437> 622 31<410.102 471.595 590.128 671.442>
LayerCount: 2
Fore
SplineSet
412 99 m 2
 397 51 418 33 462 24 c 0
 482 20 490 15 487 6 c 0
 485 -2 473 -5 457 -5 c 0
 407 -5 393 0 350 0 c 24
 304 0 279 -5 229 -5 c 0
 213 -5 204 -2 206 6 c 0
 209 15 219 20 242 24 c 0
 291 33 322 51 337 99 c 2
 389 269 l 2
 397 296 389 288 382 289 c 0
 341 296 309 310 287 339 c 0
 266 367 257 419 253 481 c 0
 251 514 240 567 188 567 c 0
 164 567 180 588 194 599 c 0
 216 616 230 617 255 617 c 0
 303 617 324 544 323 451 c 0
 322 383 335 324 398 317 c 0
 402 316 405 321 410 336 c 2
 475 551 l 2
 489 597 479 613 435 622 c 0
 415 626 407 633 410 642 c 0
 412 650 425 653 441 653 c 0
 491 653 505 650 548 650 c 24
 588 650 601 653 651 653 c 0
 667 653 676 650 674 642 c 0
 671 633 660 626 637 622 c 0
 588 613 564 597 550 551 c 2
 483 334 l 2
 478 319 478 316 488 317 c 0
 556 325 605 383 645 451 c 0
 700 544 767 617 815 617 c 0
 840 617 852 616 864 599 c 0
 871 588 874 567 850 567 c 0
 798 567 755 514 733 481 c 0
 691 419 650 367 612 339 c 0
 572 310 525 295 480 289 c 0
 469 288 466 276 462 263 c 2
 412 99 l 2
EndSplineSet
Validated: 33
EndChar

StartChar: beta
Encoding: 946 946 2173
Width: 510
VWidth: 1024
Flags: HW
HStem: -286 21G<60.5 84.5> -14 62<232.381 377.417> 627 78<308.169 405.615>
VStem: 21 56<-252.5 -7.03457> 436 46<101.916 218.25> 443 43<448.655 585.742>
LayerCount: 2
Back
Fore
SplineSet
93 71 m 0xf8
 77 15 77 -20 77 -80 c 4
 77 -158 101 -186 107 -250 c 4
 109 -269 94 -286 75 -286 c 4
 46 -286 21 -269 21 -236 c 4
 21 -116 44 21 58 87 c 0
 119 377 l 2
 144.624 498.817 235.671 705 378 705 c 0
 426.355 705 486 653 486 566 c 0xf4
 486 423 403 338 368 302 c 0
 367.303 301.283 359 291 359 291 c 0
 359 288 369.029 287.483 373 287 c 0
 447 278 482 213 482 158 c 0
 482 51 399 -14 308 -14 c 0
 246 -14 160.741 27.3884 127 78 c 0
 107.663 107.006 96.7192 84.0172 93 71 c 0xf8
436 161 m 0xf8
 436 207 395 251 360 251 c 0
 317.415 251 303 207 257 207 c 0
 251 207 242 218 242 233 c 0
 242 277.078 282.471 306.728 315 317 c 0
 353 329 440 442 443 527 c 0xf4
 444.816 578.454 398.361 627 352 627 c 0
 309 627 246 551 205 465 c 0
 171 394 131 240 131 183 c 0
 131 110 250 47 315 48 c 0
 366.448 48.7915 436 96 436 161 c 0xf8
EndSplineSet
EndChar

StartChar: epsilon
Encoding: 949 949 2174
Width: 291
VWidth: 2048
Flags: W
HStem: -14 53<108.013 218.626> 148 113<186.098 234.262> 356 56<166.846 267.076>
VStem: 53 48<198.581 298.649> 67 37<43.7042 110.951>
LayerCount: 2
Back
Fore
SplineSet
303 86 m 0xe8
 303 44 208 -14 163 -14 c 0
 120 -14 67 -4 67 57 c 0xe8
 67 91 97 131 106 140 c 0
 118 152 123 153 106 163 c 0
 69 184 53 225 53 248 c 0
 53 326 160 412 234 412 c 0
 257 412 268 403 268 381 c 0
 268 359 248 365 215 356 c 0
 176 346 101 306 101 245 c 0xf0
 101 224 114 198 125 198 c 0
 167 198 187 261 224 261 c 0
 249 261 270 248 270 232 c 0
 270 174 219 158 168 148 c 0
 142 143 104 108 104 80 c 0
 104 59 117 39 139 39 c 0
 164 39 186 44 231 67 c 0
 261 82 283 116 291 116 c 0
 303 116 303 104 303 86 c 0xe8
EndSplineSet
EndChar

StartChar: theta
Encoding: 952 952 2179
Width: 473
VWidth: 2048
Flags: HW
HStem: -14 61<160.133 257.488> 309 41<267.566 460.007> 638 65<182.604 303.33>
VStem: 113 42<451.126 609.757> 376 40<246.388 519.623>
LayerCount: 2
Back
Fore
SplineSet
180 -14 m 0
 99 -14 102.8 158 88.7998 158 c 0
 73.7998 158 75.7998 102 54.7998 102 c 0
 35.7998 102 27.7998 141 27.7998 171 c 0
 27.7998 200 56.7998 229.4 85.7998 229.4 c 0
 142.8 229.4 122.8 47.4004 194.8 47.4004 c 0
 323.8 47.4004 376 270 376 402 c 4
 376 492 331 638 256 638 c 0
 193 638 155 625 155 510 c 0
 155 447 241 350 354 350 c 0
 446 350 471 382 492 382 c 0
 500 382 508 369 508 358 c 0
 508 322 393 309 339 309 c 0
 206 309 113 414 113 528 c 0
 113 647 159.8 703.4 239.8 703.4 c 0
 343.8 703.4 416 548 416 387 c 0
 416 202 360 -14 180 -14 c 0
EndSplineSet
EndChar

StartChar: xi
Encoding: 958 958 2183
Width: 422
VWidth: 2048
Flags: HW
HStem: -156 69<199.633 287.565> -14 54<78.1911 215.533> 20 52<188.933 335.667> 385 20G<358.5 395> 606 96<354.946 394.304>
VStem: 10 53<55.7202 145.063> 77 48<357.073 472.56> 136 56<657.828 730.043> 317 65<-55.0167 42.6665>
LayerCount: 2
Back
Fore
SplineSet
442 673 m 0xdf80
 442 653 396 621 338 606 c 0
 249.492 583.11 125 496 125 406 c 0
 125 363.184 164.184 333 207 333 c 0
 254 333 335 405 382 405 c 0
 408 405 408 393 408 372 c 0
 408 304.174 251.073 287.224 209 263 c 0
 143 225 63 147 63 104 c 0
 63 70 89 40 124 40 c 0xdf80
 163 40 263 72 321 72 c 0
 350.333 72 382 57.333 382 28 c 8
 382 -68.127 297 -156 218 -156 c 0
 204 -156 192 -148 192 -133 c 0
 192 -119 198.208 -91.5282 245 -87 c 0
 307 -81 317 -29 317 -13 c 0
 317 3 307 20 285 20 c 0xbf80
 218.534 20 184.466 -14 118 -14 c 0
 63.1719 -14 10 21.1719 10 76 c 0
 10 156 106 234 168 277 c 0
 172.109 279.849 176.158 289.361 156 298 c 0
 121 313 77 353 77 401 c 0
 77 486 169.585 560.591 220 593 c 0
 234 602 234.129 604.859 217 607 c 0
 185 611 136 627 136 688 c 0
 136 728 176 791 216 791 c 0
 227 791 233 783 233 766 c 0
 233 749 192 710 192 690 c 0
 192 660 230 646 260 646 c 0
 295 646 384 702 424 702 c 0
 433 702 442 687 442 673 c 0xdf80
EndSplineSet
EndChar

StartChar: pi
Encoding: 960 960 2184
Width: 664
VWidth: 2048
Flags: W
HStem: -14 21G<161 173 358 391> 350 50<185.703 293.998 352.382 420.479 474.822 674.167>
VStem: 95 43<215.848 304.123> 122 77<-9.31635 34>
LayerCount: 2
Back
Fore
SplineSet
245 350 m 2xd0
 193 350 138 297 138 259 c 0
 138 238 142 236 142 229 c 0
 142 222 134 214 126 214 c 0
 109 214 95 229 95 258 c 0xe0
 95 322 159 400 246 400 c 2
 632 400 l 2
 661 400 675 394 675 380 c 0
 675 359 663 350 639 350 c 2
 505 350 l 2
 483 350 481 346 471 318 c 0
 455 274 425 153 425 136 c 0
 425 130 431 120 446 130 c 0
 460 139 475 152 478 152 c 0
 487 152 490 144 490 124 c 0
 490 85 418 -14 364 -14 c 0
 352 -14 342 0 342 28 c 0
 342 40 347 73 355 100 c 18
 417 316 l 2
 426 348 426 350 396 350 c 0
 371 350 364 351 349 322 c 2
 199 34 l 2
 183 4 178 -16 168 -16 c 0
 154 -16 122 -6 122 4 c 0
 122 18 134 36 146 58 c 2
 275 290 l 2
 293 324 294 324 294 334 c 0
 294 346 291 350 271 350 c 2
 245 350 l 2xd0
EndSplineSet
EndChar

StartChar: sigma
Encoding: 963 963 2186
Width: 496
VWidth: 2048
Flags: W
HStem: -14 78<84.7443 178.193> 333 67<312.837 462.585> 335 79<191.328 426.835>
VStem: 35 38<77.743 192.296> 275 39<188.085 330.979>
LayerCount: 2
Back
Fore
SplineSet
275 256 m 0xb8
 275 293 271.65 335 242 335 c 0
 155 335 73 185 73 129 c 0
 73 85 96.1396 64 128 64 c 0
 193 64 275 193 275 256 c 0xb8
304.2 325.2 m 0
 310.053 303.2 314 288.2 314 245 c 0
 314 127 236 -14 138 -14 c 0
 72.792 -14 35 59 35 140 c 0
 35 278.24 173 414 259 414 c 0xb8
 301 414 370 400 422 400 c 0
 446 400 459 427 477 427 c 4
 489 427 496 409 496 373 c 0
 496 341.482 456 333 436 333 c 0xd8
 396 333 349 340 322 340 c 0
 295 340 300.289 339.901 304.2 325.2 c 0
EndSplineSet
Validated: 1
EndChar

StartChar: phi
Encoding: 966 966 2191
Width: 598
VWidth: 2048
Flags: W
HStem: -286 21G<218.659 244.8> -22 57<156.09 380.189> 339 75<214.778 430.839>
VStem: 33 38<105.182 232.346> 515 38<144.735 267>
LayerCount: 2
Back
SplineSet
672 216 m 0xe4
 672 151 653 95 616 49 c 0
 580 4 531 -28 468 -47 c 1
 458 -49 442 -54 423 -60 c 1
 389 -75 372 -148 372 -280 c 0
 372 -302 370 -317 367 -326 c 0
 361 -342 349 -350 331 -350 c 0
 315 -350 306 -332 306 -297 c 0
 306 -272 311 -238 320 -196 c 1
 330 -147 334 -114 336 -96 c 1
 336 -94 l 2
 336 -87 335 -81 332 -77 c 0
 328 -72 320 -68 310 -65 c 0
 244 -48 210 -38 209 -38 c 0
 172 -26 141 -11 116 8 c 0
 62 49 35 103 35 168 c 0
 35 272 108 359 254 429 c 1
 272 436 298 447 332 463 c 1
 344 469 356 485 368 510 c 0
 377 529 396 538 424 538 c 0
 437 538 449 529 462 508 c 0
 478 483 491 468 500 463 c 0
 523 451 545 440 567 428 c 1
 588 416 607 397 624 374 c 0
 656 330 672 277 672 216 c 0xe4
634 236 m 0
 634 269 624 297 602 322 c 0
 587 340 566 357 542 372 c 0
 515 389 492 397 472 397 c 0
 447 397 434 357 434 276 c 0xcc
 434 253 431 222 427 184 c 2
 417 96 l 2
 414 70 412 54 412 47 c 0xd4
 412 22 419 9 434 9 c 0xcc
 457 9 484 20 515 42 c 0
 548 66 575 94 597 126 c 0
 622 163 634 200 634 236 c 0
378 348 m 0
 378 380 368 396 348 396 c 0
 343 396 337 396 331 394 c 0
 268 378 207 340 146 284 c 0
 93 235 66 193 66 156 c 0
 66 119 95 84 155 52 c 0
 201 28 247 12 294 4 c 0
 300 3 305 2 310 2 c 0
 336 2 352 25 360 70 c 0
 363 90 366 123 366 168 c 0xd4
 366 202 367 234 370 262 c 0
 375 318 378 347 378 348 c 0
EndSplineSet
Fore
SplineSet
384 565 m 4
 405 565 405 547 405 538 c 0
 405 497 378.00508748 459.302357879 358 358 c 2
 264 -118 l 2
 240.163550091 -238.703725073 258.600006104 -286 231 -286 c 0
 206.318359375 -286 187 -267.333984375 187 -251 c 16
 187 -220.66015625 204.737304688 -160.36328125 211 -130 c 2
 316.599609375 382 l 10
 331.962890625 456.489257812 345 565 384 565 c 4
329 339 m 8
 206.977539062 339 71 289.31 71 162 c 0
 71 66.99 187.28515625 35 284 35 c 16
 410.780273438 35 515 124 515 204 c 0
 515 296.95 426.650390625 339 329 339 c 8
334 414 m 16
 448.62 414 553 324.620117188 553 210 c 8
 553 62.7119140625 399.120117188 -22 255 -22 c 8
 145.474609375 -22 33 29.4501953125 33 150 c 8
 33 306.14453125 177.85546875 414 334 414 c 16
EndSplineSet
Validated: 5
EndChar

StartChar: omega
Encoding: 969 969 2191
Width: 557
VWidth: 2048
Flags: W
HStem: -14 63<75.9879 190.205 335.579 423.243> 74 199<275.157 366.5> 394 20G<209.5 262 493 523.5>
VStem: 34 32<64.9728 153.075> 265 116<159.903 226.882> 266 56<110.745 141.715> 517 38<197.418 359.002>
LayerCount: 2
Back
Fore
SplineSet
382 -14 m 0xf6
 302 -14 291.138 74 282 74 c 0
 268.314 74 217 -14 132 -14 c 0
 76 -14 34 15 34 103 c 0
 34 191.8 170 414 249 414 c 0
 275 414 289 405 289 388 c 4
 289 366 66 212 66 97 c 0
 66 73 87 52 117 52 c 0
 199 52 266 120 266 153 c 0xf6
 266 170 265 165 265 181 c 0
 265 206 312 273 354 273 c 0
 379 273 381 241 381 201 c 0xfa
 381 164 322 139 322 97 c 0
 322 76 351 49 387 49 c 0
 428 49 517 174 517 301 c 0
 517 364 472 376 472 392 c 0
 472 408 477 414 509 414 c 0
 538 414 555 350 555 294 c 0
 555 180 495 -14 382 -14 c 0xf6
EndSplineSet
Validated: 1
EndChar

StartChar: uni03D0
Encoding: 976 976 2192
Width: 873
VWidth: 2048
Flags: W
HStem: 0 65<158.94 304.925> 199 66<191.845 329.628> 528 64<236.72 413.34> 702 52<291.657 438.65>
VStem: 55 39<194.341 414.23> 344 30<110.744 186.442> 446 30<621.023 687.621>
LayerCount: 2
Fore
SplineSet
476 648 m 0
 476 611 460 581 427 558 c 0
 398 538 364 528 325 528 c 0
 275 528 228 543 184 570 c 1
 169 555 151 523 133 474 c 0
 117 431 107 396 102 368 c 0
 97 335 94 300 94 264 c 0
 94 232 99 208 110 194 c 1
 163 241 213 265 262 265 c 0
 294 265 321 254 342 232 c 0
 363 210 374 184 374 151 c 0
 374 112 362 78 338 48 c 0
 313 16 282 0 244 0 c 0
 176 0 125 32 92 96 c 0
 67 145 55 207 55 282 c 0
 55 364 74 447 111 528 c 0
 151 616 204 681 269 720 c 0
 307 743 343 754 377 754 c 0
 406 754 431 743 450 722 c 0
 468 702 476 678 476 648 c 0
446 654 m 0
 446 686 423 702 378 702 c 0
 349 702 320 695 290 682 c 0
 256 667 235 648 226 625 c 1
 240 603 279 592 342 592 c 0
 366 592 388 597 408 606 c 0
 433 617 446 633 446 654 c 0
344 151 m 0
 344 183 324 199 282 199 c 0
 254 199 224 192 193 178 c 0
 160 162 137 143 124 121 c 1
 141 84 176 65 229 65 c 0
 245 65 257 66 265 67 c 0
 282 70 300 80 318 98 c 0
 336 116 344 134 344 151 c 0
EndSplineSet
Validated: 1
EndChar

StartChar: theta1
Encoding: 977 977 2191
Width: 949
VWidth: 2048
Flags: W
HStem: 0 82<190.578 311.417> 79 57<69.5087 132.995> 326 50<434.521 566.03> 552 80<154.641 280.499>
VStem: 95 32<442.955 530.162> 378 40<169.834 311.01>
LayerCount: 2
Fore
SplineSet
614 351 m 0xbc
 614 337 598 329 566 326 c 1
 567 326 545 326 501 326 c 0
 446 326 418 313 418 288 c 0
 418 200 409 134 390 93 c 0
 362 31 310 0 233 0 c 0xbc
 207 0 180 14 152 40 c 0
 124 66 108 79 103 79 c 0
 90 79 77 75 64 66 c 0
 51 57 43 52 38 52 c 0
 30 52 26 56 26 64 c 0
 26 76 39 92 64 110 c 0
 88 128 107 136 120 136 c 0x7c
 139 136 160 127 183 109 c 0
 206 91 226 82 243 82 c 0
 291 82 327 105 351 152 c 0
 369 189 378 235 378 288 c 0
 378 307 354 318 305 322 c 0
 238 328 192 336 168 347 c 0
 119 370 95 413 95 477 c 0
 95 521 106 557 128 585 c 0
 152 616 186 632 228 632 c 0
 272 632 310 607 343 557 c 0
 362 528 382 483 402 424 c 0
 409 404 420 391 434 384 c 0
 445 379 464 376 492 376 c 1
 433 377 454 376 554 376 c 0
 583 376 600 375 604 373 c 0
 611 369 614 362 614 351 c 0xbc
368 402 m 0
 368 406 366 413 364 420 c 0
 352 457 333 487 305 512 c 0
 275 539 242 552 205 552 c 0
 153 552 127 529 127 483 c 0
 127 447 155 421 212 404 c 0
 250 393 294 387 342 387 c 0
 359 387 368 392 368 402 c 0
EndSplineSet
Validated: 37
EndChar

StartChar: omega1
Encoding: 982 982 2192
Width: 1140
VWidth: 2048
Flags: W
HStem: -8 66<78.2108 206.683> 0 58<321.902 424.626> 312 64<136.702 203.083> 314 50<505.042 709.487> 496 74<241.344 354.108>
VStem: 34 34<73.186 193.845> 201 37<417.426 490.049> 230 134<163.335 269.832> 247 69<78.0537 156.665> 471 41<115.022 297.104>
LayerCount: 2
Fore
SplineSet
710 340 m 0x5ec0
 710 322 684 313 632 313 c 0
 624 313 613 314 597 314 c 0
 581 314 570 314 562 314 c 0
 524 314 504 307 504 294 c 0
 504 292 505 284 508 270 c 0
 511 256 512 240 512 222 c 0
 512 161 500 110 476 71 c 0
 447 24 405 0 347 0 c 0x5ec0
 334 0 319 5 300 14 c 0
 281 23 267 28 259 28 c 0
 247 28 227 22 198 10 c 0
 169 -2 145 -8 127 -8 c 0
 65 -8 34 32 34 112 c 0
 34 203 58 283 108 350 c 0
 115 360 123 366 131 370 c 0
 139 374 151 376 168 376 c 0
 194 376 206 366 206 348 c 0
 206 333 198 322 180 312 c 1
 165 305 151 297 136 290 c 1
 121 281 106 254 90 210 c 0
 76 170 68 139 68 118 c 0
 68 78 89 58 132 58 c 0
 208 58 247 78 247 118 c 0xaec0
 247 126 245 138 239 154 c 0
 233 170 230 182 230 190 c 0
 230 217 236 240 246 260 c 0
 259 285 278 298 303 298 c 0
 344 298 364 270 364 214 c 0xad40
 364 202 356 184 340 160 c 0
 324 136 316 118 316 106 c 0
 316 74 334 58 368 58 c 0
 402 58 428 74 447 108 c 0
 463 136 471 169 471 206 c 0
 471 267 461 300 441 307 c 0
 437 309 427 309 412 310 c 0
 353 313 309 322 281 336 c 0
 241 356 215 390 204 440 c 0
 202 450 201 463 201 476 c 0
 201 504 208 527 224 544 c 0
 240 561 262 570 290 570 c 0
 328 570 364 549 398 508 c 0
 406 499 429 463 469 400 c 0
 484 376 509 364 544 364 c 0
 556 364 573 364 597 364 c 0
 621 364 638 365 650 365 c 0
 674 365 687 364 689 364 c 0
 703 361 710 354 710 340 c 0x5ec0
436 378 m 0
 436 382 433 386 430 392 c 0
 414 421 395 445 371 464 c 0
 344 485 315 496 286 496 c 0
 254 496 238 483 238 458 c 0
 238 426 262 404 310 389 c 0
 343 379 381 374 422 374 c 0
 431 374 436 375 436 378 c 0
EndSplineSet
EndChar

StartChar: uni03F0
Encoding: 1008 1008 1038
Width: 414
VWidth: 0
Flags: W
HStem: -21 60<255.46 313.638> 356 58<52.457 140.247 309.518 399.418>
VStem: 0 51<-14.3854 70.0622>
LayerCount: 2
Fore
SplineSet
165 363 m 2
 117 221 l 2
 112 206 121 210 126 217 c 0
 198 312 316 414 364 414 c 0
 400 414 414 394 414 363 c 0
 414 356 402 345 392 345 c 8
 374 345 366 352 346 352 c 0
 290 352 210 274 185 240 c 0
 180 234 179 232 182 229 c 0
 194 217 211 192 219 168 c 2
 252 68 l 2
 257 54 270 39 285 39 c 0
 310 39 339 66 357 95 c 0
 364 107 368 110 373 110 c 0
 375 110 378 105 378 100 c 0
 378 35 294 -21 264 -21 c 0
 249 -21 214 -17 201 28 c 2
 166 147 l 2
 158 170 148 190 137 190 c 0
 129 190 120 178 115 167 c 16
 87 107 67 56 51 16 c 0
 42 -6 37 -15 25 -15 c 0
 15 -15 0 3 0 15 c 0
 0 21 0 36 13 74 c 2
 92 312 l 2
 102 341 107 356 94 356 c 0
 74 356 54 352 22 310 c 0
 17 304 9 304 7 314 c 0
 6 326 15 353 24 364 c 0
 46 392 72 413 117 414 c 0
 144 414 177 398 165 363 c 2
EndSplineSet
EndChar

StartChar: uni0402
Encoding: 1026 1026 1154
Width: 737
VWidth: 0
Flags: W
HStem: -227 26<282.126 340.013> -5 27<100.496 178.158 323.086 381.807> 350 37<406.094 534.284> 607 35<196.229 368.493 449.995 657.037>
VStem: 598 74<94.9954 287.244> 669 25<497.114 565.375>
LayerCount: 2
Fore
SplineSet
598 200 m 0xf8
 598 284 552 350 469 350 c 0
 431 350 415 342 387 326 c 8
 375 319 366 310 363 300 c 2
 307 102 l 2
 293 54 313 31 357 22 c 0
 377 18 382 15 382 6 c 0
 382 -2 368 -5 352 -5 c 0
 302 -5 287 0 245 0 c 24
 198 0 174 -5 124 -5 c 0
 108 -5 100 -2 100 6 c 0
 100 15 114 18 137 22 c 0
 186 31 219 54 233 102 c 2
 363 557 l 2
 369 575 373 607 359 607 c 0
 329 607 289 607 250 607 c 0
 194 607 161 560 142 524 c 0
 135 511 131 506 123 506 c 0
 115 506 115 506 115 517 c 0
 115 522 143 596 161 646 c 0
 164 655 169 666 174 666 c 0
 184 666 184 642 223 642 c 2
 679 642 l 2
 708 642 721 666 731 666 c 0
 734 666 737 658 737 650 c 0
 737 643 733 634 729 627 c 0
 722 614 702 565 694 511 c 0
 692 500 688 497 683 497 c 0
 674 497 669 506 669 520 c 0xf4
 669 525 685 607 618 607 c 0
 570 607 487 607 468 607 c 0
 454 607 443 575 437 557 c 2
 388 386 l 10
 386 377 385 361 391 363 c 0
 421 375 462 387 524 387 c 0
 620 387 672 307 672 212 c 0
 672 -15 437 -227 308 -227 c 0
 299 -227 282 -222 282 -215 c 0
 282 -208 293 -203 302 -201 c 0
 411 -179 598 -19 598 200 c 0xf8
EndSplineSet
EndChar

StartChar: uni0404
Encoding: 1028 1028 1152
Width: 622
VWidth: 0
Flags: W
HStem: -14 37<315.982 450.038> 275 60<356.085 502.194> 323 52<211.111 344.491> 628 35<421.727 591.501>
VStem: 96 84<142.219 295.951> 622 33<467.178 536.318>
AnchorPoint: "top_accent" 551 700 basechar 0
AnchorPoint: "below_accent" 420 -100 basechar 0
AnchorPoint: "cedilla" 442 8 basechar 0
LayerCount: 2
Back
SplineSet
538 632 m 0
 406 632 298 520 246 372 c 0
 243 364 246 363 250 363 c 16
 285 361 314 361 342 361 c 0
 375 361 407 362 449 363 c 8
 493 364 537 366 562 373 c 0
 568 375 571 368 569 362 c 0
 568 359 501 314 481 314 c 0
 366 314 297 333 242 336 c 0
 237 336 234 334 232 326 c 0
 202 208 210 22 330 15 c 0
 334 15 339 15 343 15 c 0
 411 15 467 46 507 76 c 0
 532 95 552 121 566 143 c 0
 573 155 587 168 593 168 c 0
 594 168 l 0
 601 167 600 154 597 143 c 0
 589 117 568 74 554 51 c 0
 539 26 514 14 488 5 c 0
 449 -9 379 -15 312 -15 c 8
 145 -15 89 158 144 338 c 8
 198 514 370 664 534 664 c 16
 580 664 609 660 646 651 c 0
 662 647 696 634 712 633 c 0
 719 633 715 617 714 603 c 0
 711 574 704 526 695 494 c 0
 692 485 687 470 678 471 c 0
 668 472 671 489 672 502 c 0
 674 534 656 570 648 581 c 0
 642 591 624 632 538 632 c 0
EndSplineSet
Fore
SplineSet
384 -14 m 0xbc
 234 -14 96 90 96 240 c 0
 96 494 293 663 529 663 c 0
 610 663 662 629 672 629 c 0
 684 629 700 645 715 645 c 0
 727 645 726 634 722 629 c 0
 700 599 664 532 655 487 c 0
 653 477 644 467 637 467 c 0
 625 467 620 481 622 493 c 0
 628 523 634 565 613 593 c 0
 596 616 558 628 519 628 c 0
 363 628 238 500 196 343 c 1
 221 362 253 375 281 375 c 0xbc
 327 375 377 335 443 335 c 0
 470 335 526 340 543 362 c 0
 544 363 545 364 546 364 c 0
 551 364 559 349 556 344 c 0
 542 317 480 275 431 275 c 0xdc
 383 275 318 323 264 323 c 0
 245 323 206 310 185 295 c 1
 182 273 180 250 180 228 c 0
 180 110 294 23 402 23 c 0
 465 23 513 76 552 139 c 0
 558 149 564 157 569 157 c 0
 575 157 576 149 576 138 c 0
 576 115 523 -7 512 -9 c 0
 502 -11 492 11 472 11 c 0
 452 11 435 -14 384 -14 c 0xbc
EndSplineSet
EndChar

StartChar: uni0409
Encoding: 1033 1033 1152
Width: 915
VWidth: 0
Flags: W
HStem: -20 83<38.9021 139.617> -6 31<337.844 422.919 568.06 699.599> 323 28<627.557 725.309> 610 40<448.15 614.811> 622 31<280.487 371.704 721.79 804.556>
VStem: 797 87<118.049 265.173>
LayerCount: 2
Back
SplineSet
67 -20 m 4xa0
 30.9296875 -20 -1.10214571844e-15 4 0 22 c 4
 2.63290366072e-15 65 25 98 49 98 c 4
 71 98 65.9462890625 63 111.946289062 63 c 4
 139.946289062 63 162.927734375 82.57421875 184.946289062 111 c 4
 226 164 343 380 392 550 c 4
 405.58203125 597.122070312 373.946289062 617 304 622 c 4
 283.65625 623.454101562 280 632.509765625 280 642 c 4
 280 650.25 294 653 310 653 c 4x90
 360 653 375.86328125 650 418 650 c 30
 680 650 l 30x20
 719.796875 650 732 653 782 653 c 4
 798 653 806 650.25 806 642 c 4
 806 632.509765625 792 626 769 622 c 4
 720 613 695 597 681 550 c 6
 543 98 l 6
 529 51 550 33 594 24 c 4
 614 20 619 15.490234375 619 6 c 4
 619 -2.25 605 -5 589 -5 c 4
 539 -5 523.165039062 0 481 0 c 28
 434.159179688 0 411 -5 361 -5 c 4
 345 -5 337 -2.25 337 6 c 4
 337 15.490234375 350 20 373 24 c 4x50
 422 33 455 51 469 98 c 6
 607 550 l 6
 621 597 620 610 575 610 c 6
 484 610 l 6
 460.946289062 610 448.411132812 603.169921875 435 556 c 4
 377 352 267 148 201 64 c 4
 158.98828125 10.5302734375 127 -20 67 -20 c 4xa0
EndSplineSet
Fore
SplineSet
630 382 m 2x2c
 624 363 625 351 639 351 c 2
 717 351 l 2
 806 351 884 290 884 193 c 0
 884 80 754 -6 619 -6 c 0
 569 -6 531 0 474 0 c 24
 430 0 411 -5 361 -5 c 0
 345 -5 337 -2 337 6 c 0
 337 15 350 20 373 24 c 0
 422 33 455 51 469 98 c 2
 607 550 l 2
 621 597 620 610 575 610 c 2
 484 610 l 2x74
 461 610 448 603 435 556 c 0
 377 352 267 148 201 64 c 0
 159 11 127 -20 67 -20 c 0
 31 -20 0 4 0 22 c 0
 0 65 25 98 49 98 c 0
 71 98 66 63 112 63 c 0
 140 63 163 83 185 111 c 0
 226 164 343 380 392 550 c 0
 406 597 374 617 304 622 c 0
 284 623 280 633 280 642 c 0
 280 650 294 653 310 653 c 0xac
 360 653 376 650 418 650 c 26
 680 650 l 26x34
 720 650 732 653 782 653 c 0
 798 653 806 650 806 642 c 0
 806 633 792 626 769 622 c 0
 720 613 695 597 681 550 c 2
 630 382 l 2x2c
669 323 m 0
 633 323 609 304 602 280 c 0
 583 220 566 161 552 108 c 0
 547 90 544 65 551 53 c 0
 558 42 597 25 631 25 c 0
 729 25 797 98 797 188 c 0
 797 259 749 323 669 323 c 0
EndSplineSet
Substitution2: "cyrillic_DLLj subtable" uni0409.alt
EndChar

StartChar: uni040A
Encoding: 1034 1034 1150
Width: 957
VWidth: 0
Flags: HW
HStem: -5 29<20.7629 97.2328 228.292 284.641 386.763 462.694 614.894 740.281> 302 41<288.912 531.5> 310 40<339 566.306> 323 28<669.919 767.309> 622 31<221.487 277.532 388.255 467.785 583.487 640.031 752.242 827.785>
VStem: 839 87<118.049 265.173>
LayerCount: 2
Back
SplineSet
626 -4 m 5
 626 -4 563 2 524 2 c 4
 483 2 465 -3 416 -3 c 4
 405 -3 408 24 425 27 c 4
 455 33 468 37 492 56 c 28
 511 72 520 88 526 109 c 6
 590 318 l 6
 592 325 584 330 573 330 c 6
 320 330 l 14
 316 330 303 325 301 317 c 6
 238 109 l 6
 229 81 237 67 248 48 c 28
 258 31 264 30 291 24 c 4
 298 22 300 15 298 9 c 4
 296 3 290 -3 283 -3 c 4
 230 -3 216 2 172 2 c 28
 127 2 105 -3 55 -3 c 4
 44 -3 47 24 64 27 c 4
 94 33 104 29 125 46 c 28
 147 65 156 87 163 109 c 6
 300 557 l 6
 306 575 307 591 298 606 c 28
 289 622 277 620 258 630 c 4
 250 634 256 652 264 652 c 4
 320 652 328 649 369 649 c 28
 409 649 420 652 474 652 c 4
 485 652 477 634 467 630 c 4
 442 620 432 624 407 606 c 4
 394 597 381 576 375 557 c 6
 323 386 l 6
 321 378 326 370 333 370 c 6
 585 370 l 6
 590 370 607 376 610 385 c 6
 662 557 l 6
 668 575 667 590 658 604 c 28
 648 620 637 620 618 630 c 4
 610 634 617 652 625 652 c 4
 681 652 686 649 725 649 c 28
 767 649 779 652 833 652 c 4
 844 652 836 634 826 630 c 4
 801 620 796 622 771 604 c 4
 758 595 742 574 737 557 c 6
 691 408 l 6
 680 373 689 372 695 372 c 4
 719 372 752 376 799 376 c 4
 912 376 964 310 929 194 c 4
 904 112 838 54 786 30 c 4
 741 9 687 -4 626 -4 c 5
708 332 m 4
 681 332 668 328 660 303 c 6
 600 108 l 6
 594 90 595 68 602 56 c 4
 609 45 627 30 650 30 c 4
 723 30 818 103 844 189 c 4
 868 266 834 299 813 314 c 4
 799 324 777 332 731 332 c 4
 724 332 716 332 708 332 c 4
EndSplineSet
Fore
SplineSet
515 0 m 24x9c
 474.004 0.163086 460 -5 410 -5 c 0
 394 -5 386 -2.25 386 6 c 0
 386 15.4902 399 20 422 24 c 0
 464 32 495 54 508 97 c 2
 566 287 l 2
 568 294 574 310 568 310 c 2xac
 276 302 l 2
 272 301.891 270 299 268 291 c 2
 211 106 l 2
 198 64 220 32 260 24 c 0
 280 20 285 15.4902 285 6 c 0
 285 -2.25 271 -5 255 -5 c 0
 205 -5 189.165 0 147 0 c 24
 106.394 0 93 -5 43 -5 c 0
 27 -5 20 -2.25 20 6 c 0
 20 15.4902 33 20 56 24 c 0
 105 33 120 51 135 99 c 2
 273 551 l 2
 287 597 289 613 245 622 c 0
 225 626 221 632.51 221 642 c 0
 221 650.25 235 653 251 653 c 0
 301 653 308.932 650 346 650 c 24
 384.628 650 395 653 445 653 c 0
 461 653 469 650.25 469 642 c 0
 469 632.51 455 626 432 622 c 0
 383 613 359 590 347 551 c 2
 289 359 l 2
 287 351 293.001 342.85 299 343 c 2xcc
 579 350 l 2xac
 584 350.102 586 353 589 362 c 2
 647 552 l 2
 658 588 651 613 607 622 c 0
 587 626 583 632.51 583 642 c 0
 583 650.25 597 653 613 653 c 0
 663 653 678.254 650 720 650 c 24
 753.171 650 755 653 805 653 c 0
 821 653 829 650.25 829 642 c 0
 829 632.51 815 626 792 622 c 0
 743 613 732.447 590.481 721 551 c 2
 672 382 l 2
 666.673 363.089 667 351 681 351 c 2
 759 351 l 2
 848 351 926 290 926 193 c 0
 926 80 796 -6 661 -6 c 0
 611 -6 571.987 -0.227041 515 0 c 24x9c
711 323 m 0x9c
 675 323 651 304 644 280 c 0
 625 220 608 161 594 108 c 0
 589 90 586 65 593 53 c 0
 600 42 639 25 673 25 c 0
 771 25 839 98 839 188 c 0
 839 259 791 323 711 323 c 0x9c
EndSplineSet
EndChar

StartChar: uni040B
Encoding: 1035 1035 1156
Width: 701
VWidth: 0
Flags: W
HStem: -3 25<156.985 213.125 351.201 396.422 459.985 513.245 654.588 690.422> 363 5<437 535> 604 35<292.538 411.972 493.292 700.892>
LayerCount: 2
Fore
SplineSet
535 363 m 0
 489 363 436 347 426 341 c 0
 416 335 414 333 409 321 c 0
 388 262 344 109 344 109 c 2
 337 87 332 65 342 46 c 24
 352 27 364 28 391 22 c 0
 406 19 399 -3 384 -3 c 0
 331 -3 318 2 274 2 c 24
 230 2 211 -3 161 -3 c 0
 150 -3 151 19 168 22 c 0
 198 28 210 29 231 47 c 24
 253 66 262 87 269 109 c 2
 406 557 l 2
 412 575 417 597 403 600 c 0
 387 604 380 604 357 604 c 0
 348 604 335 604 319 604 c 0
 289 604 252 591 231 565 c 0
 222 554 195 527 181 527 c 0
 173 527 180 547 190 560 c 0
 218 598 234 629 252 671 c 0
 262 693 270 694 275 694 c 0
 280 694 287 673 289 662 c 0
 292 648 322 643 348 642 c 16
 400 640 443 639 485 639 c 0
 544 639 601 641 677 645 c 8
 705 647 736 650 750 664 c 0
 765 679 775 686 782 686 c 0
 787 686 793 679 788 669 c 0
 769 630 748 587 738 552 c 0
 735 542 727 527 718 527 c 0
 717 527 717 527 716 527 c 0
 705 529 709 549 708 558 c 0
 705 577 711 604 651 604 c 0
 603 604 526 602 509 600 c 0
 495 598 487 575 481 557 c 2
 481 557 464 508 442 428 c 0
 433 397 427 368 437 368 c 0
 438 368 440 368 442 369 c 0
 470 383 512 396 559 396 c 0
 672 396 708 310 673 194 c 2
 647 109 l 2
 640 87 639 66 648 46 c 24
 655 30 658 28 685 22 c 0
 700 19 693 -3 678 -3 c 0
 625 -3 617 2 577 2 c 24
 533 2 514 -3 464 -3 c 0
 453 -3 454 19 471 22 c 0
 501 28 517 32 541 53 c 24
 560 70 565 87 572 109 c 2
 597 189 l 2
 621 266 622 363 535 363 c 0
EndSplineSet
Validated: 33
EndChar

StartChar: uni040F
Encoding: 1039 1039 1143
Width: 809
VWidth: 0
Flags: HW
HStem: -5 43<213.955 326.531 416.478 550.188> -5 31<21.4436 104.21 649.067 709.499> 624 29<207.359 269.969 406.51 488.156 633.359 695.969 832.51 914.156>
VStem: 324 32<-202.717 -121.313>
LayerCount: 2
Back
SplineSet
311 0 m 6x60
 153 0 l 14x60
 106 0 85 -3 31 -3 c 4
 20 -3 28 15 38 19 c 4xa0
 63 29 81 26 106 44 c 4
 119 53 133 72 139 92 c 6
 276 540 l 6
 283 562 283 576 274 592 c 28
 263 612 256 621 229 627 c 4
 222 629 220 635 222 641 c 4
 224 647 230 652 237 652 c 4
 290 652 306 647 351 647 c 28
 396 647 417 652 467 652 c 4
 478 652 476 630 459 627 c 4
 416 618 376 589 359 540 c 4
 334 464 239 158 221 99 c 4
 211 67 223 41 252 41 c 6
 522 41 l 6x60
 555 41 586 77 595 106 c 6
 728 540 l 6
 735 562 732 576 723 592 c 28
 712 612 705 621 678 627 c 4
 671 629 669 635 671 641 c 4
 673 647 678 652 685 652 c 4
 738 652 754 647 799 647 c 28
 844 647 865 652 915 652 c 4
 926 652 924 630 907 627 c 4
 877 621 864 612 841 592 c 28
 823 576 814 562 807 540 c 6
 670 92 l 6
 664 74 668 58 679 44 c 28
 692 27 708 29 727 19 c 4
 735 15 728 -3 720 -3 c 4xa0
 664 -3 648 0 601 0 c 6
 441 0 l 6
 404 0 345 -214 312 -214 c 4
 279 -214 348 0 311 0 c 6x60
EndSplineSet
Fore
SplineSet
146 -2 m 10x70
 106 -2 94 -5 44 -5 c 0
 28 -5 20 -2 20 6 c 0
 20 15 34 22 57 26 c 0x70
 106 35 131 51 145 98 c 2
 283 550 l 2
 297 597 276 615 232 624 c 0
 212 628 207 633 207 642 c 0
 207 650 221 653 237 653 c 0
 287 653 303 648 345 648 c 24
 392 648 415 653 465 653 c 0
 481 653 489 650 489 642 c 0
 489 633 476 628 453 624 c 0
 404 615 371 597 357 550 c 2
 219 98 l 2
 205 51 215 38 260 38 c 2
 483 38 l 2xb0
 533 38 557 51 571 98 c 2
 709 550 l 2
 723 597 702 615 658 624 c 0
 638 628 633 633 633 642 c 0
 633 650 647 653 663 653 c 0
 713 653 729 648 771 648 c 24
 818 648 841 653 891 653 c 0
 907 653 915 650 915 642 c 0
 915 633 902 628 879 624 c 0
 830 615 797 597 783 550 c 2
 645 98 l 2
 631 51 642 35 686 26 c 0
 706 22 710 15 710 6 c 0
 710 -2 696 -5 680 -5 c 0
 630 -5 614 -3 572 -2 c 18
 440 0 l 2
 425 0 376 -88 356 -172 c 0
 352 -189 347 -203 338 -203 c 0
 329 -203 324 -192 324 -178 c 0
 324 -152 348 1 306 0 c 10
 146 -2 l 10x70
EndSplineSet
EndChar
